<svg xmlns="http://www.w3.org/2000/svg"><symbol id="agent-1" viewBox="0 0 14 14">
<rect x="0.777832" y="0.777832" width="12.4444" height="12.4444" rx="6.22222" fill="#A0EE7E"/>
<path d="M4 9.47363V9.88731C4 10.016 4.05024 10.1418 4.14228 10.2318C6.39563 12.436 8.79312 11.234 9.85825 10.2286C9.95187 10.1402 10 10.016 10 9.88731V9.47363C10 8.36906 9.10485 7.47363 8.00028 7.47363H5.99989C4.89532 7.47363 4 8.36906 4 9.47363Z" fill="#313131"/>
<path d="M7.00049 7.22363C7.96699 7.22363 8.75049 6.44013 8.75049 5.47363C8.75049 4.50713 7.96699 3.72363 7.00049 3.72363C6.03399 3.72363 5.25049 4.50713 5.25049 5.47363C5.25049 6.44013 6.03399 7.22363 7.00049 7.22363Z" fill="#313131"/>
</symbol><symbol id="agent-10" viewBox="0 0 14 14">
<g clip-path="url(#clip0_12889_266737)">
<rect x="0.777344" y="0.777344" width="12.4444" height="12.4444" rx="6.22222" fill="#F77D2E"/>
<g filter="url(#filter0_ddd_12889_266737)">
<path d="M4 9.47363V9.88731C4 10.016 4.05024 10.1418 4.14228 10.2318C6.39563 12.436 8.79312 11.234 9.85825 10.2286C9.95187 10.1402 10 10.016 10 9.88731V9.47363C10 8.36906 9.10485 7.47363 8.00028 7.47363H5.99989C4.89532 7.47363 4 8.36906 4 9.47363Z" fill="white"/>
<path d="M7.00049 7.22363C7.96699 7.22363 8.75049 6.44013 8.75049 5.47363C8.75049 4.50713 7.96699 3.72363 7.00049 3.72363C6.03399 3.72363 5.25049 4.50713 5.25049 5.47363C5.25049 6.44013 6.03399 7.22363 7.00049 7.22363Z" fill="white"/>
</g>
</g>
<defs>
<filter id="filter0_ddd_12889_266737" x="2.50098" y="2.72363" width="9" height="10.75" filterUnits="userSpaceOnUse" color-interpolation-filters="sRGB">
<feFlood flood-opacity="0" result="BackgroundImageFix"/>
<feColorMatrix in="SourceAlpha" type="matrix" values="0 0 0 0 0 0 0 0 0 0 0 0 0 0 0 0 0 0 127 0" result="hardAlpha"/>
<feOffset/>
<feGaussianBlur stdDeviation="0.5"/>
<feColorMatrix type="matrix" values="0 0 0 0 0 0 0 0 0 0 0 0 0 0 0 0 0 0 0.09 0"/>
<feBlend mode="normal" in2="BackgroundImageFix" result="effect1_dropShadow_12889_266737"/>
<feColorMatrix in="SourceAlpha" type="matrix" values="0 0 0 0 0 0 0 0 0 0 0 0 0 0 0 0 0 0 127 0" result="hardAlpha"/>
<feOffset dy="1"/>
<feGaussianBlur stdDeviation="0.5"/>
<feColorMatrix type="matrix" values="0 0 0 0 0 0 0 0 0 0 0 0 0 0 0 0 0 0 0.05 0"/>
<feBlend mode="normal" in2="effect1_dropShadow_12889_266737" result="effect2_dropShadow_12889_266737"/>
<feColorMatrix in="SourceAlpha" type="matrix" values="0 0 0 0 0 0 0 0 0 0 0 0 0 0 0 0 0 0 127 0" result="hardAlpha"/>
<feOffset dy="1"/>
<feGaussianBlur stdDeviation="0.5"/>
<feColorMatrix type="matrix" values="0 0 0 0 0 0 0 0 0 0 0 0 0 0 0 0 0 0 0.01 0"/>
<feBlend mode="normal" in2="effect2_dropShadow_12889_266737" result="effect3_dropShadow_12889_266737"/>
<feBlend mode="normal" in="SourceGraphic" in2="effect3_dropShadow_12889_266737" result="shape"/>
</filter>
<clipPath id="clip0_12889_266737">
<rect x="0.777344" y="0.777344" width="12.4444" height="12.4444" rx="6.22222" fill="white"/>
</clipPath>
</defs>
</symbol><symbol id="agent-11" viewBox="0 0 14 14">
<g clip-path="url(#clip0_12889_266817)">
<rect x="0.777344" y="0.777344" width="12.4444" height="12.4444" rx="6.22222" fill="#F46236"/>
<g filter="url(#filter0_ddd_12889_266817)">
<path d="M4 9.47363V9.88731C4 10.016 4.05024 10.1418 4.14228 10.2318C6.39563 12.436 8.79312 11.234 9.85825 10.2286C9.95187 10.1402 10 10.016 10 9.88731V9.47363C10 8.36906 9.10485 7.47363 8.00028 7.47363H5.99989C4.89532 7.47363 4 8.36906 4 9.47363Z" fill="white"/>
<path d="M7.00049 7.22363C7.96699 7.22363 8.75049 6.44013 8.75049 5.47363C8.75049 4.50713 7.96699 3.72363 7.00049 3.72363C6.03399 3.72363 5.25049 4.50713 5.25049 5.47363C5.25049 6.44013 6.03399 7.22363 7.00049 7.22363Z" fill="white"/>
</g>
</g>
<defs>
<filter id="filter0_ddd_12889_266817" x="2.50098" y="2.72363" width="9" height="10.75" filterUnits="userSpaceOnUse" color-interpolation-filters="sRGB">
<feFlood flood-opacity="0" result="BackgroundImageFix"/>
<feColorMatrix in="SourceAlpha" type="matrix" values="0 0 0 0 0 0 0 0 0 0 0 0 0 0 0 0 0 0 127 0" result="hardAlpha"/>
<feOffset/>
<feGaussianBlur stdDeviation="0.5"/>
<feColorMatrix type="matrix" values="0 0 0 0 0 0 0 0 0 0 0 0 0 0 0 0 0 0 0.09 0"/>
<feBlend mode="normal" in2="BackgroundImageFix" result="effect1_dropShadow_12889_266817"/>
<feColorMatrix in="SourceAlpha" type="matrix" values="0 0 0 0 0 0 0 0 0 0 0 0 0 0 0 0 0 0 127 0" result="hardAlpha"/>
<feOffset dy="1"/>
<feGaussianBlur stdDeviation="0.5"/>
<feColorMatrix type="matrix" values="0 0 0 0 0 0 0 0 0 0 0 0 0 0 0 0 0 0 0.05 0"/>
<feBlend mode="normal" in2="effect1_dropShadow_12889_266817" result="effect2_dropShadow_12889_266817"/>
<feColorMatrix in="SourceAlpha" type="matrix" values="0 0 0 0 0 0 0 0 0 0 0 0 0 0 0 0 0 0 127 0" result="hardAlpha"/>
<feOffset dy="1"/>
<feGaussianBlur stdDeviation="0.5"/>
<feColorMatrix type="matrix" values="0 0 0 0 0 0 0 0 0 0 0 0 0 0 0 0 0 0 0.01 0"/>
<feBlend mode="normal" in2="effect2_dropShadow_12889_266817" result="effect3_dropShadow_12889_266817"/>
<feBlend mode="normal" in="SourceGraphic" in2="effect3_dropShadow_12889_266817" result="shape"/>
</filter>
<clipPath id="clip0_12889_266817">
<rect x="0.777344" y="0.777344" width="12.4444" height="12.4444" rx="6.22222" fill="white"/>
</clipPath>
</defs>
</symbol><symbol id="agent-12" viewBox="0 0 14 14">
<g clip-path="url(#clip0_12889_266897)">
<rect x="0.777344" y="0.777344" width="12.4444" height="12.4444" rx="6.22222" fill="#F0453D"/>
<g filter="url(#filter0_ddd_12889_266897)">
<path d="M4 9.47363V9.88731C4 10.016 4.05024 10.1418 4.14228 10.2318C6.39563 12.436 8.79312 11.234 9.85825 10.2286C9.95187 10.1402 10 10.016 10 9.88731V9.47363C10 8.36906 9.10485 7.47363 8.00028 7.47363H5.99989C4.89532 7.47363 4 8.36906 4 9.47363Z" fill="white"/>
<path d="M7.00049 7.22363C7.96699 7.22363 8.75049 6.44013 8.75049 5.47363C8.75049 4.50713 7.96699 3.72363 7.00049 3.72363C6.03399 3.72363 5.25049 4.50713 5.25049 5.47363C5.25049 6.44013 6.03399 7.22363 7.00049 7.22363Z" fill="white"/>
</g>
</g>
<defs>
<filter id="filter0_ddd_12889_266897" x="2.50098" y="2.72363" width="9" height="10.75" filterUnits="userSpaceOnUse" color-interpolation-filters="sRGB">
<feFlood flood-opacity="0" result="BackgroundImageFix"/>
<feColorMatrix in="SourceAlpha" type="matrix" values="0 0 0 0 0 0 0 0 0 0 0 0 0 0 0 0 0 0 127 0" result="hardAlpha"/>
<feOffset/>
<feGaussianBlur stdDeviation="0.5"/>
<feColorMatrix type="matrix" values="0 0 0 0 0 0 0 0 0 0 0 0 0 0 0 0 0 0 0.09 0"/>
<feBlend mode="normal" in2="BackgroundImageFix" result="effect1_dropShadow_12889_266897"/>
<feColorMatrix in="SourceAlpha" type="matrix" values="0 0 0 0 0 0 0 0 0 0 0 0 0 0 0 0 0 0 127 0" result="hardAlpha"/>
<feOffset dy="1"/>
<feGaussianBlur stdDeviation="0.5"/>
<feColorMatrix type="matrix" values="0 0 0 0 0 0 0 0 0 0 0 0 0 0 0 0 0 0 0.05 0"/>
<feBlend mode="normal" in2="effect1_dropShadow_12889_266897" result="effect2_dropShadow_12889_266897"/>
<feColorMatrix in="SourceAlpha" type="matrix" values="0 0 0 0 0 0 0 0 0 0 0 0 0 0 0 0 0 0 127 0" result="hardAlpha"/>
<feOffset dy="1"/>
<feGaussianBlur stdDeviation="0.5"/>
<feColorMatrix type="matrix" values="0 0 0 0 0 0 0 0 0 0 0 0 0 0 0 0 0 0 0.01 0"/>
<feBlend mode="normal" in2="effect2_dropShadow_12889_266897" result="effect3_dropShadow_12889_266897"/>
<feBlend mode="normal" in="SourceGraphic" in2="effect3_dropShadow_12889_266897" result="shape"/>
</filter>
<clipPath id="clip0_12889_266897">
<rect x="0.777344" y="0.777344" width="12.4444" height="12.4444" rx="6.22222" fill="white"/>
</clipPath>
</defs>
</symbol><symbol id="agent-2" viewBox="0 0 14 14">
<rect x="0.777344" y="0.777344" width="12.4444" height="12.4444" rx="6.22222" fill="#B8EE68"/>
<path d="M4 9.47363V9.88731C4 10.016 4.05024 10.1418 4.14228 10.2318C6.39563 12.436 8.79312 11.234 9.85825 10.2286C9.95187 10.1402 10 10.016 10 9.88731V9.47363C10 8.36906 9.10485 7.47363 8.00028 7.47363H5.99989C4.89532 7.47363 4 8.36906 4 9.47363Z" fill="#313131"/>
<path d="M7.00049 7.22363C7.96699 7.22363 8.75049 6.44013 8.75049 5.47363C8.75049 4.50713 7.96699 3.72363 7.00049 3.72363C6.03399 3.72363 5.25049 4.50713 5.25049 5.47363C5.25049 6.44013 6.03399 7.22363 7.00049 7.22363Z" fill="#313131"/>
</symbol><symbol id="agent-3" viewBox="0 0 14 14">
<rect x="0.777344" y="0.777344" width="12.4444" height="12.4444" rx="6.22222" fill="#CFEE52"/>
<path d="M4 9.47363V9.88731C4 10.016 4.05024 10.1418 4.14228 10.2318C6.39563 12.436 8.79312 11.234 9.85825 10.2286C9.95187 10.1402 10 10.016 10 9.88731V9.47363C10 8.36906 9.10485 7.47363 8.00028 7.47363H5.99989C4.89532 7.47363 4 8.36906 4 9.47363Z" fill="#313131"/>
<path d="M7.00049 7.22363C7.96699 7.22363 8.75049 6.44013 8.75049 5.47363C8.75049 4.50713 7.96699 3.72363 7.00049 3.72363C6.03399 3.72363 5.25049 4.50713 5.25049 5.47363C5.25049 6.44013 6.03399 7.22363 7.00049 7.22363Z" fill="#313131"/>
</symbol><symbol id="agent-4" viewBox="0 0 14 14">
<g clip-path="url(#clip0_12355_42401)">
<rect x="0.777344" y="0.777344" width="12.4444" height="12.4444" rx="6.22222" fill="#E7EE3C"/>
<g filter="url(#filter0_ddd_12355_42401)">
<path d="M4 9.47363V9.88731C4 10.016 4.05024 10.1418 4.14228 10.2318C6.39563 12.436 8.79312 11.234 9.85825 10.2286C9.95187 10.1402 10 10.016 10 9.88731V9.47363C10 8.36906 9.10485 7.47363 8.00028 7.47363H5.99989C4.89532 7.47363 4 8.36906 4 9.47363Z" fill="#313131"/>
<path d="M7.00049 7.22363C7.96699 7.22363 8.75049 6.44013 8.75049 5.47363C8.75049 4.50713 7.96699 3.72363 7.00049 3.72363C6.03399 3.72363 5.25049 4.50713 5.25049 5.47363C5.25049 6.44013 6.03399 7.22363 7.00049 7.22363Z" fill="#313131"/>
</g>
</g>
<defs>
<filter id="filter0_ddd_12355_42401" x="2.50098" y="2.72363" width="9" height="10.75" filterUnits="userSpaceOnUse" color-interpolation-filters="sRGB">
<feFlood flood-opacity="0" result="BackgroundImageFix"/>
<feColorMatrix in="SourceAlpha" type="matrix" values="0 0 0 0 0 0 0 0 0 0 0 0 0 0 0 0 0 0 127 0" result="hardAlpha"/>
<feOffset/>
<feGaussianBlur stdDeviation="0.5"/>
<feColorMatrix type="matrix" values="0 0 0 0 0 0 0 0 0 0 0 0 0 0 0 0 0 0 0.09 0"/>
<feBlend mode="normal" in2="BackgroundImageFix" result="effect1_dropShadow_12355_42401"/>
<feColorMatrix in="SourceAlpha" type="matrix" values="0 0 0 0 0 0 0 0 0 0 0 0 0 0 0 0 0 0 127 0" result="hardAlpha"/>
<feOffset dy="1"/>
<feGaussianBlur stdDeviation="0.5"/>
<feColorMatrix type="matrix" values="0 0 0 0 0 0 0 0 0 0 0 0 0 0 0 0 0 0 0.05 0"/>
<feBlend mode="normal" in2="effect1_dropShadow_12355_42401" result="effect2_dropShadow_12355_42401"/>
<feColorMatrix in="SourceAlpha" type="matrix" values="0 0 0 0 0 0 0 0 0 0 0 0 0 0 0 0 0 0 127 0" result="hardAlpha"/>
<feOffset dy="1"/>
<feGaussianBlur stdDeviation="0.5"/>
<feColorMatrix type="matrix" values="0 0 0 0 0 0 0 0 0 0 0 0 0 0 0 0 0 0 0.01 0"/>
<feBlend mode="normal" in2="effect2_dropShadow_12355_42401" result="effect3_dropShadow_12355_42401"/>
<feBlend mode="normal" in="SourceGraphic" in2="effect3_dropShadow_12355_42401" result="shape"/>
</filter>
<clipPath id="clip0_12355_42401">
<rect x="0.777344" y="0.777344" width="12.4444" height="12.4444" rx="6.22222" fill="white"/>
</clipPath>
</defs>
</symbol><symbol id="agent-5" viewBox="0 0 14 14">
<g clip-path="url(#clip0_12355_42411)">
<rect x="0.777344" y="0.777344" width="12.4444" height="12.4444" rx="6.22222" fill="#FEEE24"/>
<g filter="url(#filter0_ddd_12355_42411)">
<path d="M4 9.47363V9.88731C4 10.016 4.05024 10.1418 4.14228 10.2318C6.39563 12.436 8.79312 11.234 9.85825 10.2286C9.95187 10.1402 10 10.016 10 9.88731V9.47363C10 8.36906 9.10485 7.47363 8.00028 7.47363H5.99989C4.89532 7.47363 4 8.36906 4 9.47363Z" fill="#313131"/>
<path d="M7.00049 7.22363C7.96699 7.22363 8.75049 6.44013 8.75049 5.47363C8.75049 4.50713 7.96699 3.72363 7.00049 3.72363C6.03399 3.72363 5.25049 4.50713 5.25049 5.47363C5.25049 6.44013 6.03399 7.22363 7.00049 7.22363Z" fill="#313131"/>
</g>
</g>
<defs>
<filter id="filter0_ddd_12355_42411" x="2.50098" y="2.72363" width="9" height="10.75" filterUnits="userSpaceOnUse" color-interpolation-filters="sRGB">
<feFlood flood-opacity="0" result="BackgroundImageFix"/>
<feColorMatrix in="SourceAlpha" type="matrix" values="0 0 0 0 0 0 0 0 0 0 0 0 0 0 0 0 0 0 127 0" result="hardAlpha"/>
<feOffset/>
<feGaussianBlur stdDeviation="0.5"/>
<feColorMatrix type="matrix" values="0 0 0 0 0 0 0 0 0 0 0 0 0 0 0 0 0 0 0.09 0"/>
<feBlend mode="normal" in2="BackgroundImageFix" result="effect1_dropShadow_12355_42411"/>
<feColorMatrix in="SourceAlpha" type="matrix" values="0 0 0 0 0 0 0 0 0 0 0 0 0 0 0 0 0 0 127 0" result="hardAlpha"/>
<feOffset dy="1"/>
<feGaussianBlur stdDeviation="0.5"/>
<feColorMatrix type="matrix" values="0 0 0 0 0 0 0 0 0 0 0 0 0 0 0 0 0 0 0.05 0"/>
<feBlend mode="normal" in2="effect1_dropShadow_12355_42411" result="effect2_dropShadow_12355_42411"/>
<feColorMatrix in="SourceAlpha" type="matrix" values="0 0 0 0 0 0 0 0 0 0 0 0 0 0 0 0 0 0 127 0" result="hardAlpha"/>
<feOffset dy="1"/>
<feGaussianBlur stdDeviation="0.5"/>
<feColorMatrix type="matrix" values="0 0 0 0 0 0 0 0 0 0 0 0 0 0 0 0 0 0 0.01 0"/>
<feBlend mode="normal" in2="effect2_dropShadow_12355_42411" result="effect3_dropShadow_12355_42411"/>
<feBlend mode="normal" in="SourceGraphic" in2="effect3_dropShadow_12355_42411" result="shape"/>
</filter>
<clipPath id="clip0_12355_42411">
<rect x="0.777344" y="0.777344" width="12.4444" height="12.4444" rx="6.22222" fill="white"/>
</clipPath>
</defs>
</symbol><symbol id="agent-6" viewBox="0 0 14 14">
<g clip-path="url(#clip0_12355_42413)">
<rect x="0.777344" y="0.777344" width="12.4444" height="12.4444" rx="6.22222" fill="#FEE123"/>
<g filter="url(#filter0_ddd_12355_42413)">
<path d="M4 9.47363V9.88731C4 10.016 4.05024 10.1418 4.14228 10.2318C6.39563 12.436 8.79312 11.234 9.85825 10.2286C9.95187 10.1402 10 10.016 10 9.88731V9.47363C10 8.36906 9.10485 7.47363 8.00028 7.47363H5.99989C4.89532 7.47363 4 8.36906 4 9.47363Z" fill="#313131"/>
<path d="M7.00049 7.22363C7.96699 7.22363 8.75049 6.44013 8.75049 5.47363C8.75049 4.50713 7.96699 3.72363 7.00049 3.72363C6.03399 3.72363 5.25049 4.50713 5.25049 5.47363C5.25049 6.44013 6.03399 7.22363 7.00049 7.22363Z" fill="#313131"/>
</g>
</g>
<defs>
<filter id="filter0_ddd_12355_42413" x="2.50098" y="2.72363" width="9" height="10.75" filterUnits="userSpaceOnUse" color-interpolation-filters="sRGB">
<feFlood flood-opacity="0" result="BackgroundImageFix"/>
<feColorMatrix in="SourceAlpha" type="matrix" values="0 0 0 0 0 0 0 0 0 0 0 0 0 0 0 0 0 0 127 0" result="hardAlpha"/>
<feOffset/>
<feGaussianBlur stdDeviation="0.5"/>
<feColorMatrix type="matrix" values="0 0 0 0 0 0 0 0 0 0 0 0 0 0 0 0 0 0 0.09 0"/>
<feBlend mode="normal" in2="BackgroundImageFix" result="effect1_dropShadow_12355_42413"/>
<feColorMatrix in="SourceAlpha" type="matrix" values="0 0 0 0 0 0 0 0 0 0 0 0 0 0 0 0 0 0 127 0" result="hardAlpha"/>
<feOffset dy="1"/>
<feGaussianBlur stdDeviation="0.5"/>
<feColorMatrix type="matrix" values="0 0 0 0 0 0 0 0 0 0 0 0 0 0 0 0 0 0 0.05 0"/>
<feBlend mode="normal" in2="effect1_dropShadow_12355_42413" result="effect2_dropShadow_12355_42413"/>
<feColorMatrix in="SourceAlpha" type="matrix" values="0 0 0 0 0 0 0 0 0 0 0 0 0 0 0 0 0 0 127 0" result="hardAlpha"/>
<feOffset dy="1"/>
<feGaussianBlur stdDeviation="0.5"/>
<feColorMatrix type="matrix" values="0 0 0 0 0 0 0 0 0 0 0 0 0 0 0 0 0 0 0.01 0"/>
<feBlend mode="normal" in2="effect2_dropShadow_12355_42413" result="effect3_dropShadow_12355_42413"/>
<feBlend mode="normal" in="SourceGraphic" in2="effect3_dropShadow_12355_42413" result="shape"/>
</filter>
<clipPath id="clip0_12355_42413">
<rect x="0.777344" y="0.777344" width="12.4444" height="12.4444" rx="6.22222" fill="white"/>
</clipPath>
</defs>
</symbol><symbol id="agent-7" viewBox="0 0 14 14">
<g clip-path="url(#clip0_12355_42415)">
<rect x="0.777344" y="0.777344" width="12.4444" height="12.4444" rx="6.22222" fill="#FED324"/>
<g filter="url(#filter0_ddd_12355_42415)">
<path d="M4 9.47363V9.88731C4 10.016 4.05024 10.1418 4.14228 10.2318C6.39563 12.436 8.79312 11.234 9.85825 10.2286C9.95187 10.1402 10 10.016 10 9.88731V9.47363C10 8.36906 9.10485 7.47363 8.00028 7.47363H5.99989C4.89532 7.47363 4 8.36906 4 9.47363Z" fill="#313131"/>
<path d="M7.00049 7.22363C7.96699 7.22363 8.75049 6.44013 8.75049 5.47363C8.75049 4.50713 7.96699 3.72363 7.00049 3.72363C6.03399 3.72363 5.25049 4.50713 5.25049 5.47363C5.25049 6.44013 6.03399 7.22363 7.00049 7.22363Z" fill="#313131"/>
</g>
</g>
<defs>
<filter id="filter0_ddd_12355_42415" x="2.50098" y="2.72363" width="9" height="10.75" filterUnits="userSpaceOnUse" color-interpolation-filters="sRGB">
<feFlood flood-opacity="0" result="BackgroundImageFix"/>
<feColorMatrix in="SourceAlpha" type="matrix" values="0 0 0 0 0 0 0 0 0 0 0 0 0 0 0 0 0 0 127 0" result="hardAlpha"/>
<feOffset/>
<feGaussianBlur stdDeviation="0.5"/>
<feColorMatrix type="matrix" values="0 0 0 0 0 0 0 0 0 0 0 0 0 0 0 0 0 0 0.09 0"/>
<feBlend mode="normal" in2="BackgroundImageFix" result="effect1_dropShadow_12355_42415"/>
<feColorMatrix in="SourceAlpha" type="matrix" values="0 0 0 0 0 0 0 0 0 0 0 0 0 0 0 0 0 0 127 0" result="hardAlpha"/>
<feOffset dy="1"/>
<feGaussianBlur stdDeviation="0.5"/>
<feColorMatrix type="matrix" values="0 0 0 0 0 0 0 0 0 0 0 0 0 0 0 0 0 0 0.05 0"/>
<feBlend mode="normal" in2="effect1_dropShadow_12355_42415" result="effect2_dropShadow_12355_42415"/>
<feColorMatrix in="SourceAlpha" type="matrix" values="0 0 0 0 0 0 0 0 0 0 0 0 0 0 0 0 0 0 127 0" result="hardAlpha"/>
<feOffset dy="1"/>
<feGaussianBlur stdDeviation="0.5"/>
<feColorMatrix type="matrix" values="0 0 0 0 0 0 0 0 0 0 0 0 0 0 0 0 0 0 0.01 0"/>
<feBlend mode="normal" in2="effect2_dropShadow_12355_42415" result="effect3_dropShadow_12355_42415"/>
<feBlend mode="normal" in="SourceGraphic" in2="effect3_dropShadow_12355_42415" result="shape"/>
</filter>
<clipPath id="clip0_12355_42415">
<rect x="0.777344" y="0.777344" width="12.4444" height="12.4444" rx="6.22222" fill="white"/>
</clipPath>
</defs>
</symbol><symbol id="agent-8" viewBox="0 0 14 14">
<g clip-path="url(#clip0_12355_42417)">
<rect x="0.777344" y="0.777344" width="12.4444" height="12.4444" rx="6.22222" fill="#FEB721"/>
<g filter="url(#filter0_ddd_12355_42417)">
<path d="M4 9.47363V9.88731C4 10.016 4.05024 10.1418 4.14228 10.2318C6.39563 12.436 8.79312 11.234 9.85825 10.2286C9.95187 10.1402 10 10.016 10 9.88731V9.47363C10 8.36906 9.10485 7.47363 8.00028 7.47363H5.99989C4.89532 7.47363 4 8.36906 4 9.47363Z" fill="#313131"/>
<path d="M7.00049 7.22363C7.96699 7.22363 8.75049 6.44013 8.75049 5.47363C8.75049 4.50713 7.96699 3.72363 7.00049 3.72363C6.03399 3.72363 5.25049 4.50713 5.25049 5.47363C5.25049 6.44013 6.03399 7.22363 7.00049 7.22363Z" fill="#313131"/>
</g>
</g>
<defs>
<filter id="filter0_ddd_12355_42417" x="2.50098" y="2.72363" width="9" height="10.75" filterUnits="userSpaceOnUse" color-interpolation-filters="sRGB">
<feFlood flood-opacity="0" result="BackgroundImageFix"/>
<feColorMatrix in="SourceAlpha" type="matrix" values="0 0 0 0 0 0 0 0 0 0 0 0 0 0 0 0 0 0 127 0" result="hardAlpha"/>
<feOffset/>
<feGaussianBlur stdDeviation="0.5"/>
<feColorMatrix type="matrix" values="0 0 0 0 0 0 0 0 0 0 0 0 0 0 0 0 0 0 0.09 0"/>
<feBlend mode="normal" in2="BackgroundImageFix" result="effect1_dropShadow_12355_42417"/>
<feColorMatrix in="SourceAlpha" type="matrix" values="0 0 0 0 0 0 0 0 0 0 0 0 0 0 0 0 0 0 127 0" result="hardAlpha"/>
<feOffset dy="1"/>
<feGaussianBlur stdDeviation="0.5"/>
<feColorMatrix type="matrix" values="0 0 0 0 0 0 0 0 0 0 0 0 0 0 0 0 0 0 0.05 0"/>
<feBlend mode="normal" in2="effect1_dropShadow_12355_42417" result="effect2_dropShadow_12355_42417"/>
<feColorMatrix in="SourceAlpha" type="matrix" values="0 0 0 0 0 0 0 0 0 0 0 0 0 0 0 0 0 0 127 0" result="hardAlpha"/>
<feOffset dy="1"/>
<feGaussianBlur stdDeviation="0.5"/>
<feColorMatrix type="matrix" values="0 0 0 0 0 0 0 0 0 0 0 0 0 0 0 0 0 0 0.01 0"/>
<feBlend mode="normal" in2="effect2_dropShadow_12355_42417" result="effect3_dropShadow_12355_42417"/>
<feBlend mode="normal" in="SourceGraphic" in2="effect3_dropShadow_12355_42417" result="shape"/>
</filter>
<clipPath id="clip0_12355_42417">
<rect x="0.777344" y="0.777344" width="12.4444" height="12.4444" rx="6.22222" fill="white"/>
</clipPath>
</defs>
</symbol><symbol id="agent-9" viewBox="0 0 14 14">
<g clip-path="url(#clip0_12889_266657)">
<rect x="0.777344" y="0.777344" width="12.4444" height="12.4444" rx="6.22222" fill="#FC9A28"/>
<g filter="url(#filter0_ddd_12889_266657)">
<path d="M4 9.47363V9.88731C4 10.016 4.05024 10.1418 4.14228 10.2318C6.39563 12.436 8.79312 11.234 9.85825 10.2286C9.95187 10.1402 10 10.016 10 9.88731V9.47363C10 8.36906 9.10485 7.47363 8.00028 7.47363H5.99989C4.89532 7.47363 4 8.36906 4 9.47363Z" fill="white"/>
<path d="M7.00049 7.22363C7.96699 7.22363 8.75049 6.44013 8.75049 5.47363C8.75049 4.50713 7.96699 3.72363 7.00049 3.72363C6.03399 3.72363 5.25049 4.50713 5.25049 5.47363C5.25049 6.44013 6.03399 7.22363 7.00049 7.22363Z" fill="white"/>
</g>
</g>
<defs>
<filter id="filter0_ddd_12889_266657" x="2.50098" y="2.72363" width="9" height="10.75" filterUnits="userSpaceOnUse" color-interpolation-filters="sRGB">
<feFlood flood-opacity="0" result="BackgroundImageFix"/>
<feColorMatrix in="SourceAlpha" type="matrix" values="0 0 0 0 0 0 0 0 0 0 0 0 0 0 0 0 0 0 127 0" result="hardAlpha"/>
<feOffset/>
<feGaussianBlur stdDeviation="0.5"/>
<feColorMatrix type="matrix" values="0 0 0 0 0 0 0 0 0 0 0 0 0 0 0 0 0 0 0.09 0"/>
<feBlend mode="normal" in2="BackgroundImageFix" result="effect1_dropShadow_12889_266657"/>
<feColorMatrix in="SourceAlpha" type="matrix" values="0 0 0 0 0 0 0 0 0 0 0 0 0 0 0 0 0 0 127 0" result="hardAlpha"/>
<feOffset dy="1"/>
<feGaussianBlur stdDeviation="0.5"/>
<feColorMatrix type="matrix" values="0 0 0 0 0 0 0 0 0 0 0 0 0 0 0 0 0 0 0.05 0"/>
<feBlend mode="normal" in2="effect1_dropShadow_12889_266657" result="effect2_dropShadow_12889_266657"/>
<feColorMatrix in="SourceAlpha" type="matrix" values="0 0 0 0 0 0 0 0 0 0 0 0 0 0 0 0 0 0 127 0" result="hardAlpha"/>
<feOffset dy="1"/>
<feGaussianBlur stdDeviation="0.5"/>
<feColorMatrix type="matrix" values="0 0 0 0 0 0 0 0 0 0 0 0 0 0 0 0 0 0 0.01 0"/>
<feBlend mode="normal" in2="effect2_dropShadow_12889_266657" result="effect3_dropShadow_12889_266657"/>
<feBlend mode="normal" in="SourceGraphic" in2="effect3_dropShadow_12889_266657" result="shape"/>
</filter>
<clipPath id="clip0_12889_266657">
<rect x="0.777344" y="0.777344" width="12.4444" height="12.4444" rx="6.22222" fill="white"/>
</clipPath>
</defs>
</symbol></svg>