<svg xmlns="http://www.w3.org/2000/svg"><symbol id="land-0" viewBox="0 0 14 14">
<rect x="0.777344" y="0.777344" width="12.4444" height="12.4444" rx="6.22222" fill="#C3C3C3"/>
</symbol><symbol id="land-1" viewBox="0 0 14 14">
<rect x="0.777344" y="0.777344" width="12.4444" height="12.4444" rx="6.22222" fill="#A0EE7E"/>
</symbol><symbol id="land-10" viewBox="0 0 14 14">
<rect x="0.777344" y="0.777344" width="12.4444" height="12.4444" rx="6.22222" fill="#F77D2E"/>
</symbol><symbol id="land-11" viewBox="0 0 14 14">
<rect x="0.777344" y="0.777344" width="12.4444" height="12.4444" rx="6.22222" fill="#F46236"/>
</symbol><symbol id="land-12" viewBox="0 0 14 14">
<rect x="0.777344" y="0.777344" width="12.4444" height="12.4444" rx="6.22222" fill="#F0453D"/>
</symbol><symbol id="land-2" viewBox="0 0 14 14">
<rect x="0.777344" y="0.777344" width="12.4444" height="12.4444" rx="6.22222" fill="#B8EE68"/>
</symbol><symbol id="land-3" viewBox="0 0 14 14">
<rect x="0.777344" y="0.777344" width="12.4444" height="12.4444" rx="6.22222" fill="#CFEE52"/>
</symbol><symbol id="land-4" viewBox="0 0 14 14">
<rect x="0.777344" y="0.777344" width="12.4444" height="12.4444" rx="6.22222" fill="#E7EE3C"/>
</symbol><symbol id="land-5" viewBox="0 0 14 14">
<rect x="0.777344" y="0.777344" width="12.4444" height="12.4444" rx="6.22222" fill="#FEEE24"/>
</symbol><symbol id="land-6" viewBox="0 0 14 14">
<rect x="0.777344" y="0.777344" width="12.4444" height="12.4444" rx="6.22222" fill="#FEE123"/>
</symbol><symbol id="land-7" viewBox="0 0 14 14">
<rect x="0.777344" y="0.777344" width="12.4444" height="12.4444" rx="6.22222" fill="#FED324"/>
</symbol><symbol id="land-8" viewBox="0 0 14 14">
<rect x="0.777344" y="0.777344" width="12.4444" height="12.4444" rx="6.22222" fill="#FEB721"/>
</symbol><symbol id="land-9" viewBox="0 0 14 14">
<rect x="0.777344" y="0.777344" width="12.4444" height="12.4444" rx="6.22222" fill="#FC9A28"/>
</symbol></svg>