<svg xmlns="http://www.w3.org/2000/svg"><symbol id="land-layout-1" viewBox="0 0 14 14">
<rect x="0.777344" y="0.777344" width="12.4444" height="12.4444" rx="6.22222" fill="#A0EE7E"/>
<g clip-path="url(#clip0_13337_26642)">
<path d="M4.66666 3.5H5.54166C6.18599 3.5 6.70832 4.02233 6.70832 4.66666V5.54166C6.70832 6.18599 6.18599 6.70832 5.54166 6.70832H4.66666C4.02233 6.70834 3.5 6.186 3.5 5.54166V4.66666C3.5 4.02233 4.02233 3.5 4.66666 3.5Z" fill="#313131"/>
<path d="M8.45817 3.5H9.33317C9.97749 3.5 10.4998 4.02233 10.4998 4.66666V5.54166C10.4998 6.18599 9.97749 6.70832 9.33317 6.70832H8.45817C7.81384 6.70832 7.2915 6.18599 7.2915 5.54166V4.66666C7.29149 4.02233 7.81382 3.5 8.45817 3.5Z" fill="#313131"/>
<path d="M4.66666 7.2915H5.54166C6.18599 7.2915 6.70832 7.81384 6.70832 8.45817V9.33317C6.70832 9.97749 6.18599 10.4998 5.54166 10.4998H4.66666C4.02233 10.4998 3.5 9.97751 3.5 9.33318V8.45818C3.5 7.81384 4.02233 7.2915 4.66666 7.2915Z" fill="#313131"/>
<path d="M8.45817 7.2915H9.33317C9.97749 7.2915 10.4998 7.81384 10.4998 8.45817V9.33317C10.4998 9.97751 9.97749 10.4998 9.33317 10.4998H8.45817C7.81384 10.4998 7.2915 9.97751 7.2915 9.33318V8.45818C7.29149 7.81384 7.81382 7.2915 8.45817 7.2915Z" fill="#313131"/>
</g>
<defs>
<clipPath id="clip0_13337_26642">
<rect width="7" height="7" fill="white" transform="translate(3.5 3.5)"/>
</clipPath>
</defs>
</symbol><symbol id="land-layout-10" viewBox="0 0 14 14">
<rect x="0.777344" y="0.777344" width="12.4444" height="12.4444" rx="6.22222" fill="#F77E2F"/>
<g clip-path="url(#clip0_13337_26642)">
<path d="M4.66666 3.5H5.54166C6.18599 3.5 6.70832 4.02233 6.70832 4.66666V5.54166C6.70832 6.18599 6.18599 6.70832 5.54166 6.70832H4.66666C4.02233 6.70834 3.5 6.186 3.5 5.54166V4.66666C3.5 4.02233 4.02233 3.5 4.66666 3.5Z" fill="#FFFFFF"/>
<path d="M8.45817 3.5H9.33317C9.97749 3.5 10.4998 4.02233 10.4998 4.66666V5.54166C10.4998 6.18599 9.97749 6.70832 9.33317 6.70832H8.45817C7.81384 6.70832 7.2915 6.18599 7.2915 5.54166V4.66666C7.29149 4.02233 7.81382 3.5 8.45817 3.5Z" fill="#FFFFFF"/>
<path d="M4.66666 7.2915H5.54166C6.18599 7.2915 6.70832 7.81384 6.70832 8.45817V9.33317C6.70832 9.97749 6.18599 10.4998 5.54166 10.4998H4.66666C4.02233 10.4998 3.5 9.97751 3.5 9.33318V8.45818C3.5 7.81384 4.02233 7.2915 4.66666 7.2915Z" fill="#FFFFFF"/>
<path d="M8.45817 7.2915H9.33317C9.97749 7.2915 10.4998 7.81384 10.4998 8.45817V9.33317C10.4998 9.97751 9.97749 10.4998 9.33317 10.4998H8.45817C7.81384 10.4998 7.2915 9.97751 7.2915 9.33318V8.45818C7.29149 7.81384 7.81382 7.2915 8.45817 7.2915Z" fill="#FFFFFF"/>
</g>
<defs>
<clipPath id="clip0_13337_26642">
<rect width="7" height="7" fill="white" transform="translate(3.5 3.5)"/>
</clipPath>
</defs>
</symbol><symbol id="land-layout-11" viewBox="0 0 14 14">
<rect x="0.777344" y="0.777344" width="12.4444" height="12.4444" rx="6.22222" fill="#F46236"/>
<g clip-path="url(#clip0_13337_26642)">
<path d="M4.66666 3.5H5.54166C6.18599 3.5 6.70832 4.02233 6.70832 4.66666V5.54166C6.70832 6.18599 6.18599 6.70832 5.54166 6.70832H4.66666C4.02233 6.70834 3.5 6.186 3.5 5.54166V4.66666C3.5 4.02233 4.02233 3.5 4.66666 3.5Z" fill="#FFFFFF"/>
<path d="M8.45817 3.5H9.33317C9.97749 3.5 10.4998 4.02233 10.4998 4.66666V5.54166C10.4998 6.18599 9.97749 6.70832 9.33317 6.70832H8.45817C7.81384 6.70832 7.2915 6.18599 7.2915 5.54166V4.66666C7.29149 4.02233 7.81382 3.5 8.45817 3.5Z" fill="#FFFFFF"/>
<path d="M4.66666 7.2915H5.54166C6.18599 7.2915 6.70832 7.81384 6.70832 8.45817V9.33317C6.70832 9.97749 6.18599 10.4998 5.54166 10.4998H4.66666C4.02233 10.4998 3.5 9.97751 3.5 9.33318V8.45818C3.5 7.81384 4.02233 7.2915 4.66666 7.2915Z" fill="#FFFFFF"/>
<path d="M8.45817 7.2915H9.33317C9.97749 7.2915 10.4998 7.81384 10.4998 8.45817V9.33317C10.4998 9.97751 9.97749 10.4998 9.33317 10.4998H8.45817C7.81384 10.4998 7.2915 9.97751 7.2915 9.33318V8.45818C7.29149 7.81384 7.81382 7.2915 8.45817 7.2915Z" fill="#FFFFFF"/>
</g>
<defs>
<clipPath id="clip0_13337_26642">
<rect width="7" height="7" fill="white" transform="translate(3.5 3.5)"/>
</clipPath>
</defs>
</symbol><symbol id="land-layout-12" viewBox="0 0 14 14">
<rect x="0.777344" y="0.777344" width="12.4444" height="12.4444" rx="6.22222" fill="#F0453D"/>
<g clip-path="url(#clip0_13337_26642)">
<path d="M4.66666 3.5H5.54166C6.18599 3.5 6.70832 4.02233 6.70832 4.66666V5.54166C6.70832 6.18599 6.18599 6.70832 5.54166 6.70832H4.66666C4.02233 6.70834 3.5 6.186 3.5 5.54166V4.66666C3.5 4.02233 4.02233 3.5 4.66666 3.5Z" fill="#FFFFFF"/>
<path d="M8.45817 3.5H9.33317C9.97749 3.5 10.4998 4.02233 10.4998 4.66666V5.54166C10.4998 6.18599 9.97749 6.70832 9.33317 6.70832H8.45817C7.81384 6.70832 7.2915 6.18599 7.2915 5.54166V4.66666C7.29149 4.02233 7.81382 3.5 8.45817 3.5Z" fill="#FFFFFF"/>
<path d="M4.66666 7.2915H5.54166C6.18599 7.2915 6.70832 7.81384 6.70832 8.45817V9.33317C6.70832 9.97749 6.18599 10.4998 5.54166 10.4998H4.66666C4.02233 10.4998 3.5 9.97751 3.5 9.33318V8.45818C3.5 7.81384 4.02233 7.2915 4.66666 7.2915Z" fill="#FFFFFF"/>
<path d="M8.45817 7.2915H9.33317C9.97749 7.2915 10.4998 7.81384 10.4998 8.45817V9.33317C10.4998 9.97751 9.97749 10.4998 9.33317 10.4998H8.45817C7.81384 10.4998 7.2915 9.97751 7.2915 9.33318V8.45818C7.29149 7.81384 7.81382 7.2915 8.45817 7.2915Z" fill="#FFFFFF"/>
</g>
<defs>
<clipPath id="clip0_13337_26642">
<rect width="7" height="7" fill="white" transform="translate(3.5 3.5)"/>
</clipPath>
</defs>
</symbol><symbol id="land-layout-2" viewBox="0 0 14 14">
<rect x="0.777344" y="0.777344" width="12.4444" height="12.4444" rx="6.22222" fill="#B8EE68"/>
<g clip-path="url(#clip0_13337_26642)">
<path d="M4.66666 3.5H5.54166C6.18599 3.5 6.70832 4.02233 6.70832 4.66666V5.54166C6.70832 6.18599 6.18599 6.70832 5.54166 6.70832H4.66666C4.02233 6.70834 3.5 6.186 3.5 5.54166V4.66666C3.5 4.02233 4.02233 3.5 4.66666 3.5Z" fill="#313131"/>
<path d="M8.45817 3.5H9.33317C9.97749 3.5 10.4998 4.02233 10.4998 4.66666V5.54166C10.4998 6.18599 9.97749 6.70832 9.33317 6.70832H8.45817C7.81384 6.70832 7.2915 6.18599 7.2915 5.54166V4.66666C7.29149 4.02233 7.81382 3.5 8.45817 3.5Z" fill="#313131"/>
<path d="M4.66666 7.2915H5.54166C6.18599 7.2915 6.70832 7.81384 6.70832 8.45817V9.33317C6.70832 9.97749 6.18599 10.4998 5.54166 10.4998H4.66666C4.02233 10.4998 3.5 9.97751 3.5 9.33318V8.45818C3.5 7.81384 4.02233 7.2915 4.66666 7.2915Z" fill="#313131"/>
<path d="M8.45817 7.2915H9.33317C9.97749 7.2915 10.4998 7.81384 10.4998 8.45817V9.33317C10.4998 9.97751 9.97749 10.4998 9.33317 10.4998H8.45817C7.81384 10.4998 7.2915 9.97751 7.2915 9.33318V8.45818C7.29149 7.81384 7.81382 7.2915 8.45817 7.2915Z" fill="#313131"/>
</g>
<defs>
<clipPath id="clip0_13337_26642">
<rect width="7" height="7" fill="white" transform="translate(3.5 3.5)"/>
</clipPath>
</defs>
</symbol><symbol id="land-layout-3" viewBox="0 0 14 14">
<rect x="0.777344" y="0.777344" width="12.4444" height="12.4444" rx="6.22222" fill="#CFEE52"/>
<g clip-path="url(#clip0_13337_26642)">
<path d="M4.66666 3.5H5.54166C6.18599 3.5 6.70832 4.02233 6.70832 4.66666V5.54166C6.70832 6.18599 6.18599 6.70832 5.54166 6.70832H4.66666C4.02233 6.70834 3.5 6.186 3.5 5.54166V4.66666C3.5 4.02233 4.02233 3.5 4.66666 3.5Z" fill="#313131"/>
<path d="M8.45817 3.5H9.33317C9.97749 3.5 10.4998 4.02233 10.4998 4.66666V5.54166C10.4998 6.18599 9.97749 6.70832 9.33317 6.70832H8.45817C7.81384 6.70832 7.2915 6.18599 7.2915 5.54166V4.66666C7.29149 4.02233 7.81382 3.5 8.45817 3.5Z" fill="#313131"/>
<path d="M4.66666 7.2915H5.54166C6.18599 7.2915 6.70832 7.81384 6.70832 8.45817V9.33317C6.70832 9.97749 6.18599 10.4998 5.54166 10.4998H4.66666C4.02233 10.4998 3.5 9.97751 3.5 9.33318V8.45818C3.5 7.81384 4.02233 7.2915 4.66666 7.2915Z" fill="#313131"/>
<path d="M8.45817 7.2915H9.33317C9.97749 7.2915 10.4998 7.81384 10.4998 8.45817V9.33317C10.4998 9.97751 9.97749 10.4998 9.33317 10.4998H8.45817C7.81384 10.4998 7.2915 9.97751 7.2915 9.33318V8.45818C7.29149 7.81384 7.81382 7.2915 8.45817 7.2915Z" fill="#313131"/>
</g>
<defs>
<clipPath id="clip0_13337_26642">
<rect width="7" height="7" fill="white" transform="translate(3.5 3.5)"/>
</clipPath>
</defs>
</symbol><symbol id="land-layout-4" viewBox="0 0 14 14">
<rect x="0.777344" y="0.777344" width="12.4444" height="12.4444" rx="6.22222" fill="#E7EE3C"/>
<g clip-path="url(#clip0_13337_26642)">
<path d="M4.66666 3.5H5.54166C6.18599 3.5 6.70832 4.02233 6.70832 4.66666V5.54166C6.70832 6.18599 6.18599 6.70832 5.54166 6.70832H4.66666C4.02233 6.70834 3.5 6.186 3.5 5.54166V4.66666C3.5 4.02233 4.02233 3.5 4.66666 3.5Z" fill="#313131"/>
<path d="M8.45817 3.5H9.33317C9.97749 3.5 10.4998 4.02233 10.4998 4.66666V5.54166C10.4998 6.18599 9.97749 6.70832 9.33317 6.70832H8.45817C7.81384 6.70832 7.2915 6.18599 7.2915 5.54166V4.66666C7.29149 4.02233 7.81382 3.5 8.45817 3.5Z" fill="#313131"/>
<path d="M4.66666 7.2915H5.54166C6.18599 7.2915 6.70832 7.81384 6.70832 8.45817V9.33317C6.70832 9.97749 6.18599 10.4998 5.54166 10.4998H4.66666C4.02233 10.4998 3.5 9.97751 3.5 9.33318V8.45818C3.5 7.81384 4.02233 7.2915 4.66666 7.2915Z" fill="#313131"/>
<path d="M8.45817 7.2915H9.33317C9.97749 7.2915 10.4998 7.81384 10.4998 8.45817V9.33317C10.4998 9.97751 9.97749 10.4998 9.33317 10.4998H8.45817C7.81384 10.4998 7.2915 9.97751 7.2915 9.33318V8.45818C7.29149 7.81384 7.81382 7.2915 8.45817 7.2915Z" fill="#313131"/>
</g>
<defs>
<clipPath id="clip0_13337_26642">
<rect width="7" height="7" fill="white" transform="translate(3.5 3.5)"/>
</clipPath>
</defs>
</symbol><symbol id="land-layout-5" viewBox="0 0 14 14">
<rect x="0.777344" y="0.777344" width="12.4444" height="12.4444" rx="6.22222" fill="#FEEE25"/>
<g clip-path="url(#clip0_13337_26642)">
<path d="M4.66666 3.5H5.54166C6.18599 3.5 6.70832 4.02233 6.70832 4.66666V5.54166C6.70832 6.18599 6.18599 6.70832 5.54166 6.70832H4.66666C4.02233 6.70834 3.5 6.186 3.5 5.54166V4.66666C3.5 4.02233 4.02233 3.5 4.66666 3.5Z" fill="#313131"/>
<path d="M8.45817 3.5H9.33317C9.97749 3.5 10.4998 4.02233 10.4998 4.66666V5.54166C10.4998 6.18599 9.97749 6.70832 9.33317 6.70832H8.45817C7.81384 6.70832 7.2915 6.18599 7.2915 5.54166V4.66666C7.29149 4.02233 7.81382 3.5 8.45817 3.5Z" fill="#313131"/>
<path d="M4.66666 7.2915H5.54166C6.18599 7.2915 6.70832 7.81384 6.70832 8.45817V9.33317C6.70832 9.97749 6.18599 10.4998 5.54166 10.4998H4.66666C4.02233 10.4998 3.5 9.97751 3.5 9.33318V8.45818C3.5 7.81384 4.02233 7.2915 4.66666 7.2915Z" fill="#313131"/>
<path d="M8.45817 7.2915H9.33317C9.97749 7.2915 10.4998 7.81384 10.4998 8.45817V9.33317C10.4998 9.97751 9.97749 10.4998 9.33317 10.4998H8.45817C7.81384 10.4998 7.2915 9.97751 7.2915 9.33318V8.45818C7.29149 7.81384 7.81382 7.2915 8.45817 7.2915Z" fill="#313131"/>
</g>
<defs>
<clipPath id="clip0_13337_26642">
<rect width="7" height="7" fill="white" transform="translate(3.5 3.5)"/>
</clipPath>
</defs>
</symbol><symbol id="land-layout-6" viewBox="0 0 14 14">
<rect x="0.777344" y="0.777344" width="12.4444" height="12.4444" rx="6.22222" fill="#FEE124"/>
<g clip-path="url(#clip0_13337_26642)">
<path d="M4.66666 3.5H5.54166C6.18599 3.5 6.70832 4.02233 6.70832 4.66666V5.54166C6.70832 6.18599 6.18599 6.70832 5.54166 6.70832H4.66666C4.02233 6.70834 3.5 6.186 3.5 5.54166V4.66666C3.5 4.02233 4.02233 3.5 4.66666 3.5Z" fill="#313131"/>
<path d="M8.45817 3.5H9.33317C9.97749 3.5 10.4998 4.02233 10.4998 4.66666V5.54166C10.4998 6.18599 9.97749 6.70832 9.33317 6.70832H8.45817C7.81384 6.70832 7.2915 6.18599 7.2915 5.54166V4.66666C7.29149 4.02233 7.81382 3.5 8.45817 3.5Z" fill="#313131"/>
<path d="M4.66666 7.2915H5.54166C6.18599 7.2915 6.70832 7.81384 6.70832 8.45817V9.33317C6.70832 9.97749 6.18599 10.4998 5.54166 10.4998H4.66666C4.02233 10.4998 3.5 9.97751 3.5 9.33318V8.45818C3.5 7.81384 4.02233 7.2915 4.66666 7.2915Z" fill="#313131"/>
<path d="M8.45817 7.2915H9.33317C9.97749 7.2915 10.4998 7.81384 10.4998 8.45817V9.33317C10.4998 9.97751 9.97749 10.4998 9.33317 10.4998H8.45817C7.81384 10.4998 7.2915 9.97751 7.2915 9.33318V8.45818C7.29149 7.81384 7.81382 7.2915 8.45817 7.2915Z" fill="#313131"/>
</g>
<defs>
<clipPath id="clip0_13337_26642">
<rect width="7" height="7" fill="white" transform="translate(3.5 3.5)"/>
</clipPath>
</defs>
</symbol><symbol id="land-layout-7" viewBox="0 0 14 14">
<rect x="0.777344" y="0.777344" width="12.4444" height="12.4444" rx="6.22222" fill="#FED323"/>
<g clip-path="url(#clip0_13337_26642)">
<path d="M4.66666 3.5H5.54166C6.18599 3.5 6.70832 4.02233 6.70832 4.66666V5.54166C6.70832 6.18599 6.18599 6.70832 5.54166 6.70832H4.66666C4.02233 6.70834 3.5 6.186 3.5 5.54166V4.66666C3.5 4.02233 4.02233 3.5 4.66666 3.5Z" fill="#313131"/>
<path d="M8.45817 3.5H9.33317C9.97749 3.5 10.4998 4.02233 10.4998 4.66666V5.54166C10.4998 6.18599 9.97749 6.70832 9.33317 6.70832H8.45817C7.81384 6.70832 7.2915 6.18599 7.2915 5.54166V4.66666C7.29149 4.02233 7.81382 3.5 8.45817 3.5Z" fill="#313131"/>
<path d="M4.66666 7.2915H5.54166C6.18599 7.2915 6.70832 7.81384 6.70832 8.45817V9.33317C6.70832 9.97749 6.18599 10.4998 5.54166 10.4998H4.66666C4.02233 10.4998 3.5 9.97751 3.5 9.33318V8.45818C3.5 7.81384 4.02233 7.2915 4.66666 7.2915Z" fill="#313131"/>
<path d="M8.45817 7.2915H9.33317C9.97749 7.2915 10.4998 7.81384 10.4998 8.45817V9.33317C10.4998 9.97751 9.97749 10.4998 9.33317 10.4998H8.45817C7.81384 10.4998 7.2915 9.97751 7.2915 9.33318V8.45818C7.29149 7.81384 7.81382 7.2915 8.45817 7.2915Z" fill="#313131"/>
</g>
<defs>
<clipPath id="clip0_13337_26642">
<rect width="7" height="7" fill="white" transform="translate(3.5 3.5)"/>
</clipPath>
</defs>
</symbol><symbol id="land-layout-8" viewBox="0 0 14 14">
<rect x="0.777344" y="0.777344" width="12.4444" height="12.4444" rx="6.22222" fill="#FEB721"/>
<g clip-path="url(#clip0_13337_26642)">
<path d="M4.66666 3.5H5.54166C6.18599 3.5 6.70832 4.02233 6.70832 4.66666V5.54166C6.70832 6.18599 6.18599 6.70832 5.54166 6.70832H4.66666C4.02233 6.70834 3.5 6.186 3.5 5.54166V4.66666C3.5 4.02233 4.02233 3.5 4.66666 3.5Z" fill="#313131"/>
<path d="M8.45817 3.5H9.33317C9.97749 3.5 10.4998 4.02233 10.4998 4.66666V5.54166C10.4998 6.18599 9.97749 6.70832 9.33317 6.70832H8.45817C7.81384 6.70832 7.2915 6.18599 7.2915 5.54166V4.66666C7.29149 4.02233 7.81382 3.5 8.45817 3.5Z" fill="#313131"/>
<path d="M4.66666 7.2915H5.54166C6.18599 7.2915 6.70832 7.81384 6.70832 8.45817V9.33317C6.70832 9.97749 6.18599 10.4998 5.54166 10.4998H4.66666C4.02233 10.4998 3.5 9.97751 3.5 9.33318V8.45818C3.5 7.81384 4.02233 7.2915 4.66666 7.2915Z" fill="#313131"/>
<path d="M8.45817 7.2915H9.33317C9.97749 7.2915 10.4998 7.81384 10.4998 8.45817V9.33317C10.4998 9.97751 9.97749 10.4998 9.33317 10.4998H8.45817C7.81384 10.4998 7.2915 9.97751 7.2915 9.33318V8.45818C7.29149 7.81384 7.81382 7.2915 8.45817 7.2915Z" fill="#313131"/>
</g>
<defs>
<clipPath id="clip0_13337_26642">
<rect width="7" height="7" fill="white" transform="translate(3.5 3.5)"/>
</clipPath>
</defs>
</symbol><symbol id="land-layout-9" viewBox="0 0 14 14">
<rect x="0.777344" y="0.777344" width="12.4444" height="12.4444" rx="6.22222" fill="#FB9B28"/>
<g clip-path="url(#clip0_13337_26642)">
<path d="M4.66666 3.5H5.54166C6.18599 3.5 6.70832 4.02233 6.70832 4.66666V5.54166C6.70832 6.18599 6.18599 6.70832 5.54166 6.70832H4.66666C4.02233 6.70834 3.5 6.186 3.5 5.54166V4.66666C3.5 4.02233 4.02233 3.5 4.66666 3.5Z" fill="#FFFFFF"/>
<path d="M8.45817 3.5H9.33317C9.97749 3.5 10.4998 4.02233 10.4998 4.66666V5.54166C10.4998 6.18599 9.97749 6.70832 9.33317 6.70832H8.45817C7.81384 6.70832 7.2915 6.18599 7.2915 5.54166V4.66666C7.29149 4.02233 7.81382 3.5 8.45817 3.5Z" fill="#FFFFFF"/>
<path d="M4.66666 7.2915H5.54166C6.18599 7.2915 6.70832 7.81384 6.70832 8.45817V9.33317C6.70832 9.97749 6.18599 10.4998 5.54166 10.4998H4.66666C4.02233 10.4998 3.5 9.97751 3.5 9.33318V8.45818C3.5 7.81384 4.02233 7.2915 4.66666 7.2915Z" fill="#FFFFFF"/>
<path d="M8.45817 7.2915H9.33317C9.97749 7.2915 10.4998 7.81384 10.4998 8.45817V9.33317C10.4998 9.97751 9.97749 10.4998 9.33317 10.4998H8.45817C7.81384 10.4998 7.2915 9.97751 7.2915 9.33318V8.45818C7.29149 7.81384 7.81382 7.2915 8.45817 7.2915Z" fill="#FFFFFF"/>
</g>
<defs>
<clipPath id="clip0_13337_26642">
<rect width="7" height="7" fill="white" transform="translate(3.5 3.5)"/>
</clipPath>
</defs>
</symbol></svg>