<svg xmlns="http://www.w3.org/2000/svg"><symbol id="land-owner-0" viewBox="0 0 14 14">
<g clip-path="url(#clip0_15202_105172)">
<rect x="0.777344" y="0.777588" width="12.4444" height="12.4444" rx="6.22222" fill="#C3C3C3"/>
<g filter="url(#filter0_ddd_15202_105172)">
<path d="M9.85227 7.09115C9.85227 7.72562 9.73201 8.2654 9.49148 8.71047C9.25284 9.15555 8.92708 9.49551 8.5142 9.73036C8.10322 9.96331 7.6411 10.0798 7.12784 10.0798C6.6108 10.0798 6.14678 9.96237 5.7358 9.72752C5.32481 9.49267 5 9.15271 4.76136 8.70763C4.52273 8.26255 4.40341 7.72373 4.40341 7.09115C4.40341 6.45668 4.52273 5.91691 4.76136 5.47184C5 5.02676 5.32481 4.68774 5.7358 4.45479C6.14678 4.21994 6.6108 4.10252 7.12784 4.10252C7.6411 4.10252 8.10322 4.21994 8.5142 4.45479C8.92708 4.68774 9.25284 5.02676 9.49148 5.47184C9.73201 5.91691 9.85227 6.45668 9.85227 7.09115ZM8.60511 7.09115C8.60511 6.68017 8.54356 6.33358 8.42045 6.05138C8.29924 5.76918 8.12784 5.55517 7.90625 5.40934C7.68466 5.2635 7.42519 5.19059 7.12784 5.19059C6.83049 5.19059 6.57102 5.2635 6.34943 5.40934C6.12784 5.55517 5.95549 5.76918 5.83239 6.05138C5.71117 6.33358 5.65057 6.68017 5.65057 7.09115C5.65057 7.50214 5.71117 7.84873 5.83239 8.13093C5.95549 8.41312 6.12784 8.62714 6.34943 8.77297C6.57102 8.9188 6.83049 8.99172 7.12784 8.99172C7.42519 8.99172 7.68466 8.9188 7.90625 8.77297C8.12784 8.62714 8.29924 8.41312 8.42045 8.13093C8.54356 7.84873 8.60511 7.50214 8.60511 7.09115Z" fill="white"/>
</g>
</g>
<defs>
<filter id="filter0_ddd_15202_105172" x="3.40234" y="3.10254" width="7.44922" height="9.97723" filterUnits="userSpaceOnUse" color-interpolation-filters="sRGB">
<feFlood flood-opacity="0" result="BackgroundImageFix"/>
<feColorMatrix in="SourceAlpha" type="matrix" values="0 0 0 0 0 0 0 0 0 0 0 0 0 0 0 0 0 0 127 0" result="hardAlpha"/>
<feOffset/>
<feGaussianBlur stdDeviation="0.5"/>
<feColorMatrix type="matrix" values="0 0 0 0 0 0 0 0 0 0 0 0 0 0 0 0 0 0 0.09 0"/>
<feBlend mode="normal" in2="BackgroundImageFix" result="effect1_dropShadow_15202_105172"/>
<feColorMatrix in="SourceAlpha" type="matrix" values="0 0 0 0 0 0 0 0 0 0 0 0 0 0 0 0 0 0 127 0" result="hardAlpha"/>
<feOffset dy="1"/>
<feGaussianBlur stdDeviation="0.5"/>
<feColorMatrix type="matrix" values="0 0 0 0 0 0 0 0 0 0 0 0 0 0 0 0 0 0 0.05 0"/>
<feBlend mode="normal" in2="effect1_dropShadow_15202_105172" result="effect2_dropShadow_15202_105172"/>
<feColorMatrix in="SourceAlpha" type="matrix" values="0 0 0 0 0 0 0 0 0 0 0 0 0 0 0 0 0 0 127 0" result="hardAlpha"/>
<feOffset dy="2"/>
<feGaussianBlur stdDeviation="0.5"/>
<feColorMatrix type="matrix" values="0 0 0 0 0 0 0 0 0 0 0 0 0 0 0 0 0 0 0.01 0"/>
<feBlend mode="normal" in2="effect2_dropShadow_15202_105172" result="effect3_dropShadow_15202_105172"/>
<feBlend mode="normal" in="SourceGraphic" in2="effect3_dropShadow_15202_105172" result="shape"/>
</filter>
<clipPath id="clip0_15202_105172">
<rect x="0.777344" y="0.777588" width="12.4444" height="12.4444" rx="6.22222" fill="white"/>
</clipPath>
</defs>
</symbol><symbol id="land-owner-1" viewBox="0 0 14 14">
<rect x="0.777344" y="0.777588" width="12.4444" height="12.4444" rx="6.22222" fill="#A0EE7E"/>
<path d="M9.85227 7.09115C9.85227 7.72562 9.73201 8.2654 9.49148 8.71047C9.25284 9.15555 8.92708 9.49551 8.5142 9.73036C8.10322 9.96331 7.6411 10.0798 7.12784 10.0798C6.6108 10.0798 6.14678 9.96237 5.7358 9.72752C5.32481 9.49267 5 9.15271 4.76136 8.70763C4.52273 8.26255 4.40341 7.72373 4.40341 7.09115C4.40341 6.45668 4.52273 5.91691 4.76136 5.47184C5 5.02676 5.32481 4.68774 5.7358 4.45479C6.14678 4.21994 6.6108 4.10252 7.12784 4.10252C7.6411 4.10252 8.10322 4.21994 8.5142 4.45479C8.92708 4.68774 9.25284 5.02676 9.49148 5.47184C9.73201 5.91691 9.85227 6.45668 9.85227 7.09115ZM8.60511 7.09115C8.60511 6.68017 8.54356 6.33358 8.42045 6.05138C8.29924 5.76918 8.12784 5.55517 7.90625 5.40934C7.68466 5.2635 7.42519 5.19059 7.12784 5.19059C6.83049 5.19059 6.57102 5.2635 6.34943 5.40934C6.12784 5.55517 5.95549 5.76918 5.83239 6.05138C5.71117 6.33358 5.65057 6.68017 5.65057 7.09115C5.65057 7.50214 5.71117 7.84873 5.83239 8.13093C5.95549 8.41312 6.12784 8.62714 6.34943 8.77297C6.57102 8.9188 6.83049 8.99172 7.12784 8.99172C7.42519 8.99172 7.68466 8.9188 7.90625 8.77297C8.12784 8.62714 8.29924 8.41312 8.42045 8.13093C8.54356 7.84873 8.60511 7.50214 8.60511 7.09115Z" fill="#313131"/>
</symbol><symbol id="land-owner-10" viewBox="0 0 14 14">
<g clip-path="url(#clip0_15202_105163)">
<rect x="0.777344" y="0.777588" width="12.4444" height="12.4444" rx="6.22222" fill="#F77D2E"/>
<g filter="url(#filter0_ddd_15202_105163)">
<path d="M9.85227 7.09115C9.85227 7.72562 9.73201 8.2654 9.49148 8.71047C9.25284 9.15555 8.92708 9.49551 8.5142 9.73036C8.10322 9.96331 7.6411 10.0798 7.12784 10.0798C6.6108 10.0798 6.14678 9.96237 5.7358 9.72752C5.32481 9.49267 5 9.15271 4.76136 8.70763C4.52273 8.26255 4.40341 7.72373 4.40341 7.09115C4.40341 6.45668 4.52273 5.91691 4.76136 5.47184C5 5.02676 5.32481 4.68774 5.7358 4.45479C6.14678 4.21994 6.6108 4.10252 7.12784 4.10252C7.6411 4.10252 8.10322 4.21994 8.5142 4.45479C8.92708 4.68774 9.25284 5.02676 9.49148 5.47184C9.73201 5.91691 9.85227 6.45668 9.85227 7.09115ZM8.60511 7.09115C8.60511 6.68017 8.54356 6.33358 8.42045 6.05138C8.29924 5.76918 8.12784 5.55517 7.90625 5.40934C7.68466 5.2635 7.42519 5.19059 7.12784 5.19059C6.83049 5.19059 6.57102 5.2635 6.34943 5.40934C6.12784 5.55517 5.95549 5.76918 5.83239 6.05138C5.71117 6.33358 5.65057 6.68017 5.65057 7.09115C5.65057 7.50214 5.71117 7.84873 5.83239 8.13093C5.95549 8.41312 6.12784 8.62714 6.34943 8.77297C6.57102 8.9188 6.83049 8.99172 7.12784 8.99172C7.42519 8.99172 7.68466 8.9188 7.90625 8.77297C8.12784 8.62714 8.29924 8.41312 8.42045 8.13093C8.54356 7.84873 8.60511 7.50214 8.60511 7.09115Z" fill="white"/>
</g>
</g>
<defs>
<filter id="filter0_ddd_15202_105163" x="3.40234" y="3.10251" width="7.44922" height="9.97729" filterUnits="userSpaceOnUse" color-interpolation-filters="sRGB">
<feFlood flood-opacity="0" result="BackgroundImageFix"/>
<feColorMatrix in="SourceAlpha" type="matrix" values="0 0 0 0 0 0 0 0 0 0 0 0 0 0 0 0 0 0 127 0" result="hardAlpha"/>
<feOffset/>
<feGaussianBlur stdDeviation="0.5"/>
<feColorMatrix type="matrix" values="0 0 0 0 0 0 0 0 0 0 0 0 0 0 0 0 0 0 0.09 0"/>
<feBlend mode="normal" in2="BackgroundImageFix" result="effect1_dropShadow_15202_105163"/>
<feColorMatrix in="SourceAlpha" type="matrix" values="0 0 0 0 0 0 0 0 0 0 0 0 0 0 0 0 0 0 127 0" result="hardAlpha"/>
<feOffset dy="1"/>
<feGaussianBlur stdDeviation="0.5"/>
<feColorMatrix type="matrix" values="0 0 0 0 0 0 0 0 0 0 0 0 0 0 0 0 0 0 0.05 0"/>
<feBlend mode="normal" in2="effect1_dropShadow_15202_105163" result="effect2_dropShadow_15202_105163"/>
<feColorMatrix in="SourceAlpha" type="matrix" values="0 0 0 0 0 0 0 0 0 0 0 0 0 0 0 0 0 0 127 0" result="hardAlpha"/>
<feOffset dy="2"/>
<feGaussianBlur stdDeviation="0.5"/>
<feColorMatrix type="matrix" values="0 0 0 0 0 0 0 0 0 0 0 0 0 0 0 0 0 0 0.01 0"/>
<feBlend mode="normal" in2="effect2_dropShadow_15202_105163" result="effect3_dropShadow_15202_105163"/>
<feBlend mode="normal" in="SourceGraphic" in2="effect3_dropShadow_15202_105163" result="shape"/>
</filter>
<clipPath id="clip0_15202_105163">
<rect x="0.777344" y="0.777588" width="12.4444" height="12.4444" rx="6.22222" fill="white"/>
</clipPath>
</defs>
</symbol><symbol id="land-owner-11" viewBox="0 0 14 14">
<g clip-path="url(#clip0_15202_105166)">
<rect x="0.777344" y="0.777588" width="12.4444" height="12.4444" rx="6.22222" fill="#F46236"/>
<g filter="url(#filter0_ddd_15202_105166)">
<path d="M9.85227 7.09115C9.85227 7.72562 9.73201 8.2654 9.49148 8.71047C9.25284 9.15555 8.92708 9.49551 8.5142 9.73036C8.10322 9.96331 7.6411 10.0798 7.12784 10.0798C6.6108 10.0798 6.14678 9.96237 5.7358 9.72752C5.32481 9.49267 5 9.15271 4.76136 8.70763C4.52273 8.26255 4.40341 7.72373 4.40341 7.09115C4.40341 6.45668 4.52273 5.91691 4.76136 5.47184C5 5.02676 5.32481 4.68774 5.7358 4.45479C6.14678 4.21994 6.6108 4.10252 7.12784 4.10252C7.6411 4.10252 8.10322 4.21994 8.5142 4.45479C8.92708 4.68774 9.25284 5.02676 9.49148 5.47184C9.73201 5.91691 9.85227 6.45668 9.85227 7.09115ZM8.60511 7.09115C8.60511 6.68017 8.54356 6.33358 8.42045 6.05138C8.29924 5.76918 8.12784 5.55517 7.90625 5.40934C7.68466 5.2635 7.42519 5.19059 7.12784 5.19059C6.83049 5.19059 6.57102 5.2635 6.34943 5.40934C6.12784 5.55517 5.95549 5.76918 5.83239 6.05138C5.71117 6.33358 5.65057 6.68017 5.65057 7.09115C5.65057 7.50214 5.71117 7.84873 5.83239 8.13093C5.95549 8.41312 6.12784 8.62714 6.34943 8.77297C6.57102 8.9188 6.83049 8.99172 7.12784 8.99172C7.42519 8.99172 7.68466 8.9188 7.90625 8.77297C8.12784 8.62714 8.29924 8.41312 8.42045 8.13093C8.54356 7.84873 8.60511 7.50214 8.60511 7.09115Z" fill="white"/>
</g>
</g>
<defs>
<filter id="filter0_ddd_15202_105166" x="3.40234" y="3.10251" width="7.44922" height="9.97729" filterUnits="userSpaceOnUse" color-interpolation-filters="sRGB">
<feFlood flood-opacity="0" result="BackgroundImageFix"/>
<feColorMatrix in="SourceAlpha" type="matrix" values="0 0 0 0 0 0 0 0 0 0 0 0 0 0 0 0 0 0 127 0" result="hardAlpha"/>
<feOffset/>
<feGaussianBlur stdDeviation="0.5"/>
<feColorMatrix type="matrix" values="0 0 0 0 0 0 0 0 0 0 0 0 0 0 0 0 0 0 0.09 0"/>
<feBlend mode="normal" in2="BackgroundImageFix" result="effect1_dropShadow_15202_105166"/>
<feColorMatrix in="SourceAlpha" type="matrix" values="0 0 0 0 0 0 0 0 0 0 0 0 0 0 0 0 0 0 127 0" result="hardAlpha"/>
<feOffset dy="1"/>
<feGaussianBlur stdDeviation="0.5"/>
<feColorMatrix type="matrix" values="0 0 0 0 0 0 0 0 0 0 0 0 0 0 0 0 0 0 0.05 0"/>
<feBlend mode="normal" in2="effect1_dropShadow_15202_105166" result="effect2_dropShadow_15202_105166"/>
<feColorMatrix in="SourceAlpha" type="matrix" values="0 0 0 0 0 0 0 0 0 0 0 0 0 0 0 0 0 0 127 0" result="hardAlpha"/>
<feOffset dy="2"/>
<feGaussianBlur stdDeviation="0.5"/>
<feColorMatrix type="matrix" values="0 0 0 0 0 0 0 0 0 0 0 0 0 0 0 0 0 0 0.01 0"/>
<feBlend mode="normal" in2="effect2_dropShadow_15202_105166" result="effect3_dropShadow_15202_105166"/>
<feBlend mode="normal" in="SourceGraphic" in2="effect3_dropShadow_15202_105166" result="shape"/>
</filter>
<clipPath id="clip0_15202_105166">
<rect x="0.777344" y="0.777588" width="12.4444" height="12.4444" rx="6.22222" fill="white"/>
</clipPath>
</defs>
</symbol><symbol id="land-owner-12" viewBox="0 0 14 14">
<g clip-path="url(#clip0_15202_105169)">
<rect x="0.777344" y="0.777588" width="12.4444" height="12.4444" rx="6.22222" fill="#F0453D"/>
<g filter="url(#filter0_ddd_15202_105169)">
<path d="M9.85227 7.09115C9.85227 7.72562 9.73201 8.2654 9.49148 8.71047C9.25284 9.15555 8.92708 9.49551 8.5142 9.73036C8.10322 9.96331 7.6411 10.0798 7.12784 10.0798C6.6108 10.0798 6.14678 9.96237 5.7358 9.72752C5.32481 9.49267 5 9.15271 4.76136 8.70763C4.52273 8.26255 4.40341 7.72373 4.40341 7.09115C4.40341 6.45668 4.52273 5.91691 4.76136 5.47184C5 5.02676 5.32481 4.68774 5.7358 4.45479C6.14678 4.21994 6.6108 4.10252 7.12784 4.10252C7.6411 4.10252 8.10322 4.21994 8.5142 4.45479C8.92708 4.68774 9.25284 5.02676 9.49148 5.47184C9.73201 5.91691 9.85227 6.45668 9.85227 7.09115ZM8.60511 7.09115C8.60511 6.68017 8.54356 6.33358 8.42045 6.05138C8.29924 5.76918 8.12784 5.55517 7.90625 5.40934C7.68466 5.2635 7.42519 5.19059 7.12784 5.19059C6.83049 5.19059 6.57102 5.2635 6.34943 5.40934C6.12784 5.55517 5.95549 5.76918 5.83239 6.05138C5.71117 6.33358 5.65057 6.68017 5.65057 7.09115C5.65057 7.50214 5.71117 7.84873 5.83239 8.13093C5.95549 8.41312 6.12784 8.62714 6.34943 8.77297C6.57102 8.9188 6.83049 8.99172 7.12784 8.99172C7.42519 8.99172 7.68466 8.9188 7.90625 8.77297C8.12784 8.62714 8.29924 8.41312 8.42045 8.13093C8.54356 7.84873 8.60511 7.50214 8.60511 7.09115Z" fill="white"/>
</g>
</g>
<defs>
<filter id="filter0_ddd_15202_105169" x="3.40234" y="3.10254" width="7.44922" height="9.97723" filterUnits="userSpaceOnUse" color-interpolation-filters="sRGB">
<feFlood flood-opacity="0" result="BackgroundImageFix"/>
<feColorMatrix in="SourceAlpha" type="matrix" values="0 0 0 0 0 0 0 0 0 0 0 0 0 0 0 0 0 0 127 0" result="hardAlpha"/>
<feOffset/>
<feGaussianBlur stdDeviation="0.5"/>
<feColorMatrix type="matrix" values="0 0 0 0 0 0 0 0 0 0 0 0 0 0 0 0 0 0 0.09 0"/>
<feBlend mode="normal" in2="BackgroundImageFix" result="effect1_dropShadow_15202_105169"/>
<feColorMatrix in="SourceAlpha" type="matrix" values="0 0 0 0 0 0 0 0 0 0 0 0 0 0 0 0 0 0 127 0" result="hardAlpha"/>
<feOffset dy="1"/>
<feGaussianBlur stdDeviation="0.5"/>
<feColorMatrix type="matrix" values="0 0 0 0 0 0 0 0 0 0 0 0 0 0 0 0 0 0 0.05 0"/>
<feBlend mode="normal" in2="effect1_dropShadow_15202_105169" result="effect2_dropShadow_15202_105169"/>
<feColorMatrix in="SourceAlpha" type="matrix" values="0 0 0 0 0 0 0 0 0 0 0 0 0 0 0 0 0 0 127 0" result="hardAlpha"/>
<feOffset dy="2"/>
<feGaussianBlur stdDeviation="0.5"/>
<feColorMatrix type="matrix" values="0 0 0 0 0 0 0 0 0 0 0 0 0 0 0 0 0 0 0.01 0"/>
<feBlend mode="normal" in2="effect2_dropShadow_15202_105169" result="effect3_dropShadow_15202_105169"/>
<feBlend mode="normal" in="SourceGraphic" in2="effect3_dropShadow_15202_105169" result="shape"/>
</filter>
<clipPath id="clip0_15202_105169">
<rect x="0.777344" y="0.777588" width="12.4444" height="12.4444" rx="6.22222" fill="white"/>
</clipPath>
</defs>
</symbol><symbol id="land-owner-2" viewBox="0 0 14 14">
<rect x="0.777344" y="0.777588" width="12.4444" height="12.4444" rx="6.22222" fill="#B8EE68"/>
<path d="M9.85227 7.09115C9.85227 7.72562 9.73201 8.2654 9.49148 8.71047C9.25284 9.15555 8.92708 9.49551 8.5142 9.73036C8.10322 9.96331 7.6411 10.0798 7.12784 10.0798C6.6108 10.0798 6.14678 9.96237 5.7358 9.72752C5.32481 9.49267 5 9.15271 4.76136 8.70763C4.52273 8.26255 4.40341 7.72373 4.40341 7.09115C4.40341 6.45668 4.52273 5.91691 4.76136 5.47184C5 5.02676 5.32481 4.68774 5.7358 4.45479C6.14678 4.21994 6.6108 4.10252 7.12784 4.10252C7.6411 4.10252 8.10322 4.21994 8.5142 4.45479C8.92708 4.68774 9.25284 5.02676 9.49148 5.47184C9.73201 5.91691 9.85227 6.45668 9.85227 7.09115ZM8.60511 7.09115C8.60511 6.68017 8.54356 6.33358 8.42045 6.05138C8.29924 5.76918 8.12784 5.55517 7.90625 5.40934C7.68466 5.2635 7.42519 5.19059 7.12784 5.19059C6.83049 5.19059 6.57102 5.2635 6.34943 5.40934C6.12784 5.55517 5.95549 5.76918 5.83239 6.05138C5.71117 6.33358 5.65057 6.68017 5.65057 7.09115C5.65057 7.50214 5.71117 7.84873 5.83239 8.13093C5.95549 8.41312 6.12784 8.62714 6.34943 8.77297C6.57102 8.9188 6.83049 8.99172 7.12784 8.99172C7.42519 8.99172 7.68466 8.9188 7.90625 8.77297C8.12784 8.62714 8.29924 8.41312 8.42045 8.13093C8.54356 7.84873 8.60511 7.50214 8.60511 7.09115Z" fill="#313131"/>
</symbol><symbol id="land-owner-3" viewBox="0 0 14 14">
<rect x="0.777344" y="0.777588" width="12.4444" height="12.4444" rx="6.22222" fill="#CFEE52"/>
<path d="M9.85227 7.09115C9.85227 7.72562 9.73201 8.2654 9.49148 8.71047C9.25284 9.15555 8.92708 9.49551 8.5142 9.73036C8.10322 9.96331 7.6411 10.0798 7.12784 10.0798C6.6108 10.0798 6.14678 9.96237 5.7358 9.72752C5.32481 9.49267 5 9.15271 4.76136 8.70763C4.52273 8.26255 4.40341 7.72373 4.40341 7.09115C4.40341 6.45668 4.52273 5.91691 4.76136 5.47184C5 5.02676 5.32481 4.68774 5.7358 4.45479C6.14678 4.21994 6.6108 4.10252 7.12784 4.10252C7.6411 4.10252 8.10322 4.21994 8.5142 4.45479C8.92708 4.68774 9.25284 5.02676 9.49148 5.47184C9.73201 5.91691 9.85227 6.45668 9.85227 7.09115ZM8.60511 7.09115C8.60511 6.68017 8.54356 6.33358 8.42045 6.05138C8.29924 5.76918 8.12784 5.55517 7.90625 5.40934C7.68466 5.2635 7.42519 5.19059 7.12784 5.19059C6.83049 5.19059 6.57102 5.2635 6.34943 5.40934C6.12784 5.55517 5.95549 5.76918 5.83239 6.05138C5.71117 6.33358 5.65057 6.68017 5.65057 7.09115C5.65057 7.50214 5.71117 7.84873 5.83239 8.13093C5.95549 8.41312 6.12784 8.62714 6.34943 8.77297C6.57102 8.9188 6.83049 8.99172 7.12784 8.99172C7.42519 8.99172 7.68466 8.9188 7.90625 8.77297C8.12784 8.62714 8.29924 8.41312 8.42045 8.13093C8.54356 7.84873 8.60511 7.50214 8.60511 7.09115Z" fill="#313131"/>
</symbol><symbol id="land-owner-4" viewBox="0 0 14 14">
<rect x="0.777344" y="0.777588" width="12.4444" height="12.4444" rx="6.22222" fill="#E7EE3C"/>
<path d="M9.85227 7.09115C9.85227 7.72562 9.73201 8.2654 9.49148 8.71047C9.25284 9.15555 8.92708 9.49551 8.5142 9.73036C8.10322 9.96331 7.6411 10.0798 7.12784 10.0798C6.6108 10.0798 6.14678 9.96237 5.7358 9.72752C5.32481 9.49267 5 9.15271 4.76136 8.70763C4.52273 8.26255 4.40341 7.72373 4.40341 7.09115C4.40341 6.45668 4.52273 5.91691 4.76136 5.47184C5 5.02676 5.32481 4.68774 5.7358 4.45479C6.14678 4.21994 6.6108 4.10252 7.12784 4.10252C7.6411 4.10252 8.10322 4.21994 8.5142 4.45479C8.92708 4.68774 9.25284 5.02676 9.49148 5.47184C9.73201 5.91691 9.85227 6.45668 9.85227 7.09115ZM8.60511 7.09115C8.60511 6.68017 8.54356 6.33358 8.42045 6.05138C8.29924 5.76918 8.12784 5.55517 7.90625 5.40934C7.68466 5.2635 7.42519 5.19059 7.12784 5.19059C6.83049 5.19059 6.57102 5.2635 6.34943 5.40934C6.12784 5.55517 5.95549 5.76918 5.83239 6.05138C5.71117 6.33358 5.65057 6.68017 5.65057 7.09115C5.65057 7.50214 5.71117 7.84873 5.83239 8.13093C5.95549 8.41312 6.12784 8.62714 6.34943 8.77297C6.57102 8.9188 6.83049 8.99172 7.12784 8.99172C7.42519 8.99172 7.68466 8.9188 7.90625 8.77297C8.12784 8.62714 8.29924 8.41312 8.42045 8.13093C8.54356 7.84873 8.60511 7.50214 8.60511 7.09115Z" fill="#313131"/>
</symbol><symbol id="land-owner-5" viewBox="0 0 14 14">
<rect x="0.777344" y="0.777588" width="12.4444" height="12.4444" rx="6.22222" fill="#FEEE24"/>
<path d="M9.85227 7.09115C9.85227 7.72562 9.73201 8.2654 9.49148 8.71047C9.25284 9.15555 8.92708 9.49551 8.5142 9.73036C8.10322 9.96331 7.6411 10.0798 7.12784 10.0798C6.6108 10.0798 6.14678 9.96237 5.7358 9.72752C5.32481 9.49267 5 9.15271 4.76136 8.70763C4.52273 8.26255 4.40341 7.72373 4.40341 7.09115C4.40341 6.45668 4.52273 5.91691 4.76136 5.47184C5 5.02676 5.32481 4.68774 5.7358 4.45479C6.14678 4.21994 6.6108 4.10252 7.12784 4.10252C7.6411 4.10252 8.10322 4.21994 8.5142 4.45479C8.92708 4.68774 9.25284 5.02676 9.49148 5.47184C9.73201 5.91691 9.85227 6.45668 9.85227 7.09115ZM8.60511 7.09115C8.60511 6.68017 8.54356 6.33358 8.42045 6.05138C8.29924 5.76918 8.12784 5.55517 7.90625 5.40934C7.68466 5.2635 7.42519 5.19059 7.12784 5.19059C6.83049 5.19059 6.57102 5.2635 6.34943 5.40934C6.12784 5.55517 5.95549 5.76918 5.83239 6.05138C5.71117 6.33358 5.65057 6.68017 5.65057 7.09115C5.65057 7.50214 5.71117 7.84873 5.83239 8.13093C5.95549 8.41312 6.12784 8.62714 6.34943 8.77297C6.57102 8.9188 6.83049 8.99172 7.12784 8.99172C7.42519 8.99172 7.68466 8.9188 7.90625 8.77297C8.12784 8.62714 8.29924 8.41312 8.42045 8.13093C8.54356 7.84873 8.60511 7.50214 8.60511 7.09115Z" fill="#313131"/>
</symbol><symbol id="land-owner-6" viewBox="0 0 14 14">
<rect x="0.777344" y="0.777588" width="12.4444" height="12.4444" rx="6.22222" fill="#FEE123"/>
<path d="M9.85227 7.09115C9.85227 7.72562 9.73201 8.2654 9.49148 8.71047C9.25284 9.15555 8.92708 9.49551 8.5142 9.73036C8.10322 9.96331 7.6411 10.0798 7.12784 10.0798C6.6108 10.0798 6.14678 9.96237 5.7358 9.72752C5.32481 9.49267 5 9.15271 4.76136 8.70763C4.52273 8.26255 4.40341 7.72373 4.40341 7.09115C4.40341 6.45668 4.52273 5.91691 4.76136 5.47184C5 5.02676 5.32481 4.68774 5.7358 4.45479C6.14678 4.21994 6.6108 4.10252 7.12784 4.10252C7.6411 4.10252 8.10322 4.21994 8.5142 4.45479C8.92708 4.68774 9.25284 5.02676 9.49148 5.47184C9.73201 5.91691 9.85227 6.45668 9.85227 7.09115ZM8.60511 7.09115C8.60511 6.68017 8.54356 6.33358 8.42045 6.05138C8.29924 5.76918 8.12784 5.55517 7.90625 5.40934C7.68466 5.2635 7.42519 5.19059 7.12784 5.19059C6.83049 5.19059 6.57102 5.2635 6.34943 5.40934C6.12784 5.55517 5.95549 5.76918 5.83239 6.05138C5.71117 6.33358 5.65057 6.68017 5.65057 7.09115C5.65057 7.50214 5.71117 7.84873 5.83239 8.13093C5.95549 8.41312 6.12784 8.62714 6.34943 8.77297C6.57102 8.9188 6.83049 8.99172 7.12784 8.99172C7.42519 8.99172 7.68466 8.9188 7.90625 8.77297C8.12784 8.62714 8.29924 8.41312 8.42045 8.13093C8.54356 7.84873 8.60511 7.50214 8.60511 7.09115Z" fill="#313131"/>
</symbol><symbol id="land-owner-7" viewBox="0 0 14 14">
<rect x="0.777344" y="0.777588" width="12.4444" height="12.4444" rx="6.22222" fill="#FED324"/>
<path d="M9.85227 7.09115C9.85227 7.72562 9.73201 8.2654 9.49148 8.71047C9.25284 9.15555 8.92708 9.49551 8.5142 9.73036C8.10322 9.96331 7.6411 10.0798 7.12784 10.0798C6.6108 10.0798 6.14678 9.96237 5.7358 9.72752C5.32481 9.49267 5 9.15271 4.76136 8.70763C4.52273 8.26255 4.40341 7.72373 4.40341 7.09115C4.40341 6.45668 4.52273 5.91691 4.76136 5.47184C5 5.02676 5.32481 4.68774 5.7358 4.45479C6.14678 4.21994 6.6108 4.10252 7.12784 4.10252C7.6411 4.10252 8.10322 4.21994 8.5142 4.45479C8.92708 4.68774 9.25284 5.02676 9.49148 5.47184C9.73201 5.91691 9.85227 6.45668 9.85227 7.09115ZM8.60511 7.09115C8.60511 6.68017 8.54356 6.33358 8.42045 6.05138C8.29924 5.76918 8.12784 5.55517 7.90625 5.40934C7.68466 5.2635 7.42519 5.19059 7.12784 5.19059C6.83049 5.19059 6.57102 5.2635 6.34943 5.40934C6.12784 5.55517 5.95549 5.76918 5.83239 6.05138C5.71117 6.33358 5.65057 6.68017 5.65057 7.09115C5.65057 7.50214 5.71117 7.84873 5.83239 8.13093C5.95549 8.41312 6.12784 8.62714 6.34943 8.77297C6.57102 8.9188 6.83049 8.99172 7.12784 8.99172C7.42519 8.99172 7.68466 8.9188 7.90625 8.77297C8.12784 8.62714 8.29924 8.41312 8.42045 8.13093C8.54356 7.84873 8.60511 7.50214 8.60511 7.09115Z" fill="#313131"/>
</symbol><symbol id="land-owner-8" viewBox="0 0 14 14">
<rect x="0.777344" y="0.777588" width="12.4444" height="12.4444" rx="6.22222" fill="#FEB721"/>
<path d="M9.85227 7.09115C9.85227 7.72562 9.73201 8.2654 9.49148 8.71047C9.25284 9.15555 8.92708 9.49551 8.5142 9.73036C8.10322 9.96331 7.6411 10.0798 7.12784 10.0798C6.6108 10.0798 6.14678 9.96237 5.7358 9.72752C5.32481 9.49267 5 9.15271 4.76136 8.70763C4.52273 8.26255 4.40341 7.72373 4.40341 7.09115C4.40341 6.45668 4.52273 5.91691 4.76136 5.47184C5 5.02676 5.32481 4.68774 5.7358 4.45479C6.14678 4.21994 6.6108 4.10252 7.12784 4.10252C7.6411 4.10252 8.10322 4.21994 8.5142 4.45479C8.92708 4.68774 9.25284 5.02676 9.49148 5.47184C9.73201 5.91691 9.85227 6.45668 9.85227 7.09115ZM8.60511 7.09115C8.60511 6.68017 8.54356 6.33358 8.42045 6.05138C8.29924 5.76918 8.12784 5.55517 7.90625 5.40934C7.68466 5.2635 7.42519 5.19059 7.12784 5.19059C6.83049 5.19059 6.57102 5.2635 6.34943 5.40934C6.12784 5.55517 5.95549 5.76918 5.83239 6.05138C5.71117 6.33358 5.65057 6.68017 5.65057 7.09115C5.65057 7.50214 5.71117 7.84873 5.83239 8.13093C5.95549 8.41312 6.12784 8.62714 6.34943 8.77297C6.57102 8.9188 6.83049 8.99172 7.12784 8.99172C7.42519 8.99172 7.68466 8.9188 7.90625 8.77297C8.12784 8.62714 8.29924 8.41312 8.42045 8.13093C8.54356 7.84873 8.60511 7.50214 8.60511 7.09115Z" fill="#313131"/>
</symbol><symbol id="land-owner-9" viewBox="0 0 14 14">
<g clip-path="url(#clip0_15202_105160)">
<rect x="0.777344" y="0.777588" width="12.4444" height="12.4444" rx="6.22222" fill="#FC9A28"/>
<g filter="url(#filter0_ddd_15202_105160)">
<path d="M9.85227 7.09115C9.85227 7.72562 9.73201 8.2654 9.49148 8.71047C9.25284 9.15555 8.92708 9.49551 8.5142 9.73036C8.10322 9.96331 7.6411 10.0798 7.12784 10.0798C6.6108 10.0798 6.14678 9.96237 5.7358 9.72752C5.32481 9.49267 5 9.15271 4.76136 8.70763C4.52273 8.26255 4.40341 7.72373 4.40341 7.09115C4.40341 6.45668 4.52273 5.91691 4.76136 5.47184C5 5.02676 5.32481 4.68774 5.7358 4.45479C6.14678 4.21994 6.6108 4.10252 7.12784 4.10252C7.6411 4.10252 8.10322 4.21994 8.5142 4.45479C8.92708 4.68774 9.25284 5.02676 9.49148 5.47184C9.73201 5.91691 9.85227 6.45668 9.85227 7.09115ZM8.60511 7.09115C8.60511 6.68017 8.54356 6.33358 8.42045 6.05138C8.29924 5.76918 8.12784 5.55517 7.90625 5.40934C7.68466 5.2635 7.42519 5.19059 7.12784 5.19059C6.83049 5.19059 6.57102 5.2635 6.34943 5.40934C6.12784 5.55517 5.95549 5.76918 5.83239 6.05138C5.71117 6.33358 5.65057 6.68017 5.65057 7.09115C5.65057 7.50214 5.71117 7.84873 5.83239 8.13093C5.95549 8.41312 6.12784 8.62714 6.34943 8.77297C6.57102 8.9188 6.83049 8.99172 7.12784 8.99172C7.42519 8.99172 7.68466 8.9188 7.90625 8.77297C8.12784 8.62714 8.29924 8.41312 8.42045 8.13093C8.54356 7.84873 8.60511 7.50214 8.60511 7.09115Z" fill="white"/>
</g>
</g>
<defs>
<filter id="filter0_ddd_15202_105160" x="3.40234" y="3.10251" width="7.44922" height="9.97729" filterUnits="userSpaceOnUse" color-interpolation-filters="sRGB">
<feFlood flood-opacity="0" result="BackgroundImageFix"/>
<feColorMatrix in="SourceAlpha" type="matrix" values="0 0 0 0 0 0 0 0 0 0 0 0 0 0 0 0 0 0 127 0" result="hardAlpha"/>
<feOffset/>
<feGaussianBlur stdDeviation="0.5"/>
<feColorMatrix type="matrix" values="0 0 0 0 0 0 0 0 0 0 0 0 0 0 0 0 0 0 0.09 0"/>
<feBlend mode="normal" in2="BackgroundImageFix" result="effect1_dropShadow_15202_105160"/>
<feColorMatrix in="SourceAlpha" type="matrix" values="0 0 0 0 0 0 0 0 0 0 0 0 0 0 0 0 0 0 127 0" result="hardAlpha"/>
<feOffset dy="1"/>
<feGaussianBlur stdDeviation="0.5"/>
<feColorMatrix type="matrix" values="0 0 0 0 0 0 0 0 0 0 0 0 0 0 0 0 0 0 0.05 0"/>
<feBlend mode="normal" in2="effect1_dropShadow_15202_105160" result="effect2_dropShadow_15202_105160"/>
<feColorMatrix in="SourceAlpha" type="matrix" values="0 0 0 0 0 0 0 0 0 0 0 0 0 0 0 0 0 0 127 0" result="hardAlpha"/>
<feOffset dy="2"/>
<feGaussianBlur stdDeviation="0.5"/>
<feColorMatrix type="matrix" values="0 0 0 0 0 0 0 0 0 0 0 0 0 0 0 0 0 0 0.01 0"/>
<feBlend mode="normal" in2="effect2_dropShadow_15202_105160" result="effect3_dropShadow_15202_105160"/>
<feBlend mode="normal" in="SourceGraphic" in2="effect3_dropShadow_15202_105160" result="shape"/>
</filter>
<clipPath id="clip0_15202_105160">
<rect x="0.777344" y="0.777588" width="12.4444" height="12.4444" rx="6.22222" fill="white"/>
</clipPath>
</defs>
</symbol></svg>