<svg xmlns="http://www.w3.org/2000/svg"><symbol id="plot-0" viewBox="0 0 10 10">
<rect x="0.777832" y="0.777832" width="8.79" height="8.79" rx="1.25" fill="#C3C3C3"/>
</symbol><symbol id="plot-1" viewBox="0 0 10 10">
<rect x="0.777832" y="0.777832" width="8.79" height="8.79" rx="1.25" fill="#A0EE7E"/>
</symbol><symbol id="plot-10" viewBox="0 0 10 10">
<rect x="0.777832" y="0.777832" width="8.79" height="8.79" rx="1.25" fill="#F77D2E"/>
</symbol><symbol id="plot-11" viewBox="0 0 10 10">
<rect x="0.777832" y="0.777832" width="8.79" height="8.79" rx="1.25" fill="#F46236"/>
</symbol><symbol id="plot-12" viewBox="0 0 10 10">
<rect x="0.777832" y="0.777832" width="8.79" height="8.79" rx="1.25" fill="#F0453D"/>
</symbol><symbol id="plot-2" viewBox="0 0 10 10">
<rect x="0.777832" y="0.777832" width="8.79" height="8.79" rx="1.25" fill="#B8EE68"/>
</symbol><symbol id="plot-3" viewBox="0 0 10 10">
<rect x="0.777832" y="0.777832" width="8.79" height="8.79" rx="1.25" fill="#CFEE52"/>
</symbol><symbol id="plot-4" viewBox="0 0 10 10">
<rect x="0.777832" y="0.777832" width="8.79" height="8.79" rx="1.25" fill="#E7EE3C"/>
</symbol><symbol id="plot-5" viewBox="0 0 10 10">
<rect x="0.777832" y="0.777832" width="8.79" height="8.79" rx="1.25" fill="#FEEE24"/>
</symbol><symbol id="plot-6" viewBox="0 0 10 10">
<rect x="0.777832" y="0.777832" width="8.79" height="8.79" rx="1.25" fill="#FEE123"/>
</symbol><symbol id="plot-7" viewBox="0 0 10 10">
<rect x="0.777832" y="0.777832" width="8.79" height="8.79" rx="1.25" fill="#FED324"/>
</symbol><symbol id="plot-8" viewBox="0 0 10 10">
<rect x="0.777832" y="0.777832" width="8.79" height="8.79" rx="1.25" fill="#FEB721"/>
</symbol><symbol id="plot-9" viewBox="0 0 10 10">
<rect x="0.777832" y="0.777832" width="8.79" height="8.79" rx="1.25" fill="#FC9A28"/>
</symbol></svg>