<svg xmlns="http://www.w3.org/2000/svg"><symbol id="plot-1acre-1" viewBox="0 0 14 14">
<rect x="0.777344" y="0.777344" width="12.4444" height="12.4444" rx="2" fill="#A0EE7E"/>
<g filter="url(#filter0_ddd_13337_47028)">
<path d="M6.99967 4.02539L7.90092 5.85122L9.91634 6.14581L8.45801 7.56622L8.80217 9.57289L6.99967 8.62497L5.19717 9.57289L5.54134 7.56622L4.08301 6.14581L6.09842 5.85122L6.99967 4.02539Z" fill="#313131"/>
<path d="M6.99967 4.02539L7.90092 5.85122L9.91634 6.14581L8.45801 7.56622L8.80217 9.57289L6.99967 8.62497L5.19717 9.57289L5.54134 7.56622L4.08301 6.14581L6.09842 5.85122L6.99967 4.02539Z" stroke="#313131" stroke-width="0.875" stroke-linecap="round" stroke-linejoin="round"/>
</g>
<defs>
<filter id="filter0_ddd_13337_47028" x="2.77051" y="2.71289" width="8.4585" height="9.04736" filterUnits="userSpaceOnUse" color-interpolation-filters="sRGB">
<feFlood flood-opacity="0" result="BackgroundImageFix"/>
<feColorMatrix in="SourceAlpha" type="matrix" values="0 0 0 0 0 0 0 0 0 0 0 0 0 0 0 0 0 0 127 0" result="hardAlpha"/>
<feOffset/>
<feGaussianBlur stdDeviation="0.4375"/>
<feColorMatrix type="matrix" values="0 0 0 0 0 0 0 0 0 0 0 0 0 0 0 0 0 0 0.09 0"/>
<feBlend mode="normal" in2="BackgroundImageFix" result="effect1_dropShadow_13337_47028"/>
<feColorMatrix in="SourceAlpha" type="matrix" values="0 0 0 0 0 0 0 0 0 0 0 0 0 0 0 0 0 0 127 0" result="hardAlpha"/>
<feOffset dy="0.875"/>
<feGaussianBlur stdDeviation="0.4375"/>
<feColorMatrix type="matrix" values="0 0 0 0 0 0 0 0 0 0 0 0 0 0 0 0 0 0 0.05 0"/>
<feBlend mode="normal" in2="effect1_dropShadow_13337_47028" result="effect2_dropShadow_13337_47028"/>
<feColorMatrix in="SourceAlpha" type="matrix" values="0 0 0 0 0 0 0 0 0 0 0 0 0 0 0 0 0 0 127 0" result="hardAlpha"/>
<feOffset dy="0.875"/>
<feGaussianBlur stdDeviation="0.4375"/>
<feColorMatrix type="matrix" values="0 0 0 0 0 0 0 0 0 0 0 0 0 0 0 0 0 0 0.01 0"/>
<feBlend mode="normal" in2="effect2_dropShadow_13337_47028" result="effect3_dropShadow_13337_47028"/>
<feBlend mode="normal" in="SourceGraphic" in2="effect3_dropShadow_13337_47028" result="shape"/>
</filter>
</defs>
</symbol><symbol id="plot-1acre-10" viewBox="0 0 14 14">
<rect x="0.777344" y="0.777344" width="12.4444" height="12.4444" rx="2" fill="#F77E2F"/>
<g filter="url(#filter0_ddd_13337_47028)">
<path d="M6.99967 4.02539L7.90092 5.85122L9.91634 6.14581L8.45801 7.56622L8.80217 9.57289L6.99967 8.62497L5.19717 9.57289L5.54134 7.56622L4.08301 6.14581L6.09842 5.85122L6.99967 4.02539Z" fill="#FFFFFF"/>
<path d="M6.99967 4.02539L7.90092 5.85122L9.91634 6.14581L8.45801 7.56622L8.80217 9.57289L6.99967 8.62497L5.19717 9.57289L5.54134 7.56622L4.08301 6.14581L6.09842 5.85122L6.99967 4.02539Z" stroke="#FFFFFF" fill="#FFFFFF" stroke-width="0.875" stroke-linecap="round" stroke-linejoin="round"/>
</g>
<defs>
<filter id="filter0_ddd_13337_47028" x="2.77051" y="2.71289" width="8.4585" height="9.04736" filterUnits="userSpaceOnUse" color-interpolation-filters="sRGB">
<feFlood flood-opacity="0" result="BackgroundImageFix"/>
<feColorMatrix in="SourceAlpha" type="matrix" values="0 0 0 0 0 0 0 0 0 0 0 0 0 0 0 0 0 0 127 0" result="hardAlpha"/>
<feOffset/>
<feGaussianBlur stdDeviation="0.4375"/>
<feColorMatrix type="matrix" values="0 0 0 0 0 0 0 0 0 0 0 0 0 0 0 0 0 0 0.09 0"/>
<feBlend mode="normal" in2="BackgroundImageFix" result="effect1_dropShadow_13337_47028"/>
<feColorMatrix in="SourceAlpha" type="matrix" values="0 0 0 0 0 0 0 0 0 0 0 0 0 0 0 0 0 0 127 0" result="hardAlpha"/>
<feOffset dy="0.875"/>
<feGaussianBlur stdDeviation="0.4375"/>
<feColorMatrix type="matrix" values="0 0 0 0 0 0 0 0 0 0 0 0 0 0 0 0 0 0 0.05 0"/>
<feBlend mode="normal" in2="effect1_dropShadow_13337_47028" result="effect2_dropShadow_13337_47028"/>
<feColorMatrix in="SourceAlpha" type="matrix" values="0 0 0 0 0 0 0 0 0 0 0 0 0 0 0 0 0 0 127 0" result="hardAlpha"/>
<feOffset dy="0.875"/>
<feGaussianBlur stdDeviation="0.4375"/>
<feColorMatrix type="matrix" values="0 0 0 0 0 0 0 0 0 0 0 0 0 0 0 0 0 0 0.01 0"/>
<feBlend mode="normal" in2="effect2_dropShadow_13337_47028" result="effect3_dropShadow_13337_47028"/>
<feBlend mode="normal" in="SourceGraphic" in2="effect3_dropShadow_13337_47028" result="shape"/>
</filter>
</defs>
</symbol><symbol id="plot-1acre-11" viewBox="0 0 14 14">
<rect x="0.777344" y="0.777344" width="12.4444" height="12.4444" rx="2" fill="#F46236"/>
<g filter="url(#filter0_ddd_13337_47028)">
<path d="M6.99967 4.02539L7.90092 5.85122L9.91634 6.14581L8.45801 7.56622L8.80217 9.57289L6.99967 8.62497L5.19717 9.57289L5.54134 7.56622L4.08301 6.14581L6.09842 5.85122L6.99967 4.02539Z" fill="#FFFFFF"/>
<path d="M6.99967 4.02539L7.90092 5.85122L9.91634 6.14581L8.45801 7.56622L8.80217 9.57289L6.99967 8.62497L5.19717 9.57289L5.54134 7.56622L4.08301 6.14581L6.09842 5.85122L6.99967 4.02539Z" stroke="#FFFFFF" fill="#FFFFFF" stroke-width="0.875" stroke-linecap="round" stroke-linejoin="round"/>
</g>
<defs>
<filter id="filter0_ddd_13337_47028" x="2.77051" y="2.71289" width="8.4585" height="9.04736" filterUnits="userSpaceOnUse" color-interpolation-filters="sRGB">
<feFlood flood-opacity="0" result="BackgroundImageFix"/>
<feColorMatrix in="SourceAlpha" type="matrix" values="0 0 0 0 0 0 0 0 0 0 0 0 0 0 0 0 0 0 127 0" result="hardAlpha"/>
<feOffset/>
<feGaussianBlur stdDeviation="0.4375"/>
<feColorMatrix type="matrix" values="0 0 0 0 0 0 0 0 0 0 0 0 0 0 0 0 0 0 0.09 0"/>
<feBlend mode="normal" in2="BackgroundImageFix" result="effect1_dropShadow_13337_47028"/>
<feColorMatrix in="SourceAlpha" type="matrix" values="0 0 0 0 0 0 0 0 0 0 0 0 0 0 0 0 0 0 127 0" result="hardAlpha"/>
<feOffset dy="0.875"/>
<feGaussianBlur stdDeviation="0.4375"/>
<feColorMatrix type="matrix" values="0 0 0 0 0 0 0 0 0 0 0 0 0 0 0 0 0 0 0.05 0"/>
<feBlend mode="normal" in2="effect1_dropShadow_13337_47028" result="effect2_dropShadow_13337_47028"/>
<feColorMatrix in="SourceAlpha" type="matrix" values="0 0 0 0 0 0 0 0 0 0 0 0 0 0 0 0 0 0 127 0" result="hardAlpha"/>
<feOffset dy="0.875"/>
<feGaussianBlur stdDeviation="0.4375"/>
<feColorMatrix type="matrix" values="0 0 0 0 0 0 0 0 0 0 0 0 0 0 0 0 0 0 0.01 0"/>
<feBlend mode="normal" in2="effect2_dropShadow_13337_47028" result="effect3_dropShadow_13337_47028"/>
<feBlend mode="normal" in="SourceGraphic" in2="effect3_dropShadow_13337_47028" result="shape"/>
</filter>
</defs>
</symbol><symbol id="plot-1acre-12" viewBox="0 0 14 14">
<rect x="0.777344" y="0.777344" width="12.4444" height="12.4444" rx="2" fill="#F0453D"/>
<g filter="url(#filter0_ddd_13337_47028)">
<path d="M6.99967 4.02539L7.90092 5.85122L9.91634 6.14581L8.45801 7.56622L8.80217 9.57289L6.99967 8.62497L5.19717 9.57289L5.54134 7.56622L4.08301 6.14581L6.09842 5.85122L6.99967 4.02539Z" fill="#FFFFFF"/>
<path d="M6.99967 4.02539L7.90092 5.85122L9.91634 6.14581L8.45801 7.56622L8.80217 9.57289L6.99967 8.62497L5.19717 9.57289L5.54134 7.56622L4.08301 6.14581L6.09842 5.85122L6.99967 4.02539Z" stroke="#FFFFFF" fill="#FFFFFF" stroke-width="0.875" stroke-linecap="round" stroke-linejoin="round"/>
</g>
<defs>
<filter id="filter0_ddd_13337_47028" x="2.77051" y="2.71289" width="8.4585" height="9.04736" filterUnits="userSpaceOnUse" color-interpolation-filters="sRGB">
<feFlood flood-opacity="0" result="BackgroundImageFix"/>
<feColorMatrix in="SourceAlpha" type="matrix" values="0 0 0 0 0 0 0 0 0 0 0 0 0 0 0 0 0 0 127 0" result="hardAlpha"/>
<feOffset/>
<feGaussianBlur stdDeviation="0.4375"/>
<feColorMatrix type="matrix" values="0 0 0 0 0 0 0 0 0 0 0 0 0 0 0 0 0 0 0.09 0"/>
<feBlend mode="normal" in2="BackgroundImageFix" result="effect1_dropShadow_13337_47028"/>
<feColorMatrix in="SourceAlpha" type="matrix" values="0 0 0 0 0 0 0 0 0 0 0 0 0 0 0 0 0 0 127 0" result="hardAlpha"/>
<feOffset dy="0.875"/>
<feGaussianBlur stdDeviation="0.4375"/>
<feColorMatrix type="matrix" values="0 0 0 0 0 0 0 0 0 0 0 0 0 0 0 0 0 0 0.05 0"/>
<feBlend mode="normal" in2="effect1_dropShadow_13337_47028" result="effect2_dropShadow_13337_47028"/>
<feColorMatrix in="SourceAlpha" type="matrix" values="0 0 0 0 0 0 0 0 0 0 0 0 0 0 0 0 0 0 127 0" result="hardAlpha"/>
<feOffset dy="0.875"/>
<feGaussianBlur stdDeviation="0.4375"/>
<feColorMatrix type="matrix" values="0 0 0 0 0 0 0 0 0 0 0 0 0 0 0 0 0 0 0.01 0"/>
<feBlend mode="normal" in2="effect2_dropShadow_13337_47028" result="effect3_dropShadow_13337_47028"/>
<feBlend mode="normal" in="SourceGraphic" in2="effect3_dropShadow_13337_47028" result="shape"/>
</filter>
</defs>
</symbol><symbol id="plot-1acre-2" viewBox="0 0 14 14">
<rect x="0.777344" y="0.777344" width="12.4444" height="12.4444" rx="2" fill="#B8EE68"/>
<g filter="url(#filter0_ddd_13337_47028)">
<path d="M6.99967 4.02539L7.90092 5.85122L9.91634 6.14581L8.45801 7.56622L8.80217 9.57289L6.99967 8.62497L5.19717 9.57289L5.54134 7.56622L4.08301 6.14581L6.09842 5.85122L6.99967 4.02539Z" fill="#313131"/>
<path d="M6.99967 4.02539L7.90092 5.85122L9.91634 6.14581L8.45801 7.56622L8.80217 9.57289L6.99967 8.62497L5.19717 9.57289L5.54134 7.56622L4.08301 6.14581L6.09842 5.85122L6.99967 4.02539Z" stroke="#313131" stroke-width="0.875" stroke-linecap="round" stroke-linejoin="round"/>
</g>
<defs>
<filter id="filter0_ddd_13337_47028" x="2.77051" y="2.71289" width="8.4585" height="9.04736" filterUnits="userSpaceOnUse" color-interpolation-filters="sRGB">
<feFlood flood-opacity="0" result="BackgroundImageFix"/>
<feColorMatrix in="SourceAlpha" type="matrix" values="0 0 0 0 0 0 0 0 0 0 0 0 0 0 0 0 0 0 127 0" result="hardAlpha"/>
<feOffset/>
<feGaussianBlur stdDeviation="0.4375"/>
<feColorMatrix type="matrix" values="0 0 0 0 0 0 0 0 0 0 0 0 0 0 0 0 0 0 0.09 0"/>
<feBlend mode="normal" in2="BackgroundImageFix" result="effect1_dropShadow_13337_47028"/>
<feColorMatrix in="SourceAlpha" type="matrix" values="0 0 0 0 0 0 0 0 0 0 0 0 0 0 0 0 0 0 127 0" result="hardAlpha"/>
<feOffset dy="0.875"/>
<feGaussianBlur stdDeviation="0.4375"/>
<feColorMatrix type="matrix" values="0 0 0 0 0 0 0 0 0 0 0 0 0 0 0 0 0 0 0.05 0"/>
<feBlend mode="normal" in2="effect1_dropShadow_13337_47028" result="effect2_dropShadow_13337_47028"/>
<feColorMatrix in="SourceAlpha" type="matrix" values="0 0 0 0 0 0 0 0 0 0 0 0 0 0 0 0 0 0 127 0" result="hardAlpha"/>
<feOffset dy="0.875"/>
<feGaussianBlur stdDeviation="0.4375"/>
<feColorMatrix type="matrix" values="0 0 0 0 0 0 0 0 0 0 0 0 0 0 0 0 0 0 0.01 0"/>
<feBlend mode="normal" in2="effect2_dropShadow_13337_47028" result="effect3_dropShadow_13337_47028"/>
<feBlend mode="normal" in="SourceGraphic" in2="effect3_dropShadow_13337_47028" result="shape"/>
</filter>
</defs>
</symbol><symbol id="plot-1acre-3" viewBox="0 0 14 14">
<rect x="0.777344" y="0.777344" width="12.4444" height="12.4444" rx="2" fill="#CFEE52"/>
<g filter="url(#filter0_ddd_13337_47028)">
<path d="M6.99967 4.02539L7.90092 5.85122L9.91634 6.14581L8.45801 7.56622L8.80217 9.57289L6.99967 8.62497L5.19717 9.57289L5.54134 7.56622L4.08301 6.14581L6.09842 5.85122L6.99967 4.02539Z" fill="#313131"/>
<path d="M6.99967 4.02539L7.90092 5.85122L9.91634 6.14581L8.45801 7.56622L8.80217 9.57289L6.99967 8.62497L5.19717 9.57289L5.54134 7.56622L4.08301 6.14581L6.09842 5.85122L6.99967 4.02539Z" stroke="#313131" stroke-width="0.875" stroke-linecap="round" stroke-linejoin="round"/>
</g>
<defs>
<filter id="filter0_ddd_13337_47028" x="2.77051" y="2.71289" width="8.4585" height="9.04736" filterUnits="userSpaceOnUse" color-interpolation-filters="sRGB">
<feFlood flood-opacity="0" result="BackgroundImageFix"/>
<feColorMatrix in="SourceAlpha" type="matrix" values="0 0 0 0 0 0 0 0 0 0 0 0 0 0 0 0 0 0 127 0" result="hardAlpha"/>
<feOffset/>
<feGaussianBlur stdDeviation="0.4375"/>
<feColorMatrix type="matrix" values="0 0 0 0 0 0 0 0 0 0 0 0 0 0 0 0 0 0 0.09 0"/>
<feBlend mode="normal" in2="BackgroundImageFix" result="effect1_dropShadow_13337_47028"/>
<feColorMatrix in="SourceAlpha" type="matrix" values="0 0 0 0 0 0 0 0 0 0 0 0 0 0 0 0 0 0 127 0" result="hardAlpha"/>
<feOffset dy="0.875"/>
<feGaussianBlur stdDeviation="0.4375"/>
<feColorMatrix type="matrix" values="0 0 0 0 0 0 0 0 0 0 0 0 0 0 0 0 0 0 0.05 0"/>
<feBlend mode="normal" in2="effect1_dropShadow_13337_47028" result="effect2_dropShadow_13337_47028"/>
<feColorMatrix in="SourceAlpha" type="matrix" values="0 0 0 0 0 0 0 0 0 0 0 0 0 0 0 0 0 0 127 0" result="hardAlpha"/>
<feOffset dy="0.875"/>
<feGaussianBlur stdDeviation="0.4375"/>
<feColorMatrix type="matrix" values="0 0 0 0 0 0 0 0 0 0 0 0 0 0 0 0 0 0 0.01 0"/>
<feBlend mode="normal" in2="effect2_dropShadow_13337_47028" result="effect3_dropShadow_13337_47028"/>
<feBlend mode="normal" in="SourceGraphic" in2="effect3_dropShadow_13337_47028" result="shape"/>
</filter>
</defs>
</symbol><symbol id="plot-1acre-4" viewBox="0 0 14 14">
<rect x="0.777344" y="0.777344" width="12.4444" height="12.4444" rx="2" fill="#E7EE3C"/>
<g filter="url(#filter0_ddd_13337_47028)">
<path d="M6.99967 4.02539L7.90092 5.85122L9.91634 6.14581L8.45801 7.56622L8.80217 9.57289L6.99967 8.62497L5.19717 9.57289L5.54134 7.56622L4.08301 6.14581L6.09842 5.85122L6.99967 4.02539Z" fill="#313131"/>
<path d="M6.99967 4.02539L7.90092 5.85122L9.91634 6.14581L8.45801 7.56622L8.80217 9.57289L6.99967 8.62497L5.19717 9.57289L5.54134 7.56622L4.08301 6.14581L6.09842 5.85122L6.99967 4.02539Z" stroke="#313131" stroke-width="0.875" stroke-linecap="round" stroke-linejoin="round"/>
</g>
<defs>
<filter id="filter0_ddd_13337_47028" x="2.77051" y="2.71289" width="8.4585" height="9.04736" filterUnits="userSpaceOnUse" color-interpolation-filters="sRGB">
<feFlood flood-opacity="0" result="BackgroundImageFix"/>
<feColorMatrix in="SourceAlpha" type="matrix" values="0 0 0 0 0 0 0 0 0 0 0 0 0 0 0 0 0 0 127 0" result="hardAlpha"/>
<feOffset/>
<feGaussianBlur stdDeviation="0.4375"/>
<feColorMatrix type="matrix" values="0 0 0 0 0 0 0 0 0 0 0 0 0 0 0 0 0 0 0.09 0"/>
<feBlend mode="normal" in2="BackgroundImageFix" result="effect1_dropShadow_13337_47028"/>
<feColorMatrix in="SourceAlpha" type="matrix" values="0 0 0 0 0 0 0 0 0 0 0 0 0 0 0 0 0 0 127 0" result="hardAlpha"/>
<feOffset dy="0.875"/>
<feGaussianBlur stdDeviation="0.4375"/>
<feColorMatrix type="matrix" values="0 0 0 0 0 0 0 0 0 0 0 0 0 0 0 0 0 0 0.05 0"/>
<feBlend mode="normal" in2="effect1_dropShadow_13337_47028" result="effect2_dropShadow_13337_47028"/>
<feColorMatrix in="SourceAlpha" type="matrix" values="0 0 0 0 0 0 0 0 0 0 0 0 0 0 0 0 0 0 127 0" result="hardAlpha"/>
<feOffset dy="0.875"/>
<feGaussianBlur stdDeviation="0.4375"/>
<feColorMatrix type="matrix" values="0 0 0 0 0 0 0 0 0 0 0 0 0 0 0 0 0 0 0.01 0"/>
<feBlend mode="normal" in2="effect2_dropShadow_13337_47028" result="effect3_dropShadow_13337_47028"/>
<feBlend mode="normal" in="SourceGraphic" in2="effect3_dropShadow_13337_47028" result="shape"/>
</filter>
</defs>
</symbol><symbol id="plot-1acre-5" viewBox="0 0 14 14">
<rect x="0.777344" y="0.777344" width="12.4444" height="12.4444" rx="2" fill="#FEEE25"/>
<g filter="url(#filter0_ddd_13337_47028)">
<path d="M6.99967 4.02539L7.90092 5.85122L9.91634 6.14581L8.45801 7.56622L8.80217 9.57289L6.99967 8.62497L5.19717 9.57289L5.54134 7.56622L4.08301 6.14581L6.09842 5.85122L6.99967 4.02539Z" fill="#313131"/>
<path d="M6.99967 4.02539L7.90092 5.85122L9.91634 6.14581L8.45801 7.56622L8.80217 9.57289L6.99967 8.62497L5.19717 9.57289L5.54134 7.56622L4.08301 6.14581L6.09842 5.85122L6.99967 4.02539Z" stroke="#313131" stroke-width="0.875" stroke-linecap="round" stroke-linejoin="round"/>
</g>
<defs>
<filter id="filter0_ddd_13337_47028" x="2.77051" y="2.71289" width="8.4585" height="9.04736" filterUnits="userSpaceOnUse" color-interpolation-filters="sRGB">
<feFlood flood-opacity="0" result="BackgroundImageFix"/>
<feColorMatrix in="SourceAlpha" type="matrix" values="0 0 0 0 0 0 0 0 0 0 0 0 0 0 0 0 0 0 127 0" result="hardAlpha"/>
<feOffset/>
<feGaussianBlur stdDeviation="0.4375"/>
<feColorMatrix type="matrix" values="0 0 0 0 0 0 0 0 0 0 0 0 0 0 0 0 0 0 0.09 0"/>
<feBlend mode="normal" in2="BackgroundImageFix" result="effect1_dropShadow_13337_47028"/>
<feColorMatrix in="SourceAlpha" type="matrix" values="0 0 0 0 0 0 0 0 0 0 0 0 0 0 0 0 0 0 127 0" result="hardAlpha"/>
<feOffset dy="0.875"/>
<feGaussianBlur stdDeviation="0.4375"/>
<feColorMatrix type="matrix" values="0 0 0 0 0 0 0 0 0 0 0 0 0 0 0 0 0 0 0.05 0"/>
<feBlend mode="normal" in2="effect1_dropShadow_13337_47028" result="effect2_dropShadow_13337_47028"/>
<feColorMatrix in="SourceAlpha" type="matrix" values="0 0 0 0 0 0 0 0 0 0 0 0 0 0 0 0 0 0 127 0" result="hardAlpha"/>
<feOffset dy="0.875"/>
<feGaussianBlur stdDeviation="0.4375"/>
<feColorMatrix type="matrix" values="0 0 0 0 0 0 0 0 0 0 0 0 0 0 0 0 0 0 0.01 0"/>
<feBlend mode="normal" in2="effect2_dropShadow_13337_47028" result="effect3_dropShadow_13337_47028"/>
<feBlend mode="normal" in="SourceGraphic" in2="effect3_dropShadow_13337_47028" result="shape"/>
</filter>
</defs>
</symbol><symbol id="plot-1acre-6" viewBox="0 0 14 14">
<rect x="0.777344" y="0.777344" width="12.4444" height="12.4444" rx="2" fill="#FEE124"/>
<g filter="url(#filter0_ddd_13337_47028)">
<path d="M6.99967 4.02539L7.90092 5.85122L9.91634 6.14581L8.45801 7.56622L8.80217 9.57289L6.99967 8.62497L5.19717 9.57289L5.54134 7.56622L4.08301 6.14581L6.09842 5.85122L6.99967 4.02539Z" fill="#313131"/>
<path d="M6.99967 4.02539L7.90092 5.85122L9.91634 6.14581L8.45801 7.56622L8.80217 9.57289L6.99967 8.62497L5.19717 9.57289L5.54134 7.56622L4.08301 6.14581L6.09842 5.85122L6.99967 4.02539Z" stroke="#313131" stroke-width="0.875" stroke-linecap="round" stroke-linejoin="round"/>
</g>
<defs>
<filter id="filter0_ddd_13337_47028" x="2.77051" y="2.71289" width="8.4585" height="9.04736" filterUnits="userSpaceOnUse" color-interpolation-filters="sRGB">
<feFlood flood-opacity="0" result="BackgroundImageFix"/>
<feColorMatrix in="SourceAlpha" type="matrix" values="0 0 0 0 0 0 0 0 0 0 0 0 0 0 0 0 0 0 127 0" result="hardAlpha"/>
<feOffset/>
<feGaussianBlur stdDeviation="0.4375"/>
<feColorMatrix type="matrix" values="0 0 0 0 0 0 0 0 0 0 0 0 0 0 0 0 0 0 0.09 0"/>
<feBlend mode="normal" in2="BackgroundImageFix" result="effect1_dropShadow_13337_47028"/>
<feColorMatrix in="SourceAlpha" type="matrix" values="0 0 0 0 0 0 0 0 0 0 0 0 0 0 0 0 0 0 127 0" result="hardAlpha"/>
<feOffset dy="0.875"/>
<feGaussianBlur stdDeviation="0.4375"/>
<feColorMatrix type="matrix" values="0 0 0 0 0 0 0 0 0 0 0 0 0 0 0 0 0 0 0.05 0"/>
<feBlend mode="normal" in2="effect1_dropShadow_13337_47028" result="effect2_dropShadow_13337_47028"/>
<feColorMatrix in="SourceAlpha" type="matrix" values="0 0 0 0 0 0 0 0 0 0 0 0 0 0 0 0 0 0 127 0" result="hardAlpha"/>
<feOffset dy="0.875"/>
<feGaussianBlur stdDeviation="0.4375"/>
<feColorMatrix type="matrix" values="0 0 0 0 0 0 0 0 0 0 0 0 0 0 0 0 0 0 0.01 0"/>
<feBlend mode="normal" in2="effect2_dropShadow_13337_47028" result="effect3_dropShadow_13337_47028"/>
<feBlend mode="normal" in="SourceGraphic" in2="effect3_dropShadow_13337_47028" result="shape"/>
</filter>
</defs>
</symbol><symbol id="plot-1acre-7" viewBox="0 0 14 14">
<rect x="0.777344" y="0.777344" width="12.4444" height="12.4444" rx="2" fill="#FED323"/>
<g filter="url(#filter0_ddd_13337_47028)">
<path d="M6.99967 4.02539L7.90092 5.85122L9.91634 6.14581L8.45801 7.56622L8.80217 9.57289L6.99967 8.62497L5.19717 9.57289L5.54134 7.56622L4.08301 6.14581L6.09842 5.85122L6.99967 4.02539Z" fill="#313131"/>
<path d="M6.99967 4.02539L7.90092 5.85122L9.91634 6.14581L8.45801 7.56622L8.80217 9.57289L6.99967 8.62497L5.19717 9.57289L5.54134 7.56622L4.08301 6.14581L6.09842 5.85122L6.99967 4.02539Z" stroke="#313131" stroke-width="0.875" stroke-linecap="round" stroke-linejoin="round"/>
</g>
<defs>
<filter id="filter0_ddd_13337_47028" x="2.77051" y="2.71289" width="8.4585" height="9.04736" filterUnits="userSpaceOnUse" color-interpolation-filters="sRGB">
<feFlood flood-opacity="0" result="BackgroundImageFix"/>
<feColorMatrix in="SourceAlpha" type="matrix" values="0 0 0 0 0 0 0 0 0 0 0 0 0 0 0 0 0 0 127 0" result="hardAlpha"/>
<feOffset/>
<feGaussianBlur stdDeviation="0.4375"/>
<feColorMatrix type="matrix" values="0 0 0 0 0 0 0 0 0 0 0 0 0 0 0 0 0 0 0.09 0"/>
<feBlend mode="normal" in2="BackgroundImageFix" result="effect1_dropShadow_13337_47028"/>
<feColorMatrix in="SourceAlpha" type="matrix" values="0 0 0 0 0 0 0 0 0 0 0 0 0 0 0 0 0 0 127 0" result="hardAlpha"/>
<feOffset dy="0.875"/>
<feGaussianBlur stdDeviation="0.4375"/>
<feColorMatrix type="matrix" values="0 0 0 0 0 0 0 0 0 0 0 0 0 0 0 0 0 0 0.05 0"/>
<feBlend mode="normal" in2="effect1_dropShadow_13337_47028" result="effect2_dropShadow_13337_47028"/>
<feColorMatrix in="SourceAlpha" type="matrix" values="0 0 0 0 0 0 0 0 0 0 0 0 0 0 0 0 0 0 127 0" result="hardAlpha"/>
<feOffset dy="0.875"/>
<feGaussianBlur stdDeviation="0.4375"/>
<feColorMatrix type="matrix" values="0 0 0 0 0 0 0 0 0 0 0 0 0 0 0 0 0 0 0.01 0"/>
<feBlend mode="normal" in2="effect2_dropShadow_13337_47028" result="effect3_dropShadow_13337_47028"/>
<feBlend mode="normal" in="SourceGraphic" in2="effect3_dropShadow_13337_47028" result="shape"/>
</filter>
</defs>
</symbol><symbol id="plot-1acre-8" viewBox="0 0 14 14">
<rect x="0.777344" y="0.777344" width="12.4444" height="12.4444" rx="2" fill="#FEB721"/>
<g filter="url(#filter0_ddd_13337_47028)">
<path d="M6.99967 4.02539L7.90092 5.85122L9.91634 6.14581L8.45801 7.56622L8.80217 9.57289L6.99967 8.62497L5.19717 9.57289L5.54134 7.56622L4.08301 6.14581L6.09842 5.85122L6.99967 4.02539Z" fill="#313131"/>
<path d="M6.99967 4.02539L7.90092 5.85122L9.91634 6.14581L8.45801 7.56622L8.80217 9.57289L6.99967 8.62497L5.19717 9.57289L5.54134 7.56622L4.08301 6.14581L6.09842 5.85122L6.99967 4.02539Z" stroke="#313131" stroke-width="0.875" stroke-linecap="round" stroke-linejoin="round"/>
</g>
<defs>
<filter id="filter0_ddd_13337_47028" x="2.77051" y="2.71289" width="8.4585" height="9.04736" filterUnits="userSpaceOnUse" color-interpolation-filters="sRGB">
<feFlood flood-opacity="0" result="BackgroundImageFix"/>
<feColorMatrix in="SourceAlpha" type="matrix" values="0 0 0 0 0 0 0 0 0 0 0 0 0 0 0 0 0 0 127 0" result="hardAlpha"/>
<feOffset/>
<feGaussianBlur stdDeviation="0.4375"/>
<feColorMatrix type="matrix" values="0 0 0 0 0 0 0 0 0 0 0 0 0 0 0 0 0 0 0.09 0"/>
<feBlend mode="normal" in2="BackgroundImageFix" result="effect1_dropShadow_13337_47028"/>
<feColorMatrix in="SourceAlpha" type="matrix" values="0 0 0 0 0 0 0 0 0 0 0 0 0 0 0 0 0 0 127 0" result="hardAlpha"/>
<feOffset dy="0.875"/>
<feGaussianBlur stdDeviation="0.4375"/>
<feColorMatrix type="matrix" values="0 0 0 0 0 0 0 0 0 0 0 0 0 0 0 0 0 0 0.05 0"/>
<feBlend mode="normal" in2="effect1_dropShadow_13337_47028" result="effect2_dropShadow_13337_47028"/>
<feColorMatrix in="SourceAlpha" type="matrix" values="0 0 0 0 0 0 0 0 0 0 0 0 0 0 0 0 0 0 127 0" result="hardAlpha"/>
<feOffset dy="0.875"/>
<feGaussianBlur stdDeviation="0.4375"/>
<feColorMatrix type="matrix" values="0 0 0 0 0 0 0 0 0 0 0 0 0 0 0 0 0 0 0.01 0"/>
<feBlend mode="normal" in2="effect2_dropShadow_13337_47028" result="effect3_dropShadow_13337_47028"/>
<feBlend mode="normal" in="SourceGraphic" in2="effect3_dropShadow_13337_47028" result="shape"/>
</filter>
</defs>
</symbol><symbol id="plot-1acre-9" viewBox="0 0 14 14">
<rect x="0.777344" y="0.777344" width="12.4444" height="12.4444" rx="2" fill="#FB9B28"/>
<g filter="url(#filter0_ddd_13337_47028)">
<path d="M6.99967 4.02539L7.90092 5.85122L9.91634 6.14581L8.45801 7.56622L8.80217 9.57289L6.99967 8.62497L5.19717 9.57289L5.54134 7.56622L4.08301 6.14581L6.09842 5.85122L6.99967 4.02539Z" fill="#FFFFFF"/>
<path d="M6.99967 4.02539L7.90092 5.85122L9.91634 6.14581L8.45801 7.56622L8.80217 9.57289L6.99967 8.62497L5.19717 9.57289L5.54134 7.56622L4.08301 6.14581L6.09842 5.85122L6.99967 4.02539Z" stroke="#FFFFFF" fill="#FFFFFF" stroke-width="0.875" stroke-linecap="round" stroke-linejoin="round"/>
</g>
<defs>
<filter id="filter0_ddd_13337_47028" x="2.77051" y="2.71289" width="8.4585" height="9.04736" filterUnits="userSpaceOnUse" color-interpolation-filters="sRGB">
<feFlood flood-opacity="0" result="BackgroundImageFix"/>
<feColorMatrix in="SourceAlpha" type="matrix" values="0 0 0 0 0 0 0 0 0 0 0 0 0 0 0 0 0 0 127 0" result="hardAlpha"/>
<feOffset/>
<feGaussianBlur stdDeviation="0.4375"/>
<feColorMatrix type="matrix" values="0 0 0 0 0 0 0 0 0 0 0 0 0 0 0 0 0 0 0.09 0"/>
<feBlend mode="normal" in2="BackgroundImageFix" result="effect1_dropShadow_13337_47028"/>
<feColorMatrix in="SourceAlpha" type="matrix" values="0 0 0 0 0 0 0 0 0 0 0 0 0 0 0 0 0 0 127 0" result="hardAlpha"/>
<feOffset dy="0.875"/>
<feGaussianBlur stdDeviation="0.4375"/>
<feColorMatrix type="matrix" values="0 0 0 0 0 0 0 0 0 0 0 0 0 0 0 0 0 0 0.05 0"/>
<feBlend mode="normal" in2="effect1_dropShadow_13337_47028" result="effect2_dropShadow_13337_47028"/>
<feColorMatrix in="SourceAlpha" type="matrix" values="0 0 0 0 0 0 0 0 0 0 0 0 0 0 0 0 0 0 127 0" result="hardAlpha"/>
<feOffset dy="0.875"/>
<feGaussianBlur stdDeviation="0.4375"/>
<feColorMatrix type="matrix" values="0 0 0 0 0 0 0 0 0 0 0 0 0 0 0 0 0 0 0.01 0"/>
<feBlend mode="normal" in2="effect2_dropShadow_13337_47028" result="effect3_dropShadow_13337_47028"/>
<feBlend mode="normal" in="SourceGraphic" in2="effect3_dropShadow_13337_47028" result="shape"/>
</filter>
</defs>
</symbol></svg>