<svg xmlns="http://www.w3.org/2000/svg"><symbol id="plot-development-1acre-1" viewBox="0 0 26 14">
<rect x="0.777832" y="0.777832" width="24.8889" height="12.4444" rx="2" fill="#A0EE7E"/>
<g filter="url(#filter0_ddd_13337_28504)">
<path d="M7.94562 10H5.88312V4.18182H7.96267C8.5479 4.18182 9.05168 4.2983 9.47403 4.53125C9.89638 4.76231 10.2212 5.0947 10.4485 5.52841C10.6776 5.96212 10.7922 6.48106 10.7922 7.08523C10.7922 7.69129 10.6776 8.21212 10.4485 8.64773C10.2212 9.08333 9.89449 9.41761 9.46835 9.65057C9.04411 9.88352 8.53653 10 7.94562 10ZM7.11324 8.94602H7.89449C8.25812 8.94602 8.56399 8.88163 8.8121 8.75284C9.0621 8.62216 9.2496 8.42045 9.3746 8.14773C9.50149 7.87311 9.56494 7.51894 9.56494 7.08523C9.56494 6.6553 9.50149 6.30398 9.3746 6.03125C9.2496 5.75852 9.06305 5.55777 8.81494 5.42898C8.56684 5.30019 8.26096 5.2358 7.89733 5.2358H7.11324V8.94602Z" fill="#313131"/>
</g>
<g filter="url(#filter1_ddd_13337_28504)">
<path d="M18.5002 4.08105L19.4014 5.90689L21.4168 6.20147L19.9585 7.62189L20.3027 9.62855L18.5002 8.68064L16.6977 9.62855L17.0418 7.62189L15.5835 6.20147L17.5989 5.90689L18.5002 4.08105Z" fill="#313131" stroke="#313131" stroke-width="0.875" stroke-linecap="round" stroke-linejoin="round"/>
</g>
<defs>
<filter id="filter0_ddd_13337_28504" x="4.8833" y="3.18164" width="6.90869" height="9.81836" filterUnits="userSpaceOnUse" color-interpolation-filters="sRGB">
<feFlood flood-opacity="0" result="BackgroundImageFix"/>
<feColorMatrix in="SourceAlpha" type="matrix" values="0 0 0 0 0 0 0 0 0 0 0 0 0 0 0 0 0 0 127 0" result="hardAlpha"/>
<feOffset/>
<feGaussianBlur stdDeviation="0.5"/>
<feColorMatrix type="matrix" values="0 0 0 0 0 0 0 0 0 0 0 0 0 0 0 0 0 0 0.09 0"/>
<feBlend mode="normal" in2="BackgroundImageFix" result="effect1_dropShadow_13337_28504"/>
<feColorMatrix in="SourceAlpha" type="matrix" values="0 0 0 0 0 0 0 0 0 0 0 0 0 0 0 0 0 0 127 0" result="hardAlpha"/>
<feOffset dy="1"/>
<feGaussianBlur stdDeviation="0.5"/>
<feColorMatrix type="matrix" values="0 0 0 0 0 0 0 0 0 0 0 0 0 0 0 0 0 0 0.05 0"/>
<feBlend mode="normal" in2="effect1_dropShadow_13337_28504" result="effect2_dropShadow_13337_28504"/>
<feColorMatrix in="SourceAlpha" type="matrix" values="0 0 0 0 0 0 0 0 0 0 0 0 0 0 0 0 0 0 127 0" result="hardAlpha"/>
<feOffset dy="2"/>
<feGaussianBlur stdDeviation="0.5"/>
<feColorMatrix type="matrix" values="0 0 0 0 0 0 0 0 0 0 0 0 0 0 0 0 0 0 0.01 0"/>
<feBlend mode="normal" in2="effect2_dropShadow_13337_28504" result="effect3_dropShadow_13337_28504"/>
<feBlend mode="normal" in="SourceGraphic" in2="effect3_dropShadow_13337_28504" result="shape"/>
</filter>
<filter id="filter1_ddd_13337_28504" x="14" y="2.49805" width="9" height="10" filterUnits="userSpaceOnUse" color-interpolation-filters="sRGB">
<feFlood flood-opacity="0" result="BackgroundImageFix"/>
<feColorMatrix in="SourceAlpha" type="matrix" values="0 0 0 0 0 0 0 0 0 0 0 0 0 0 0 0 0 0 127 0" result="hardAlpha"/>
<feOffset/>
<feGaussianBlur stdDeviation="0.5"/>
<feColorMatrix type="matrix" values="0 0 0 0 0 0 0 0 0 0 0 0 0 0 0 0 0 0 0.09 0"/>
<feBlend mode="normal" in2="BackgroundImageFix" result="effect1_dropShadow_13337_28504"/>
<feColorMatrix in="SourceAlpha" type="matrix" values="0 0 0 0 0 0 0 0 0 0 0 0 0 0 0 0 0 0 127 0" result="hardAlpha"/>
<feOffset dy="1"/>
<feGaussianBlur stdDeviation="0.5"/>
<feColorMatrix type="matrix" values="0 0 0 0 0 0 0 0 0 0 0 0 0 0 0 0 0 0 0.05 0"/>
<feBlend mode="normal" in2="effect1_dropShadow_13337_28504" result="effect2_dropShadow_13337_28504"/>
<feColorMatrix in="SourceAlpha" type="matrix" values="0 0 0 0 0 0 0 0 0 0 0 0 0 0 0 0 0 0 127 0" result="hardAlpha"/>
<feOffset dy="1"/>
<feGaussianBlur stdDeviation="0.5"/>
<feColorMatrix type="matrix" values="0 0 0 0 0 0 0 0 0 0 0 0 0 0 0 0 0 0 0.01 0"/>
<feBlend mode="normal" in2="effect2_dropShadow_13337_28504" result="effect3_dropShadow_13337_28504"/>
<feBlend mode="normal" in="SourceGraphic" in2="effect3_dropShadow_13337_28504" result="shape"/>
</filter>
</defs>
</symbol><symbol id="plot-development-1acre-10" viewBox="0 0 26 14">
<rect x="0.777832" y="0.777832" width="24.8889" height="12.4444" rx="2" fill="#F77E2F"/>
<g filter="url(#filter0_ddd_13337_28504)">
<path d="M7.94562 10H5.88312V4.18182H7.96267C8.5479 4.18182 9.05168 4.2983 9.47403 4.53125C9.89638 4.76231 10.2212 5.0947 10.4485 5.52841C10.6776 5.96212 10.7922 6.48106 10.7922 7.08523C10.7922 7.69129 10.6776 8.21212 10.4485 8.64773C10.2212 9.08333 9.89449 9.41761 9.46835 9.65057C9.04411 9.88352 8.53653 10 7.94562 10ZM7.11324 8.94602H7.89449C8.25812 8.94602 8.56399 8.88163 8.8121 8.75284C9.0621 8.62216 9.2496 8.42045 9.3746 8.14773C9.50149 7.87311 9.56494 7.51894 9.56494 7.08523C9.56494 6.6553 9.50149 6.30398 9.3746 6.03125C9.2496 5.75852 9.06305 5.55777 8.81494 5.42898C8.56684 5.30019 8.26096 5.2358 7.89733 5.2358H7.11324V8.94602Z" fill="#FFFFFF"/>
</g>
<g filter="url(#filter1_ddd_13337_28504)">
<path d="M18.5002 4.08105L19.4014 5.90689L21.4168 6.20147L19.9585 7.62189L20.3027 9.62855L18.5002 8.68064L16.6977 9.62855L17.0418 7.62189L15.5835 6.20147L17.5989 5.90689L18.5002 4.08105Z" fill="#FFFFFF" stroke="#FFFFFF" stroke-width="0.875" stroke-linecap="round" stroke-linejoin="round"/>
</g>
<defs>
<filter id="filter0_ddd_13337_28504" x="4.8833" y="3.18164" width="6.90869" height="9.81836" filterUnits="userSpaceOnUse" color-interpolation-filters="sRGB">
<feFlood flood-opacity="0" result="BackgroundImageFix"/>
<feColorMatrix in="SourceAlpha" type="matrix" values="0 0 0 0 0 0 0 0 0 0 0 0 0 0 0 0 0 0 127 0" result="hardAlpha"/>
<feOffset/>
<feGaussianBlur stdDeviation="0.5"/>
<feColorMatrix type="matrix" values="0 0 0 0 0 0 0 0 0 0 0 0 0 0 0 0 0 0 0.09 0"/>
<feBlend mode="normal" in2="BackgroundImageFix" result="effect1_dropShadow_13337_28504"/>
<feColorMatrix in="SourceAlpha" type="matrix" values="0 0 0 0 0 0 0 0 0 0 0 0 0 0 0 0 0 0 127 0" result="hardAlpha"/>
<feOffset dy="1"/>
<feGaussianBlur stdDeviation="0.5"/>
<feColorMatrix type="matrix" values="0 0 0 0 0 0 0 0 0 0 0 0 0 0 0 0 0 0 0.05 0"/>
<feBlend mode="normal" in2="effect1_dropShadow_13337_28504" result="effect2_dropShadow_13337_28504"/>
<feColorMatrix in="SourceAlpha" type="matrix" values="0 0 0 0 0 0 0 0 0 0 0 0 0 0 0 0 0 0 127 0" result="hardAlpha"/>
<feOffset dy="2"/>
<feGaussianBlur stdDeviation="0.5"/>
<feColorMatrix type="matrix" values="0 0 0 0 0 0 0 0 0 0 0 0 0 0 0 0 0 0 0.01 0"/>
<feBlend mode="normal" in2="effect2_dropShadow_13337_28504" result="effect3_dropShadow_13337_28504"/>
<feBlend mode="normal" in="SourceGraphic" in2="effect3_dropShadow_13337_28504" result="shape"/>
</filter>
<filter id="filter1_ddd_13337_28504" x="14" y="2.49805" width="9" height="10" filterUnits="userSpaceOnUse" color-interpolation-filters="sRGB">
<feFlood flood-opacity="0" result="BackgroundImageFix"/>
<feColorMatrix in="SourceAlpha" type="matrix" values="0 0 0 0 0 0 0 0 0 0 0 0 0 0 0 0 0 0 127 0" result="hardAlpha"/>
<feOffset/>
<feGaussianBlur stdDeviation="0.5"/>
<feColorMatrix type="matrix" values="0 0 0 0 0 0 0 0 0 0 0 0 0 0 0 0 0 0 0.09 0"/>
<feBlend mode="normal" in2="BackgroundImageFix" result="effect1_dropShadow_13337_28504"/>
<feColorMatrix in="SourceAlpha" type="matrix" values="0 0 0 0 0 0 0 0 0 0 0 0 0 0 0 0 0 0 127 0" result="hardAlpha"/>
<feOffset dy="1"/>
<feGaussianBlur stdDeviation="0.5"/>
<feColorMatrix type="matrix" values="0 0 0 0 0 0 0 0 0 0 0 0 0 0 0 0 0 0 0.05 0"/>
<feBlend mode="normal" in2="effect1_dropShadow_13337_28504" result="effect2_dropShadow_13337_28504"/>
<feColorMatrix in="SourceAlpha" type="matrix" values="0 0 0 0 0 0 0 0 0 0 0 0 0 0 0 0 0 0 127 0" result="hardAlpha"/>
<feOffset dy="1"/>
<feGaussianBlur stdDeviation="0.5"/>
<feColorMatrix type="matrix" values="0 0 0 0 0 0 0 0 0 0 0 0 0 0 0 0 0 0 0.01 0"/>
<feBlend mode="normal" in2="effect2_dropShadow_13337_28504" result="effect3_dropShadow_13337_28504"/>
<feBlend mode="normal" in="SourceGraphic" in2="effect3_dropShadow_13337_28504" result="shape"/>
</filter>
</defs>
</symbol><symbol id="plot-development-1acre-11" viewBox="0 0 26 14">
<rect x="0.777832" y="0.777832" width="24.8889" height="12.4444" rx="2" fill="#F46236"/>
<g filter="url(#filter0_ddd_13337_28504)">
<path d="M7.94562 10H5.88312V4.18182H7.96267C8.5479 4.18182 9.05168 4.2983 9.47403 4.53125C9.89638 4.76231 10.2212 5.0947 10.4485 5.52841C10.6776 5.96212 10.7922 6.48106 10.7922 7.08523C10.7922 7.69129 10.6776 8.21212 10.4485 8.64773C10.2212 9.08333 9.89449 9.41761 9.46835 9.65057C9.04411 9.88352 8.53653 10 7.94562 10ZM7.11324 8.94602H7.89449C8.25812 8.94602 8.56399 8.88163 8.8121 8.75284C9.0621 8.62216 9.2496 8.42045 9.3746 8.14773C9.50149 7.87311 9.56494 7.51894 9.56494 7.08523C9.56494 6.6553 9.50149 6.30398 9.3746 6.03125C9.2496 5.75852 9.06305 5.55777 8.81494 5.42898C8.56684 5.30019 8.26096 5.2358 7.89733 5.2358H7.11324V8.94602Z" fill="#FFFFFF"/>
</g>
<g filter="url(#filter1_ddd_13337_28504)">
<path d="M18.5002 4.08105L19.4014 5.90689L21.4168 6.20147L19.9585 7.62189L20.3027 9.62855L18.5002 8.68064L16.6977 9.62855L17.0418 7.62189L15.5835 6.20147L17.5989 5.90689L18.5002 4.08105Z" fill="#FFFFFF" stroke="#FFFFFF" stroke-width="0.875" stroke-linecap="round" stroke-linejoin="round"/>
</g>
<defs>
<filter id="filter0_ddd_13337_28504" x="4.8833" y="3.18164" width="6.90869" height="9.81836" filterUnits="userSpaceOnUse" color-interpolation-filters="sRGB">
<feFlood flood-opacity="0" result="BackgroundImageFix"/>
<feColorMatrix in="SourceAlpha" type="matrix" values="0 0 0 0 0 0 0 0 0 0 0 0 0 0 0 0 0 0 127 0" result="hardAlpha"/>
<feOffset/>
<feGaussianBlur stdDeviation="0.5"/>
<feColorMatrix type="matrix" values="0 0 0 0 0 0 0 0 0 0 0 0 0 0 0 0 0 0 0.09 0"/>
<feBlend mode="normal" in2="BackgroundImageFix" result="effect1_dropShadow_13337_28504"/>
<feColorMatrix in="SourceAlpha" type="matrix" values="0 0 0 0 0 0 0 0 0 0 0 0 0 0 0 0 0 0 127 0" result="hardAlpha"/>
<feOffset dy="1"/>
<feGaussianBlur stdDeviation="0.5"/>
<feColorMatrix type="matrix" values="0 0 0 0 0 0 0 0 0 0 0 0 0 0 0 0 0 0 0.05 0"/>
<feBlend mode="normal" in2="effect1_dropShadow_13337_28504" result="effect2_dropShadow_13337_28504"/>
<feColorMatrix in="SourceAlpha" type="matrix" values="0 0 0 0 0 0 0 0 0 0 0 0 0 0 0 0 0 0 127 0" result="hardAlpha"/>
<feOffset dy="2"/>
<feGaussianBlur stdDeviation="0.5"/>
<feColorMatrix type="matrix" values="0 0 0 0 0 0 0 0 0 0 0 0 0 0 0 0 0 0 0.01 0"/>
<feBlend mode="normal" in2="effect2_dropShadow_13337_28504" result="effect3_dropShadow_13337_28504"/>
<feBlend mode="normal" in="SourceGraphic" in2="effect3_dropShadow_13337_28504" result="shape"/>
</filter>
<filter id="filter1_ddd_13337_28504" x="14" y="2.49805" width="9" height="10" filterUnits="userSpaceOnUse" color-interpolation-filters="sRGB">
<feFlood flood-opacity="0" result="BackgroundImageFix"/>
<feColorMatrix in="SourceAlpha" type="matrix" values="0 0 0 0 0 0 0 0 0 0 0 0 0 0 0 0 0 0 127 0" result="hardAlpha"/>
<feOffset/>
<feGaussianBlur stdDeviation="0.5"/>
<feColorMatrix type="matrix" values="0 0 0 0 0 0 0 0 0 0 0 0 0 0 0 0 0 0 0.09 0"/>
<feBlend mode="normal" in2="BackgroundImageFix" result="effect1_dropShadow_13337_28504"/>
<feColorMatrix in="SourceAlpha" type="matrix" values="0 0 0 0 0 0 0 0 0 0 0 0 0 0 0 0 0 0 127 0" result="hardAlpha"/>
<feOffset dy="1"/>
<feGaussianBlur stdDeviation="0.5"/>
<feColorMatrix type="matrix" values="0 0 0 0 0 0 0 0 0 0 0 0 0 0 0 0 0 0 0.05 0"/>
<feBlend mode="normal" in2="effect1_dropShadow_13337_28504" result="effect2_dropShadow_13337_28504"/>
<feColorMatrix in="SourceAlpha" type="matrix" values="0 0 0 0 0 0 0 0 0 0 0 0 0 0 0 0 0 0 127 0" result="hardAlpha"/>
<feOffset dy="1"/>
<feGaussianBlur stdDeviation="0.5"/>
<feColorMatrix type="matrix" values="0 0 0 0 0 0 0 0 0 0 0 0 0 0 0 0 0 0 0.01 0"/>
<feBlend mode="normal" in2="effect2_dropShadow_13337_28504" result="effect3_dropShadow_13337_28504"/>
<feBlend mode="normal" in="SourceGraphic" in2="effect3_dropShadow_13337_28504" result="shape"/>
</filter>
</defs>
</symbol><symbol id="plot-development-1acre-12" viewBox="0 0 26 14">
<rect x="0.777832" y="0.777832" width="24.8889" height="12.4444" rx="2" fill="#F0453D"/>
<g filter="url(#filter0_ddd_13337_28504)">
<path d="M7.94562 10H5.88312V4.18182H7.96267C8.5479 4.18182 9.05168 4.2983 9.47403 4.53125C9.89638 4.76231 10.2212 5.0947 10.4485 5.52841C10.6776 5.96212 10.7922 6.48106 10.7922 7.08523C10.7922 7.69129 10.6776 8.21212 10.4485 8.64773C10.2212 9.08333 9.89449 9.41761 9.46835 9.65057C9.04411 9.88352 8.53653 10 7.94562 10ZM7.11324 8.94602H7.89449C8.25812 8.94602 8.56399 8.88163 8.8121 8.75284C9.0621 8.62216 9.2496 8.42045 9.3746 8.14773C9.50149 7.87311 9.56494 7.51894 9.56494 7.08523C9.56494 6.6553 9.50149 6.30398 9.3746 6.03125C9.2496 5.75852 9.06305 5.55777 8.81494 5.42898C8.56684 5.30019 8.26096 5.2358 7.89733 5.2358H7.11324V8.94602Z" fill="#FFFFFF"/>
</g>
<g filter="url(#filter1_ddd_13337_28504)">
<path d="M18.5002 4.08105L19.4014 5.90689L21.4168 6.20147L19.9585 7.62189L20.3027 9.62855L18.5002 8.68064L16.6977 9.62855L17.0418 7.62189L15.5835 6.20147L17.5989 5.90689L18.5002 4.08105Z" fill="#FFFFFF" stroke="#FFFFFF" stroke-width="0.875" stroke-linecap="round" stroke-linejoin="round"/>
</g>
<defs>
<filter id="filter0_ddd_13337_28504" x="4.8833" y="3.18164" width="6.90869" height="9.81836" filterUnits="userSpaceOnUse" color-interpolation-filters="sRGB">
<feFlood flood-opacity="0" result="BackgroundImageFix"/>
<feColorMatrix in="SourceAlpha" type="matrix" values="0 0 0 0 0 0 0 0 0 0 0 0 0 0 0 0 0 0 127 0" result="hardAlpha"/>
<feOffset/>
<feGaussianBlur stdDeviation="0.5"/>
<feColorMatrix type="matrix" values="0 0 0 0 0 0 0 0 0 0 0 0 0 0 0 0 0 0 0.09 0"/>
<feBlend mode="normal" in2="BackgroundImageFix" result="effect1_dropShadow_13337_28504"/>
<feColorMatrix in="SourceAlpha" type="matrix" values="0 0 0 0 0 0 0 0 0 0 0 0 0 0 0 0 0 0 127 0" result="hardAlpha"/>
<feOffset dy="1"/>
<feGaussianBlur stdDeviation="0.5"/>
<feColorMatrix type="matrix" values="0 0 0 0 0 0 0 0 0 0 0 0 0 0 0 0 0 0 0.05 0"/>
<feBlend mode="normal" in2="effect1_dropShadow_13337_28504" result="effect2_dropShadow_13337_28504"/>
<feColorMatrix in="SourceAlpha" type="matrix" values="0 0 0 0 0 0 0 0 0 0 0 0 0 0 0 0 0 0 127 0" result="hardAlpha"/>
<feOffset dy="2"/>
<feGaussianBlur stdDeviation="0.5"/>
<feColorMatrix type="matrix" values="0 0 0 0 0 0 0 0 0 0 0 0 0 0 0 0 0 0 0.01 0"/>
<feBlend mode="normal" in2="effect2_dropShadow_13337_28504" result="effect3_dropShadow_13337_28504"/>
<feBlend mode="normal" in="SourceGraphic" in2="effect3_dropShadow_13337_28504" result="shape"/>
</filter>
<filter id="filter1_ddd_13337_28504" x="14" y="2.49805" width="9" height="10" filterUnits="userSpaceOnUse" color-interpolation-filters="sRGB">
<feFlood flood-opacity="0" result="BackgroundImageFix"/>
<feColorMatrix in="SourceAlpha" type="matrix" values="0 0 0 0 0 0 0 0 0 0 0 0 0 0 0 0 0 0 127 0" result="hardAlpha"/>
<feOffset/>
<feGaussianBlur stdDeviation="0.5"/>
<feColorMatrix type="matrix" values="0 0 0 0 0 0 0 0 0 0 0 0 0 0 0 0 0 0 0.09 0"/>
<feBlend mode="normal" in2="BackgroundImageFix" result="effect1_dropShadow_13337_28504"/>
<feColorMatrix in="SourceAlpha" type="matrix" values="0 0 0 0 0 0 0 0 0 0 0 0 0 0 0 0 0 0 127 0" result="hardAlpha"/>
<feOffset dy="1"/>
<feGaussianBlur stdDeviation="0.5"/>
<feColorMatrix type="matrix" values="0 0 0 0 0 0 0 0 0 0 0 0 0 0 0 0 0 0 0.05 0"/>
<feBlend mode="normal" in2="effect1_dropShadow_13337_28504" result="effect2_dropShadow_13337_28504"/>
<feColorMatrix in="SourceAlpha" type="matrix" values="0 0 0 0 0 0 0 0 0 0 0 0 0 0 0 0 0 0 127 0" result="hardAlpha"/>
<feOffset dy="1"/>
<feGaussianBlur stdDeviation="0.5"/>
<feColorMatrix type="matrix" values="0 0 0 0 0 0 0 0 0 0 0 0 0 0 0 0 0 0 0.01 0"/>
<feBlend mode="normal" in2="effect2_dropShadow_13337_28504" result="effect3_dropShadow_13337_28504"/>
<feBlend mode="normal" in="SourceGraphic" in2="effect3_dropShadow_13337_28504" result="shape"/>
</filter>
</defs>
</symbol><symbol id="plot-development-1acre-2" viewBox="0 0 26 14">
<rect x="0.777832" y="0.777832" width="24.8889" height="12.4444" rx="2" fill="#B8EE68"/>
<g filter="url(#filter0_ddd_13337_28504)">
<path d="M7.94562 10H5.88312V4.18182H7.96267C8.5479 4.18182 9.05168 4.2983 9.47403 4.53125C9.89638 4.76231 10.2212 5.0947 10.4485 5.52841C10.6776 5.96212 10.7922 6.48106 10.7922 7.08523C10.7922 7.69129 10.6776 8.21212 10.4485 8.64773C10.2212 9.08333 9.89449 9.41761 9.46835 9.65057C9.04411 9.88352 8.53653 10 7.94562 10ZM7.11324 8.94602H7.89449C8.25812 8.94602 8.56399 8.88163 8.8121 8.75284C9.0621 8.62216 9.2496 8.42045 9.3746 8.14773C9.50149 7.87311 9.56494 7.51894 9.56494 7.08523C9.56494 6.6553 9.50149 6.30398 9.3746 6.03125C9.2496 5.75852 9.06305 5.55777 8.81494 5.42898C8.56684 5.30019 8.26096 5.2358 7.89733 5.2358H7.11324V8.94602Z" fill="#313131"/>
</g>
<g filter="url(#filter1_ddd_13337_28504)">
<path d="M18.5002 4.08105L19.4014 5.90689L21.4168 6.20147L19.9585 7.62189L20.3027 9.62855L18.5002 8.68064L16.6977 9.62855L17.0418 7.62189L15.5835 6.20147L17.5989 5.90689L18.5002 4.08105Z" fill="#313131" stroke="#313131" stroke-width="0.875" stroke-linecap="round" stroke-linejoin="round"/>
</g>
<defs>
<filter id="filter0_ddd_13337_28504" x="4.8833" y="3.18164" width="6.90869" height="9.81836" filterUnits="userSpaceOnUse" color-interpolation-filters="sRGB">
<feFlood flood-opacity="0" result="BackgroundImageFix"/>
<feColorMatrix in="SourceAlpha" type="matrix" values="0 0 0 0 0 0 0 0 0 0 0 0 0 0 0 0 0 0 127 0" result="hardAlpha"/>
<feOffset/>
<feGaussianBlur stdDeviation="0.5"/>
<feColorMatrix type="matrix" values="0 0 0 0 0 0 0 0 0 0 0 0 0 0 0 0 0 0 0.09 0"/>
<feBlend mode="normal" in2="BackgroundImageFix" result="effect1_dropShadow_13337_28504"/>
<feColorMatrix in="SourceAlpha" type="matrix" values="0 0 0 0 0 0 0 0 0 0 0 0 0 0 0 0 0 0 127 0" result="hardAlpha"/>
<feOffset dy="1"/>
<feGaussianBlur stdDeviation="0.5"/>
<feColorMatrix type="matrix" values="0 0 0 0 0 0 0 0 0 0 0 0 0 0 0 0 0 0 0.05 0"/>
<feBlend mode="normal" in2="effect1_dropShadow_13337_28504" result="effect2_dropShadow_13337_28504"/>
<feColorMatrix in="SourceAlpha" type="matrix" values="0 0 0 0 0 0 0 0 0 0 0 0 0 0 0 0 0 0 127 0" result="hardAlpha"/>
<feOffset dy="2"/>
<feGaussianBlur stdDeviation="0.5"/>
<feColorMatrix type="matrix" values="0 0 0 0 0 0 0 0 0 0 0 0 0 0 0 0 0 0 0.01 0"/>
<feBlend mode="normal" in2="effect2_dropShadow_13337_28504" result="effect3_dropShadow_13337_28504"/>
<feBlend mode="normal" in="SourceGraphic" in2="effect3_dropShadow_13337_28504" result="shape"/>
</filter>
<filter id="filter1_ddd_13337_28504" x="14" y="2.49805" width="9" height="10" filterUnits="userSpaceOnUse" color-interpolation-filters="sRGB">
<feFlood flood-opacity="0" result="BackgroundImageFix"/>
<feColorMatrix in="SourceAlpha" type="matrix" values="0 0 0 0 0 0 0 0 0 0 0 0 0 0 0 0 0 0 127 0" result="hardAlpha"/>
<feOffset/>
<feGaussianBlur stdDeviation="0.5"/>
<feColorMatrix type="matrix" values="0 0 0 0 0 0 0 0 0 0 0 0 0 0 0 0 0 0 0.09 0"/>
<feBlend mode="normal" in2="BackgroundImageFix" result="effect1_dropShadow_13337_28504"/>
<feColorMatrix in="SourceAlpha" type="matrix" values="0 0 0 0 0 0 0 0 0 0 0 0 0 0 0 0 0 0 127 0" result="hardAlpha"/>
<feOffset dy="1"/>
<feGaussianBlur stdDeviation="0.5"/>
<feColorMatrix type="matrix" values="0 0 0 0 0 0 0 0 0 0 0 0 0 0 0 0 0 0 0.05 0"/>
<feBlend mode="normal" in2="effect1_dropShadow_13337_28504" result="effect2_dropShadow_13337_28504"/>
<feColorMatrix in="SourceAlpha" type="matrix" values="0 0 0 0 0 0 0 0 0 0 0 0 0 0 0 0 0 0 127 0" result="hardAlpha"/>
<feOffset dy="1"/>
<feGaussianBlur stdDeviation="0.5"/>
<feColorMatrix type="matrix" values="0 0 0 0 0 0 0 0 0 0 0 0 0 0 0 0 0 0 0.01 0"/>
<feBlend mode="normal" in2="effect2_dropShadow_13337_28504" result="effect3_dropShadow_13337_28504"/>
<feBlend mode="normal" in="SourceGraphic" in2="effect3_dropShadow_13337_28504" result="shape"/>
</filter>
</defs>
</symbol><symbol id="plot-development-1acre-3" viewBox="0 0 26 14">
<rect x="0.777832" y="0.777832" width="24.8889" height="12.4444" rx="2" fill="#CFEE52"/>
<g filter="url(#filter0_ddd_13337_28504)">
<path d="M7.94562 10H5.88312V4.18182H7.96267C8.5479 4.18182 9.05168 4.2983 9.47403 4.53125C9.89638 4.76231 10.2212 5.0947 10.4485 5.52841C10.6776 5.96212 10.7922 6.48106 10.7922 7.08523C10.7922 7.69129 10.6776 8.21212 10.4485 8.64773C10.2212 9.08333 9.89449 9.41761 9.46835 9.65057C9.04411 9.88352 8.53653 10 7.94562 10ZM7.11324 8.94602H7.89449C8.25812 8.94602 8.56399 8.88163 8.8121 8.75284C9.0621 8.62216 9.2496 8.42045 9.3746 8.14773C9.50149 7.87311 9.56494 7.51894 9.56494 7.08523C9.56494 6.6553 9.50149 6.30398 9.3746 6.03125C9.2496 5.75852 9.06305 5.55777 8.81494 5.42898C8.56684 5.30019 8.26096 5.2358 7.89733 5.2358H7.11324V8.94602Z" fill="#313131"/>
</g>
<g filter="url(#filter1_ddd_13337_28504)">
<path d="M18.5002 4.08105L19.4014 5.90689L21.4168 6.20147L19.9585 7.62189L20.3027 9.62855L18.5002 8.68064L16.6977 9.62855L17.0418 7.62189L15.5835 6.20147L17.5989 5.90689L18.5002 4.08105Z" fill="#313131" stroke="#313131" stroke-width="0.875" stroke-linecap="round" stroke-linejoin="round"/>
</g>
<defs>
<filter id="filter0_ddd_13337_28504" x="4.8833" y="3.18164" width="6.90869" height="9.81836" filterUnits="userSpaceOnUse" color-interpolation-filters="sRGB">
<feFlood flood-opacity="0" result="BackgroundImageFix"/>
<feColorMatrix in="SourceAlpha" type="matrix" values="0 0 0 0 0 0 0 0 0 0 0 0 0 0 0 0 0 0 127 0" result="hardAlpha"/>
<feOffset/>
<feGaussianBlur stdDeviation="0.5"/>
<feColorMatrix type="matrix" values="0 0 0 0 0 0 0 0 0 0 0 0 0 0 0 0 0 0 0.09 0"/>
<feBlend mode="normal" in2="BackgroundImageFix" result="effect1_dropShadow_13337_28504"/>
<feColorMatrix in="SourceAlpha" type="matrix" values="0 0 0 0 0 0 0 0 0 0 0 0 0 0 0 0 0 0 127 0" result="hardAlpha"/>
<feOffset dy="1"/>
<feGaussianBlur stdDeviation="0.5"/>
<feColorMatrix type="matrix" values="0 0 0 0 0 0 0 0 0 0 0 0 0 0 0 0 0 0 0.05 0"/>
<feBlend mode="normal" in2="effect1_dropShadow_13337_28504" result="effect2_dropShadow_13337_28504"/>
<feColorMatrix in="SourceAlpha" type="matrix" values="0 0 0 0 0 0 0 0 0 0 0 0 0 0 0 0 0 0 127 0" result="hardAlpha"/>
<feOffset dy="2"/>
<feGaussianBlur stdDeviation="0.5"/>
<feColorMatrix type="matrix" values="0 0 0 0 0 0 0 0 0 0 0 0 0 0 0 0 0 0 0.01 0"/>
<feBlend mode="normal" in2="effect2_dropShadow_13337_28504" result="effect3_dropShadow_13337_28504"/>
<feBlend mode="normal" in="SourceGraphic" in2="effect3_dropShadow_13337_28504" result="shape"/>
</filter>
<filter id="filter1_ddd_13337_28504" x="14" y="2.49805" width="9" height="10" filterUnits="userSpaceOnUse" color-interpolation-filters="sRGB">
<feFlood flood-opacity="0" result="BackgroundImageFix"/>
<feColorMatrix in="SourceAlpha" type="matrix" values="0 0 0 0 0 0 0 0 0 0 0 0 0 0 0 0 0 0 127 0" result="hardAlpha"/>
<feOffset/>
<feGaussianBlur stdDeviation="0.5"/>
<feColorMatrix type="matrix" values="0 0 0 0 0 0 0 0 0 0 0 0 0 0 0 0 0 0 0.09 0"/>
<feBlend mode="normal" in2="BackgroundImageFix" result="effect1_dropShadow_13337_28504"/>
<feColorMatrix in="SourceAlpha" type="matrix" values="0 0 0 0 0 0 0 0 0 0 0 0 0 0 0 0 0 0 127 0" result="hardAlpha"/>
<feOffset dy="1"/>
<feGaussianBlur stdDeviation="0.5"/>
<feColorMatrix type="matrix" values="0 0 0 0 0 0 0 0 0 0 0 0 0 0 0 0 0 0 0.05 0"/>
<feBlend mode="normal" in2="effect1_dropShadow_13337_28504" result="effect2_dropShadow_13337_28504"/>
<feColorMatrix in="SourceAlpha" type="matrix" values="0 0 0 0 0 0 0 0 0 0 0 0 0 0 0 0 0 0 127 0" result="hardAlpha"/>
<feOffset dy="1"/>
<feGaussianBlur stdDeviation="0.5"/>
<feColorMatrix type="matrix" values="0 0 0 0 0 0 0 0 0 0 0 0 0 0 0 0 0 0 0.01 0"/>
<feBlend mode="normal" in2="effect2_dropShadow_13337_28504" result="effect3_dropShadow_13337_28504"/>
<feBlend mode="normal" in="SourceGraphic" in2="effect3_dropShadow_13337_28504" result="shape"/>
</filter>
</defs>
</symbol><symbol id="plot-development-1acre-4" viewBox="0 0 26 14">
<rect x="0.777832" y="0.777832" width="24.8889" height="12.4444" rx="2" fill="#E7EE3C"/>
<g filter="url(#filter0_ddd_13337_28504)">
<path d="M7.94562 10H5.88312V4.18182H7.96267C8.5479 4.18182 9.05168 4.2983 9.47403 4.53125C9.89638 4.76231 10.2212 5.0947 10.4485 5.52841C10.6776 5.96212 10.7922 6.48106 10.7922 7.08523C10.7922 7.69129 10.6776 8.21212 10.4485 8.64773C10.2212 9.08333 9.89449 9.41761 9.46835 9.65057C9.04411 9.88352 8.53653 10 7.94562 10ZM7.11324 8.94602H7.89449C8.25812 8.94602 8.56399 8.88163 8.8121 8.75284C9.0621 8.62216 9.2496 8.42045 9.3746 8.14773C9.50149 7.87311 9.56494 7.51894 9.56494 7.08523C9.56494 6.6553 9.50149 6.30398 9.3746 6.03125C9.2496 5.75852 9.06305 5.55777 8.81494 5.42898C8.56684 5.30019 8.26096 5.2358 7.89733 5.2358H7.11324V8.94602Z" fill="#313131"/>
</g>
<g filter="url(#filter1_ddd_13337_28504)">
<path d="M18.5002 4.08105L19.4014 5.90689L21.4168 6.20147L19.9585 7.62189L20.3027 9.62855L18.5002 8.68064L16.6977 9.62855L17.0418 7.62189L15.5835 6.20147L17.5989 5.90689L18.5002 4.08105Z" fill="#313131" stroke="#313131" stroke-width="0.875" stroke-linecap="round" stroke-linejoin="round"/>
</g>
<defs>
<filter id="filter0_ddd_13337_28504" x="4.8833" y="3.18164" width="6.90869" height="9.81836" filterUnits="userSpaceOnUse" color-interpolation-filters="sRGB">
<feFlood flood-opacity="0" result="BackgroundImageFix"/>
<feColorMatrix in="SourceAlpha" type="matrix" values="0 0 0 0 0 0 0 0 0 0 0 0 0 0 0 0 0 0 127 0" result="hardAlpha"/>
<feOffset/>
<feGaussianBlur stdDeviation="0.5"/>
<feColorMatrix type="matrix" values="0 0 0 0 0 0 0 0 0 0 0 0 0 0 0 0 0 0 0.09 0"/>
<feBlend mode="normal" in2="BackgroundImageFix" result="effect1_dropShadow_13337_28504"/>
<feColorMatrix in="SourceAlpha" type="matrix" values="0 0 0 0 0 0 0 0 0 0 0 0 0 0 0 0 0 0 127 0" result="hardAlpha"/>
<feOffset dy="1"/>
<feGaussianBlur stdDeviation="0.5"/>
<feColorMatrix type="matrix" values="0 0 0 0 0 0 0 0 0 0 0 0 0 0 0 0 0 0 0.05 0"/>
<feBlend mode="normal" in2="effect1_dropShadow_13337_28504" result="effect2_dropShadow_13337_28504"/>
<feColorMatrix in="SourceAlpha" type="matrix" values="0 0 0 0 0 0 0 0 0 0 0 0 0 0 0 0 0 0 127 0" result="hardAlpha"/>
<feOffset dy="2"/>
<feGaussianBlur stdDeviation="0.5"/>
<feColorMatrix type="matrix" values="0 0 0 0 0 0 0 0 0 0 0 0 0 0 0 0 0 0 0.01 0"/>
<feBlend mode="normal" in2="effect2_dropShadow_13337_28504" result="effect3_dropShadow_13337_28504"/>
<feBlend mode="normal" in="SourceGraphic" in2="effect3_dropShadow_13337_28504" result="shape"/>
</filter>
<filter id="filter1_ddd_13337_28504" x="14" y="2.49805" width="9" height="10" filterUnits="userSpaceOnUse" color-interpolation-filters="sRGB">
<feFlood flood-opacity="0" result="BackgroundImageFix"/>
<feColorMatrix in="SourceAlpha" type="matrix" values="0 0 0 0 0 0 0 0 0 0 0 0 0 0 0 0 0 0 127 0" result="hardAlpha"/>
<feOffset/>
<feGaussianBlur stdDeviation="0.5"/>
<feColorMatrix type="matrix" values="0 0 0 0 0 0 0 0 0 0 0 0 0 0 0 0 0 0 0.09 0"/>
<feBlend mode="normal" in2="BackgroundImageFix" result="effect1_dropShadow_13337_28504"/>
<feColorMatrix in="SourceAlpha" type="matrix" values="0 0 0 0 0 0 0 0 0 0 0 0 0 0 0 0 0 0 127 0" result="hardAlpha"/>
<feOffset dy="1"/>
<feGaussianBlur stdDeviation="0.5"/>
<feColorMatrix type="matrix" values="0 0 0 0 0 0 0 0 0 0 0 0 0 0 0 0 0 0 0.05 0"/>
<feBlend mode="normal" in2="effect1_dropShadow_13337_28504" result="effect2_dropShadow_13337_28504"/>
<feColorMatrix in="SourceAlpha" type="matrix" values="0 0 0 0 0 0 0 0 0 0 0 0 0 0 0 0 0 0 127 0" result="hardAlpha"/>
<feOffset dy="1"/>
<feGaussianBlur stdDeviation="0.5"/>
<feColorMatrix type="matrix" values="0 0 0 0 0 0 0 0 0 0 0 0 0 0 0 0 0 0 0.01 0"/>
<feBlend mode="normal" in2="effect2_dropShadow_13337_28504" result="effect3_dropShadow_13337_28504"/>
<feBlend mode="normal" in="SourceGraphic" in2="effect3_dropShadow_13337_28504" result="shape"/>
</filter>
</defs>
</symbol><symbol id="plot-development-1acre-5" viewBox="0 0 26 14">
<rect x="0.777832" y="0.777832" width="24.8889" height="12.4444" rx="2" fill="#FEEE25"/>
<g filter="url(#filter0_ddd_13337_28504)">
<path d="M7.94562 10H5.88312V4.18182H7.96267C8.5479 4.18182 9.05168 4.2983 9.47403 4.53125C9.89638 4.76231 10.2212 5.0947 10.4485 5.52841C10.6776 5.96212 10.7922 6.48106 10.7922 7.08523C10.7922 7.69129 10.6776 8.21212 10.4485 8.64773C10.2212 9.08333 9.89449 9.41761 9.46835 9.65057C9.04411 9.88352 8.53653 10 7.94562 10ZM7.11324 8.94602H7.89449C8.25812 8.94602 8.56399 8.88163 8.8121 8.75284C9.0621 8.62216 9.2496 8.42045 9.3746 8.14773C9.50149 7.87311 9.56494 7.51894 9.56494 7.08523C9.56494 6.6553 9.50149 6.30398 9.3746 6.03125C9.2496 5.75852 9.06305 5.55777 8.81494 5.42898C8.56684 5.30019 8.26096 5.2358 7.89733 5.2358H7.11324V8.94602Z" fill="#313131"/>
</g>
<g filter="url(#filter1_ddd_13337_28504)">
<path d="M18.5002 4.08105L19.4014 5.90689L21.4168 6.20147L19.9585 7.62189L20.3027 9.62855L18.5002 8.68064L16.6977 9.62855L17.0418 7.62189L15.5835 6.20147L17.5989 5.90689L18.5002 4.08105Z" fill="#313131" stroke="#313131" stroke-width="0.875" stroke-linecap="round" stroke-linejoin="round"/>
</g>
<defs>
<filter id="filter0_ddd_13337_28504" x="4.8833" y="3.18164" width="6.90869" height="9.81836" filterUnits="userSpaceOnUse" color-interpolation-filters="sRGB">
<feFlood flood-opacity="0" result="BackgroundImageFix"/>
<feColorMatrix in="SourceAlpha" type="matrix" values="0 0 0 0 0 0 0 0 0 0 0 0 0 0 0 0 0 0 127 0" result="hardAlpha"/>
<feOffset/>
<feGaussianBlur stdDeviation="0.5"/>
<feColorMatrix type="matrix" values="0 0 0 0 0 0 0 0 0 0 0 0 0 0 0 0 0 0 0.09 0"/>
<feBlend mode="normal" in2="BackgroundImageFix" result="effect1_dropShadow_13337_28504"/>
<feColorMatrix in="SourceAlpha" type="matrix" values="0 0 0 0 0 0 0 0 0 0 0 0 0 0 0 0 0 0 127 0" result="hardAlpha"/>
<feOffset dy="1"/>
<feGaussianBlur stdDeviation="0.5"/>
<feColorMatrix type="matrix" values="0 0 0 0 0 0 0 0 0 0 0 0 0 0 0 0 0 0 0.05 0"/>
<feBlend mode="normal" in2="effect1_dropShadow_13337_28504" result="effect2_dropShadow_13337_28504"/>
<feColorMatrix in="SourceAlpha" type="matrix" values="0 0 0 0 0 0 0 0 0 0 0 0 0 0 0 0 0 0 127 0" result="hardAlpha"/>
<feOffset dy="2"/>
<feGaussianBlur stdDeviation="0.5"/>
<feColorMatrix type="matrix" values="0 0 0 0 0 0 0 0 0 0 0 0 0 0 0 0 0 0 0.01 0"/>
<feBlend mode="normal" in2="effect2_dropShadow_13337_28504" result="effect3_dropShadow_13337_28504"/>
<feBlend mode="normal" in="SourceGraphic" in2="effect3_dropShadow_13337_28504" result="shape"/>
</filter>
<filter id="filter1_ddd_13337_28504" x="14" y="2.49805" width="9" height="10" filterUnits="userSpaceOnUse" color-interpolation-filters="sRGB">
<feFlood flood-opacity="0" result="BackgroundImageFix"/>
<feColorMatrix in="SourceAlpha" type="matrix" values="0 0 0 0 0 0 0 0 0 0 0 0 0 0 0 0 0 0 127 0" result="hardAlpha"/>
<feOffset/>
<feGaussianBlur stdDeviation="0.5"/>
<feColorMatrix type="matrix" values="0 0 0 0 0 0 0 0 0 0 0 0 0 0 0 0 0 0 0.09 0"/>
<feBlend mode="normal" in2="BackgroundImageFix" result="effect1_dropShadow_13337_28504"/>
<feColorMatrix in="SourceAlpha" type="matrix" values="0 0 0 0 0 0 0 0 0 0 0 0 0 0 0 0 0 0 127 0" result="hardAlpha"/>
<feOffset dy="1"/>
<feGaussianBlur stdDeviation="0.5"/>
<feColorMatrix type="matrix" values="0 0 0 0 0 0 0 0 0 0 0 0 0 0 0 0 0 0 0.05 0"/>
<feBlend mode="normal" in2="effect1_dropShadow_13337_28504" result="effect2_dropShadow_13337_28504"/>
<feColorMatrix in="SourceAlpha" type="matrix" values="0 0 0 0 0 0 0 0 0 0 0 0 0 0 0 0 0 0 127 0" result="hardAlpha"/>
<feOffset dy="1"/>
<feGaussianBlur stdDeviation="0.5"/>
<feColorMatrix type="matrix" values="0 0 0 0 0 0 0 0 0 0 0 0 0 0 0 0 0 0 0.01 0"/>
<feBlend mode="normal" in2="effect2_dropShadow_13337_28504" result="effect3_dropShadow_13337_28504"/>
<feBlend mode="normal" in="SourceGraphic" in2="effect3_dropShadow_13337_28504" result="shape"/>
</filter>
</defs>
</symbol><symbol id="plot-development-1acre-6" viewBox="0 0 26 14">
<rect x="0.777832" y="0.777832" width="24.8889" height="12.4444" rx="2" fill="#FEE124"/>
<g filter="url(#filter0_ddd_13337_28504)">
<path d="M7.94562 10H5.88312V4.18182H7.96267C8.5479 4.18182 9.05168 4.2983 9.47403 4.53125C9.89638 4.76231 10.2212 5.0947 10.4485 5.52841C10.6776 5.96212 10.7922 6.48106 10.7922 7.08523C10.7922 7.69129 10.6776 8.21212 10.4485 8.64773C10.2212 9.08333 9.89449 9.41761 9.46835 9.65057C9.04411 9.88352 8.53653 10 7.94562 10ZM7.11324 8.94602H7.89449C8.25812 8.94602 8.56399 8.88163 8.8121 8.75284C9.0621 8.62216 9.2496 8.42045 9.3746 8.14773C9.50149 7.87311 9.56494 7.51894 9.56494 7.08523C9.56494 6.6553 9.50149 6.30398 9.3746 6.03125C9.2496 5.75852 9.06305 5.55777 8.81494 5.42898C8.56684 5.30019 8.26096 5.2358 7.89733 5.2358H7.11324V8.94602Z" fill="#313131"/>
</g>
<g filter="url(#filter1_ddd_13337_28504)">
<path d="M18.5002 4.08105L19.4014 5.90689L21.4168 6.20147L19.9585 7.62189L20.3027 9.62855L18.5002 8.68064L16.6977 9.62855L17.0418 7.62189L15.5835 6.20147L17.5989 5.90689L18.5002 4.08105Z" fill="#313131" stroke="#313131" stroke-width="0.875" stroke-linecap="round" stroke-linejoin="round"/>
</g>
<defs>
<filter id="filter0_ddd_13337_28504" x="4.8833" y="3.18164" width="6.90869" height="9.81836" filterUnits="userSpaceOnUse" color-interpolation-filters="sRGB">
<feFlood flood-opacity="0" result="BackgroundImageFix"/>
<feColorMatrix in="SourceAlpha" type="matrix" values="0 0 0 0 0 0 0 0 0 0 0 0 0 0 0 0 0 0 127 0" result="hardAlpha"/>
<feOffset/>
<feGaussianBlur stdDeviation="0.5"/>
<feColorMatrix type="matrix" values="0 0 0 0 0 0 0 0 0 0 0 0 0 0 0 0 0 0 0.09 0"/>
<feBlend mode="normal" in2="BackgroundImageFix" result="effect1_dropShadow_13337_28504"/>
<feColorMatrix in="SourceAlpha" type="matrix" values="0 0 0 0 0 0 0 0 0 0 0 0 0 0 0 0 0 0 127 0" result="hardAlpha"/>
<feOffset dy="1"/>
<feGaussianBlur stdDeviation="0.5"/>
<feColorMatrix type="matrix" values="0 0 0 0 0 0 0 0 0 0 0 0 0 0 0 0 0 0 0.05 0"/>
<feBlend mode="normal" in2="effect1_dropShadow_13337_28504" result="effect2_dropShadow_13337_28504"/>
<feColorMatrix in="SourceAlpha" type="matrix" values="0 0 0 0 0 0 0 0 0 0 0 0 0 0 0 0 0 0 127 0" result="hardAlpha"/>
<feOffset dy="2"/>
<feGaussianBlur stdDeviation="0.5"/>
<feColorMatrix type="matrix" values="0 0 0 0 0 0 0 0 0 0 0 0 0 0 0 0 0 0 0.01 0"/>
<feBlend mode="normal" in2="effect2_dropShadow_13337_28504" result="effect3_dropShadow_13337_28504"/>
<feBlend mode="normal" in="SourceGraphic" in2="effect3_dropShadow_13337_28504" result="shape"/>
</filter>
<filter id="filter1_ddd_13337_28504" x="14" y="2.49805" width="9" height="10" filterUnits="userSpaceOnUse" color-interpolation-filters="sRGB">
<feFlood flood-opacity="0" result="BackgroundImageFix"/>
<feColorMatrix in="SourceAlpha" type="matrix" values="0 0 0 0 0 0 0 0 0 0 0 0 0 0 0 0 0 0 127 0" result="hardAlpha"/>
<feOffset/>
<feGaussianBlur stdDeviation="0.5"/>
<feColorMatrix type="matrix" values="0 0 0 0 0 0 0 0 0 0 0 0 0 0 0 0 0 0 0.09 0"/>
<feBlend mode="normal" in2="BackgroundImageFix" result="effect1_dropShadow_13337_28504"/>
<feColorMatrix in="SourceAlpha" type="matrix" values="0 0 0 0 0 0 0 0 0 0 0 0 0 0 0 0 0 0 127 0" result="hardAlpha"/>
<feOffset dy="1"/>
<feGaussianBlur stdDeviation="0.5"/>
<feColorMatrix type="matrix" values="0 0 0 0 0 0 0 0 0 0 0 0 0 0 0 0 0 0 0.05 0"/>
<feBlend mode="normal" in2="effect1_dropShadow_13337_28504" result="effect2_dropShadow_13337_28504"/>
<feColorMatrix in="SourceAlpha" type="matrix" values="0 0 0 0 0 0 0 0 0 0 0 0 0 0 0 0 0 0 127 0" result="hardAlpha"/>
<feOffset dy="1"/>
<feGaussianBlur stdDeviation="0.5"/>
<feColorMatrix type="matrix" values="0 0 0 0 0 0 0 0 0 0 0 0 0 0 0 0 0 0 0.01 0"/>
<feBlend mode="normal" in2="effect2_dropShadow_13337_28504" result="effect3_dropShadow_13337_28504"/>
<feBlend mode="normal" in="SourceGraphic" in2="effect3_dropShadow_13337_28504" result="shape"/>
</filter>
</defs>
</symbol><symbol id="plot-development-1acre-7" viewBox="0 0 26 14">
<rect x="0.777832" y="0.777832" width="24.8889" height="12.4444" rx="2" fill="#FED323"/>
<g filter="url(#filter0_ddd_13337_28504)">
<path d="M7.94562 10H5.88312V4.18182H7.96267C8.5479 4.18182 9.05168 4.2983 9.47403 4.53125C9.89638 4.76231 10.2212 5.0947 10.4485 5.52841C10.6776 5.96212 10.7922 6.48106 10.7922 7.08523C10.7922 7.69129 10.6776 8.21212 10.4485 8.64773C10.2212 9.08333 9.89449 9.41761 9.46835 9.65057C9.04411 9.88352 8.53653 10 7.94562 10ZM7.11324 8.94602H7.89449C8.25812 8.94602 8.56399 8.88163 8.8121 8.75284C9.0621 8.62216 9.2496 8.42045 9.3746 8.14773C9.50149 7.87311 9.56494 7.51894 9.56494 7.08523C9.56494 6.6553 9.50149 6.30398 9.3746 6.03125C9.2496 5.75852 9.06305 5.55777 8.81494 5.42898C8.56684 5.30019 8.26096 5.2358 7.89733 5.2358H7.11324V8.94602Z" fill="#313131"/>
</g>
<g filter="url(#filter1_ddd_13337_28504)">
<path d="M18.5002 4.08105L19.4014 5.90689L21.4168 6.20147L19.9585 7.62189L20.3027 9.62855L18.5002 8.68064L16.6977 9.62855L17.0418 7.62189L15.5835 6.20147L17.5989 5.90689L18.5002 4.08105Z" fill="#313131" stroke="#313131" stroke-width="0.875" stroke-linecap="round" stroke-linejoin="round"/>
</g>
<defs>
<filter id="filter0_ddd_13337_28504" x="4.8833" y="3.18164" width="6.90869" height="9.81836" filterUnits="userSpaceOnUse" color-interpolation-filters="sRGB">
<feFlood flood-opacity="0" result="BackgroundImageFix"/>
<feColorMatrix in="SourceAlpha" type="matrix" values="0 0 0 0 0 0 0 0 0 0 0 0 0 0 0 0 0 0 127 0" result="hardAlpha"/>
<feOffset/>
<feGaussianBlur stdDeviation="0.5"/>
<feColorMatrix type="matrix" values="0 0 0 0 0 0 0 0 0 0 0 0 0 0 0 0 0 0 0.09 0"/>
<feBlend mode="normal" in2="BackgroundImageFix" result="effect1_dropShadow_13337_28504"/>
<feColorMatrix in="SourceAlpha" type="matrix" values="0 0 0 0 0 0 0 0 0 0 0 0 0 0 0 0 0 0 127 0" result="hardAlpha"/>
<feOffset dy="1"/>
<feGaussianBlur stdDeviation="0.5"/>
<feColorMatrix type="matrix" values="0 0 0 0 0 0 0 0 0 0 0 0 0 0 0 0 0 0 0.05 0"/>
<feBlend mode="normal" in2="effect1_dropShadow_13337_28504" result="effect2_dropShadow_13337_28504"/>
<feColorMatrix in="SourceAlpha" type="matrix" values="0 0 0 0 0 0 0 0 0 0 0 0 0 0 0 0 0 0 127 0" result="hardAlpha"/>
<feOffset dy="2"/>
<feGaussianBlur stdDeviation="0.5"/>
<feColorMatrix type="matrix" values="0 0 0 0 0 0 0 0 0 0 0 0 0 0 0 0 0 0 0.01 0"/>
<feBlend mode="normal" in2="effect2_dropShadow_13337_28504" result="effect3_dropShadow_13337_28504"/>
<feBlend mode="normal" in="SourceGraphic" in2="effect3_dropShadow_13337_28504" result="shape"/>
</filter>
<filter id="filter1_ddd_13337_28504" x="14" y="2.49805" width="9" height="10" filterUnits="userSpaceOnUse" color-interpolation-filters="sRGB">
<feFlood flood-opacity="0" result="BackgroundImageFix"/>
<feColorMatrix in="SourceAlpha" type="matrix" values="0 0 0 0 0 0 0 0 0 0 0 0 0 0 0 0 0 0 127 0" result="hardAlpha"/>
<feOffset/>
<feGaussianBlur stdDeviation="0.5"/>
<feColorMatrix type="matrix" values="0 0 0 0 0 0 0 0 0 0 0 0 0 0 0 0 0 0 0.09 0"/>
<feBlend mode="normal" in2="BackgroundImageFix" result="effect1_dropShadow_13337_28504"/>
<feColorMatrix in="SourceAlpha" type="matrix" values="0 0 0 0 0 0 0 0 0 0 0 0 0 0 0 0 0 0 127 0" result="hardAlpha"/>
<feOffset dy="1"/>
<feGaussianBlur stdDeviation="0.5"/>
<feColorMatrix type="matrix" values="0 0 0 0 0 0 0 0 0 0 0 0 0 0 0 0 0 0 0.05 0"/>
<feBlend mode="normal" in2="effect1_dropShadow_13337_28504" result="effect2_dropShadow_13337_28504"/>
<feColorMatrix in="SourceAlpha" type="matrix" values="0 0 0 0 0 0 0 0 0 0 0 0 0 0 0 0 0 0 127 0" result="hardAlpha"/>
<feOffset dy="1"/>
<feGaussianBlur stdDeviation="0.5"/>
<feColorMatrix type="matrix" values="0 0 0 0 0 0 0 0 0 0 0 0 0 0 0 0 0 0 0.01 0"/>
<feBlend mode="normal" in2="effect2_dropShadow_13337_28504" result="effect3_dropShadow_13337_28504"/>
<feBlend mode="normal" in="SourceGraphic" in2="effect3_dropShadow_13337_28504" result="shape"/>
</filter>
</defs>
</symbol><symbol id="plot-development-1acre-8" viewBox="0 0 26 14">
<rect x="0.777832" y="0.777832" width="24.8889" height="12.4444" rx="2" fill="#FEB721"/>
<g filter="url(#filter0_ddd_13337_28504)">
<path d="M7.94562 10H5.88312V4.18182H7.96267C8.5479 4.18182 9.05168 4.2983 9.47403 4.53125C9.89638 4.76231 10.2212 5.0947 10.4485 5.52841C10.6776 5.96212 10.7922 6.48106 10.7922 7.08523C10.7922 7.69129 10.6776 8.21212 10.4485 8.64773C10.2212 9.08333 9.89449 9.41761 9.46835 9.65057C9.04411 9.88352 8.53653 10 7.94562 10ZM7.11324 8.94602H7.89449C8.25812 8.94602 8.56399 8.88163 8.8121 8.75284C9.0621 8.62216 9.2496 8.42045 9.3746 8.14773C9.50149 7.87311 9.56494 7.51894 9.56494 7.08523C9.56494 6.6553 9.50149 6.30398 9.3746 6.03125C9.2496 5.75852 9.06305 5.55777 8.81494 5.42898C8.56684 5.30019 8.26096 5.2358 7.89733 5.2358H7.11324V8.94602Z" fill="#313131"/>
</g>
<g filter="url(#filter1_ddd_13337_28504)">
<path d="M18.5002 4.08105L19.4014 5.90689L21.4168 6.20147L19.9585 7.62189L20.3027 9.62855L18.5002 8.68064L16.6977 9.62855L17.0418 7.62189L15.5835 6.20147L17.5989 5.90689L18.5002 4.08105Z" fill="#313131" stroke="#313131" stroke-width="0.875" stroke-linecap="round" stroke-linejoin="round"/>
</g>
<defs>
<filter id="filter0_ddd_13337_28504" x="4.8833" y="3.18164" width="6.90869" height="9.81836" filterUnits="userSpaceOnUse" color-interpolation-filters="sRGB">
<feFlood flood-opacity="0" result="BackgroundImageFix"/>
<feColorMatrix in="SourceAlpha" type="matrix" values="0 0 0 0 0 0 0 0 0 0 0 0 0 0 0 0 0 0 127 0" result="hardAlpha"/>
<feOffset/>
<feGaussianBlur stdDeviation="0.5"/>
<feColorMatrix type="matrix" values="0 0 0 0 0 0 0 0 0 0 0 0 0 0 0 0 0 0 0.09 0"/>
<feBlend mode="normal" in2="BackgroundImageFix" result="effect1_dropShadow_13337_28504"/>
<feColorMatrix in="SourceAlpha" type="matrix" values="0 0 0 0 0 0 0 0 0 0 0 0 0 0 0 0 0 0 127 0" result="hardAlpha"/>
<feOffset dy="1"/>
<feGaussianBlur stdDeviation="0.5"/>
<feColorMatrix type="matrix" values="0 0 0 0 0 0 0 0 0 0 0 0 0 0 0 0 0 0 0.05 0"/>
<feBlend mode="normal" in2="effect1_dropShadow_13337_28504" result="effect2_dropShadow_13337_28504"/>
<feColorMatrix in="SourceAlpha" type="matrix" values="0 0 0 0 0 0 0 0 0 0 0 0 0 0 0 0 0 0 127 0" result="hardAlpha"/>
<feOffset dy="2"/>
<feGaussianBlur stdDeviation="0.5"/>
<feColorMatrix type="matrix" values="0 0 0 0 0 0 0 0 0 0 0 0 0 0 0 0 0 0 0.01 0"/>
<feBlend mode="normal" in2="effect2_dropShadow_13337_28504" result="effect3_dropShadow_13337_28504"/>
<feBlend mode="normal" in="SourceGraphic" in2="effect3_dropShadow_13337_28504" result="shape"/>
</filter>
<filter id="filter1_ddd_13337_28504" x="14" y="2.49805" width="9" height="10" filterUnits="userSpaceOnUse" color-interpolation-filters="sRGB">
<feFlood flood-opacity="0" result="BackgroundImageFix"/>
<feColorMatrix in="SourceAlpha" type="matrix" values="0 0 0 0 0 0 0 0 0 0 0 0 0 0 0 0 0 0 127 0" result="hardAlpha"/>
<feOffset/>
<feGaussianBlur stdDeviation="0.5"/>
<feColorMatrix type="matrix" values="0 0 0 0 0 0 0 0 0 0 0 0 0 0 0 0 0 0 0.09 0"/>
<feBlend mode="normal" in2="BackgroundImageFix" result="effect1_dropShadow_13337_28504"/>
<feColorMatrix in="SourceAlpha" type="matrix" values="0 0 0 0 0 0 0 0 0 0 0 0 0 0 0 0 0 0 127 0" result="hardAlpha"/>
<feOffset dy="1"/>
<feGaussianBlur stdDeviation="0.5"/>
<feColorMatrix type="matrix" values="0 0 0 0 0 0 0 0 0 0 0 0 0 0 0 0 0 0 0.05 0"/>
<feBlend mode="normal" in2="effect1_dropShadow_13337_28504" result="effect2_dropShadow_13337_28504"/>
<feColorMatrix in="SourceAlpha" type="matrix" values="0 0 0 0 0 0 0 0 0 0 0 0 0 0 0 0 0 0 127 0" result="hardAlpha"/>
<feOffset dy="1"/>
<feGaussianBlur stdDeviation="0.5"/>
<feColorMatrix type="matrix" values="0 0 0 0 0 0 0 0 0 0 0 0 0 0 0 0 0 0 0.01 0"/>
<feBlend mode="normal" in2="effect2_dropShadow_13337_28504" result="effect3_dropShadow_13337_28504"/>
<feBlend mode="normal" in="SourceGraphic" in2="effect3_dropShadow_13337_28504" result="shape"/>
</filter>
</defs>
</symbol><symbol id="plot-development-1acre-9" viewBox="0 0 26 14">
<rect x="0.777832" y="0.777832" width="24.8889" height="12.4444" rx="2" fill="#FB9B28"/>
<g filter="url(#filter0_ddd_13337_28504)">
<path d="M7.94562 10H5.88312V4.18182H7.96267C8.5479 4.18182 9.05168 4.2983 9.47403 4.53125C9.89638 4.76231 10.2212 5.0947 10.4485 5.52841C10.6776 5.96212 10.7922 6.48106 10.7922 7.08523C10.7922 7.69129 10.6776 8.21212 10.4485 8.64773C10.2212 9.08333 9.89449 9.41761 9.46835 9.65057C9.04411 9.88352 8.53653 10 7.94562 10ZM7.11324 8.94602H7.89449C8.25812 8.94602 8.56399 8.88163 8.8121 8.75284C9.0621 8.62216 9.2496 8.42045 9.3746 8.14773C9.50149 7.87311 9.56494 7.51894 9.56494 7.08523C9.56494 6.6553 9.50149 6.30398 9.3746 6.03125C9.2496 5.75852 9.06305 5.55777 8.81494 5.42898C8.56684 5.30019 8.26096 5.2358 7.89733 5.2358H7.11324V8.94602Z" fill="#FFFFFF"/>
</g>
<g filter="url(#filter1_ddd_13337_28504)">
<path d="M18.5002 4.08105L19.4014 5.90689L21.4168 6.20147L19.9585 7.62189L20.3027 9.62855L18.5002 8.68064L16.6977 9.62855L17.0418 7.62189L15.5835 6.20147L17.5989 5.90689L18.5002 4.08105Z" fill="#FFFFFF" stroke="#FFFFFF" stroke-width="0.875" stroke-linecap="round" stroke-linejoin="round"/>
</g>
<defs>
<filter id="filter0_ddd_13337_28504" x="4.8833" y="3.18164" width="6.90869" height="9.81836" filterUnits="userSpaceOnUse" color-interpolation-filters="sRGB">
<feFlood flood-opacity="0" result="BackgroundImageFix"/>
<feColorMatrix in="SourceAlpha" type="matrix" values="0 0 0 0 0 0 0 0 0 0 0 0 0 0 0 0 0 0 127 0" result="hardAlpha"/>
<feOffset/>
<feGaussianBlur stdDeviation="0.5"/>
<feColorMatrix type="matrix" values="0 0 0 0 0 0 0 0 0 0 0 0 0 0 0 0 0 0 0.09 0"/>
<feBlend mode="normal" in2="BackgroundImageFix" result="effect1_dropShadow_13337_28504"/>
<feColorMatrix in="SourceAlpha" type="matrix" values="0 0 0 0 0 0 0 0 0 0 0 0 0 0 0 0 0 0 127 0" result="hardAlpha"/>
<feOffset dy="1"/>
<feGaussianBlur stdDeviation="0.5"/>
<feColorMatrix type="matrix" values="0 0 0 0 0 0 0 0 0 0 0 0 0 0 0 0 0 0 0.05 0"/>
<feBlend mode="normal" in2="effect1_dropShadow_13337_28504" result="effect2_dropShadow_13337_28504"/>
<feColorMatrix in="SourceAlpha" type="matrix" values="0 0 0 0 0 0 0 0 0 0 0 0 0 0 0 0 0 0 127 0" result="hardAlpha"/>
<feOffset dy="2"/>
<feGaussianBlur stdDeviation="0.5"/>
<feColorMatrix type="matrix" values="0 0 0 0 0 0 0 0 0 0 0 0 0 0 0 0 0 0 0.01 0"/>
<feBlend mode="normal" in2="effect2_dropShadow_13337_28504" result="effect3_dropShadow_13337_28504"/>
<feBlend mode="normal" in="SourceGraphic" in2="effect3_dropShadow_13337_28504" result="shape"/>
</filter>
<filter id="filter1_ddd_13337_28504" x="14" y="2.49805" width="9" height="10" filterUnits="userSpaceOnUse" color-interpolation-filters="sRGB">
<feFlood flood-opacity="0" result="BackgroundImageFix"/>
<feColorMatrix in="SourceAlpha" type="matrix" values="0 0 0 0 0 0 0 0 0 0 0 0 0 0 0 0 0 0 127 0" result="hardAlpha"/>
<feOffset/>
<feGaussianBlur stdDeviation="0.5"/>
<feColorMatrix type="matrix" values="0 0 0 0 0 0 0 0 0 0 0 0 0 0 0 0 0 0 0.09 0"/>
<feBlend mode="normal" in2="BackgroundImageFix" result="effect1_dropShadow_13337_28504"/>
<feColorMatrix in="SourceAlpha" type="matrix" values="0 0 0 0 0 0 0 0 0 0 0 0 0 0 0 0 0 0 127 0" result="hardAlpha"/>
<feOffset dy="1"/>
<feGaussianBlur stdDeviation="0.5"/>
<feColorMatrix type="matrix" values="0 0 0 0 0 0 0 0 0 0 0 0 0 0 0 0 0 0 0.05 0"/>
<feBlend mode="normal" in2="effect1_dropShadow_13337_28504" result="effect2_dropShadow_13337_28504"/>
<feColorMatrix in="SourceAlpha" type="matrix" values="0 0 0 0 0 0 0 0 0 0 0 0 0 0 0 0 0 0 127 0" result="hardAlpha"/>
<feOffset dy="1"/>
<feGaussianBlur stdDeviation="0.5"/>
<feColorMatrix type="matrix" values="0 0 0 0 0 0 0 0 0 0 0 0 0 0 0 0 0 0 0.01 0"/>
<feBlend mode="normal" in2="effect2_dropShadow_13337_28504" result="effect3_dropShadow_13337_28504"/>
<feBlend mode="normal" in="SourceGraphic" in2="effect3_dropShadow_13337_28504" result="shape"/>
</filter>
</defs>
</symbol></svg>