<svg xmlns="http://www.w3.org/2000/svg"><symbol id="plot-owner-0" viewBox="0 0 10 10">
<g clip-path="url(#clip0_15202_105212)">
<rect x="0.777344" y="0.777771" width="8.79" height="8.79" rx="1.25" fill="#C3C3C3"/>
<g filter="url(#filter0_ddd_15202_105212)">
<path d="M7.85227 5.09085C7.85227 5.72532 7.73201 6.26509 7.49148 6.71017C7.25284 7.15524 6.92708 7.4952 6.5142 7.73005C6.10322 7.96301 5.6411 8.07948 5.12784 8.07948C4.6108 8.07948 4.14678 7.96206 3.7358 7.72721C3.32481 7.49236 3 7.1524 2.76136 6.70733C2.52273 6.26225 2.40341 5.72342 2.40341 5.09085C2.40341 4.45638 2.52273 3.91661 2.76136 3.47153C3 3.02645 3.32481 2.68744 3.7358 2.45448C4.14678 2.21964 4.6108 2.10221 5.12784 2.10221C5.6411 2.10221 6.10322 2.21964 6.5142 2.45448C6.92708 2.68744 7.25284 3.02645 7.49148 3.47153C7.73201 3.91661 7.85227 4.45638 7.85227 5.09085ZM6.60511 5.09085C6.60511 4.67986 6.54356 4.33327 6.42045 4.05108C6.29924 3.76888 6.12784 3.55486 5.90625 3.40903C5.68466 3.2632 5.42519 3.19028 5.12784 3.19028C4.83049 3.19028 4.57102 3.2632 4.34943 3.40903C4.12784 3.55486 3.95549 3.76888 3.83239 4.05108C3.71117 4.33327 3.65057 4.67986 3.65057 5.09085C3.65057 5.50183 3.71117 5.84842 3.83239 6.13062C3.95549 6.41282 4.12784 6.62683 4.34943 6.77267C4.57102 6.9185 4.83049 6.99142 5.12784 6.99142C5.42519 6.99142 5.68466 6.9185 5.90625 6.77267C6.12784 6.62683 6.29924 6.41282 6.42045 6.13062C6.54356 5.84842 6.60511 5.50183 6.60511 5.09085Z" fill="white"/>
</g>
</g>
<defs>
<filter id="filter0_ddd_15202_105212" x="1.40234" y="1.10223" width="7.44922" height="9.97723" filterUnits="userSpaceOnUse" color-interpolation-filters="sRGB">
<feFlood flood-opacity="0" result="BackgroundImageFix"/>
<feColorMatrix in="SourceAlpha" type="matrix" values="0 0 0 0 0 0 0 0 0 0 0 0 0 0 0 0 0 0 127 0" result="hardAlpha"/>
<feOffset/>
<feGaussianBlur stdDeviation="0.5"/>
<feColorMatrix type="matrix" values="0 0 0 0 0 0 0 0 0 0 0 0 0 0 0 0 0 0 0.09 0"/>
<feBlend mode="normal" in2="BackgroundImageFix" result="effect1_dropShadow_15202_105212"/>
<feColorMatrix in="SourceAlpha" type="matrix" values="0 0 0 0 0 0 0 0 0 0 0 0 0 0 0 0 0 0 127 0" result="hardAlpha"/>
<feOffset dy="1"/>
<feGaussianBlur stdDeviation="0.5"/>
<feColorMatrix type="matrix" values="0 0 0 0 0 0 0 0 0 0 0 0 0 0 0 0 0 0 0.05 0"/>
<feBlend mode="normal" in2="effect1_dropShadow_15202_105212" result="effect2_dropShadow_15202_105212"/>
<feColorMatrix in="SourceAlpha" type="matrix" values="0 0 0 0 0 0 0 0 0 0 0 0 0 0 0 0 0 0 127 0" result="hardAlpha"/>
<feOffset dy="2"/>
<feGaussianBlur stdDeviation="0.5"/>
<feColorMatrix type="matrix" values="0 0 0 0 0 0 0 0 0 0 0 0 0 0 0 0 0 0 0.01 0"/>
<feBlend mode="normal" in2="effect2_dropShadow_15202_105212" result="effect3_dropShadow_15202_105212"/>
<feBlend mode="normal" in="SourceGraphic" in2="effect3_dropShadow_15202_105212" result="shape"/>
</filter>
<clipPath id="clip0_15202_105212">
<rect x="0.777344" y="0.777771" width="8.79" height="8.79" rx="1.25" fill="white"/>
</clipPath>
</defs>
</symbol><symbol id="plot-owner-1" viewBox="0 0 10 10">
<g clip-path="url(#clip0_15202_105185)">
<rect x="0.777344" y="0.777779" width="8.79" height="8.79" rx="1.25" fill="#A0EE7E"/>
<path d="M7.85227 5.09086C7.85227 5.72533 7.73201 6.2651 7.49148 6.71017C7.25284 7.15525 6.92708 7.49521 6.5142 7.73006C6.10322 7.96301 5.6411 8.07949 5.12784 8.07949C4.6108 8.07949 4.14678 7.96207 3.7358 7.72722C3.32481 7.49237 3 7.15241 2.76136 6.70733C2.52273 6.26226 2.40341 5.72343 2.40341 5.09086C2.40341 4.45639 2.52273 3.91661 2.76136 3.47154C3 3.02646 3.32481 2.68745 3.7358 2.45449C4.14678 2.21964 4.6108 2.10222 5.12784 2.10222C5.6411 2.10222 6.10322 2.21964 6.5142 2.45449C6.92708 2.68745 7.25284 3.02646 7.49148 3.47154C7.73201 3.91661 7.85227 4.45639 7.85227 5.09086ZM6.60511 5.09086C6.60511 4.67987 6.54356 4.33328 6.42045 4.05108C6.29924 3.76889 6.12784 3.55487 5.90625 3.40904C5.68466 3.2632 5.42519 3.19029 5.12784 3.19029C4.83049 3.19029 4.57102 3.2632 4.34943 3.40904C4.12784 3.55487 3.95549 3.76889 3.83239 4.05108C3.71117 4.33328 3.65057 4.67987 3.65057 5.09086C3.65057 5.50184 3.71117 5.84843 3.83239 6.13063C3.95549 6.41283 4.12784 6.62684 4.34943 6.77267C4.57102 6.91851 4.83049 6.99142 5.12784 6.99142C5.42519 6.99142 5.68466 6.91851 5.90625 6.77267C6.12784 6.62684 6.29924 6.41283 6.42045 6.13063C6.54356 5.84843 6.60511 5.50184 6.60511 5.09086Z" fill="#313131"/>
</g>
<defs>
<clipPath id="clip0_15202_105185">
<rect x="0.777344" y="0.777779" width="8.79" height="8.79" rx="1.25" fill="white"/>
</clipPath>
</defs>
</symbol><symbol id="plot-owner-10" viewBox="0 0 10 10">
<g clip-path="url(#clip0_15202_105203)">
<rect x="0.777344" y="0.777771" width="8.79" height="8.79" rx="1.25" fill="#F77D2E"/>
<g filter="url(#filter0_ddd_15202_105203)">
<path d="M7.85227 5.09085C7.85227 5.72532 7.73201 6.26509 7.49148 6.71017C7.25284 7.15524 6.92708 7.4952 6.5142 7.73005C6.10322 7.96301 5.6411 8.07948 5.12784 8.07948C4.6108 8.07948 4.14678 7.96206 3.7358 7.72721C3.32481 7.49236 3 7.1524 2.76136 6.70733C2.52273 6.26225 2.40341 5.72342 2.40341 5.09085C2.40341 4.45638 2.52273 3.91661 2.76136 3.47153C3 3.02645 3.32481 2.68744 3.7358 2.45448C4.14678 2.21964 4.6108 2.10221 5.12784 2.10221C5.6411 2.10221 6.10322 2.21964 6.5142 2.45448C6.92708 2.68744 7.25284 3.02645 7.49148 3.47153C7.73201 3.91661 7.85227 4.45638 7.85227 5.09085ZM6.60511 5.09085C6.60511 4.67986 6.54356 4.33327 6.42045 4.05108C6.29924 3.76888 6.12784 3.55486 5.90625 3.40903C5.68466 3.2632 5.42519 3.19028 5.12784 3.19028C4.83049 3.19028 4.57102 3.2632 4.34943 3.40903C4.12784 3.55486 3.95549 3.76888 3.83239 4.05108C3.71117 4.33327 3.65057 4.67986 3.65057 5.09085C3.65057 5.50183 3.71117 5.84842 3.83239 6.13062C3.95549 6.41282 4.12784 6.62683 4.34943 6.77267C4.57102 6.9185 4.83049 6.99142 5.12784 6.99142C5.42519 6.99142 5.68466 6.9185 5.90625 6.77267C6.12784 6.62683 6.29924 6.41282 6.42045 6.13062C6.54356 5.84842 6.60511 5.50183 6.60511 5.09085Z" fill="white"/>
</g>
</g>
<defs>
<filter id="filter0_ddd_15202_105203" x="1.40234" y="1.1022" width="7.44922" height="9.97729" filterUnits="userSpaceOnUse" color-interpolation-filters="sRGB">
<feFlood flood-opacity="0" result="BackgroundImageFix"/>
<feColorMatrix in="SourceAlpha" type="matrix" values="0 0 0 0 0 0 0 0 0 0 0 0 0 0 0 0 0 0 127 0" result="hardAlpha"/>
<feOffset/>
<feGaussianBlur stdDeviation="0.5"/>
<feColorMatrix type="matrix" values="0 0 0 0 0 0 0 0 0 0 0 0 0 0 0 0 0 0 0.09 0"/>
<feBlend mode="normal" in2="BackgroundImageFix" result="effect1_dropShadow_15202_105203"/>
<feColorMatrix in="SourceAlpha" type="matrix" values="0 0 0 0 0 0 0 0 0 0 0 0 0 0 0 0 0 0 127 0" result="hardAlpha"/>
<feOffset dy="1"/>
<feGaussianBlur stdDeviation="0.5"/>
<feColorMatrix type="matrix" values="0 0 0 0 0 0 0 0 0 0 0 0 0 0 0 0 0 0 0.05 0"/>
<feBlend mode="normal" in2="effect1_dropShadow_15202_105203" result="effect2_dropShadow_15202_105203"/>
<feColorMatrix in="SourceAlpha" type="matrix" values="0 0 0 0 0 0 0 0 0 0 0 0 0 0 0 0 0 0 127 0" result="hardAlpha"/>
<feOffset dy="2"/>
<feGaussianBlur stdDeviation="0.5"/>
<feColorMatrix type="matrix" values="0 0 0 0 0 0 0 0 0 0 0 0 0 0 0 0 0 0 0.01 0"/>
<feBlend mode="normal" in2="effect2_dropShadow_15202_105203" result="effect3_dropShadow_15202_105203"/>
<feBlend mode="normal" in="SourceGraphic" in2="effect3_dropShadow_15202_105203" result="shape"/>
</filter>
<clipPath id="clip0_15202_105203">
<rect x="0.777344" y="0.777771" width="8.79" height="8.79" rx="1.25" fill="white"/>
</clipPath>
</defs>
</symbol><symbol id="plot-owner-11" viewBox="0 0 10 10">
<g clip-path="url(#clip0_15202_105206)">
<rect x="0.777344" y="0.777771" width="8.79" height="8.79" rx="1.25" fill="#F46236"/>
<g filter="url(#filter0_ddd_15202_105206)">
<path d="M7.85227 5.09085C7.85227 5.72532 7.73201 6.26509 7.49148 6.71017C7.25284 7.15524 6.92708 7.4952 6.5142 7.73005C6.10322 7.96301 5.6411 8.07948 5.12784 8.07948C4.6108 8.07948 4.14678 7.96206 3.7358 7.72721C3.32481 7.49236 3 7.1524 2.76136 6.70733C2.52273 6.26225 2.40341 5.72342 2.40341 5.09085C2.40341 4.45638 2.52273 3.91661 2.76136 3.47153C3 3.02645 3.32481 2.68744 3.7358 2.45448C4.14678 2.21964 4.6108 2.10221 5.12784 2.10221C5.6411 2.10221 6.10322 2.21964 6.5142 2.45448C6.92708 2.68744 7.25284 3.02645 7.49148 3.47153C7.73201 3.91661 7.85227 4.45638 7.85227 5.09085ZM6.60511 5.09085C6.60511 4.67986 6.54356 4.33327 6.42045 4.05108C6.29924 3.76888 6.12784 3.55486 5.90625 3.40903C5.68466 3.2632 5.42519 3.19028 5.12784 3.19028C4.83049 3.19028 4.57102 3.2632 4.34943 3.40903C4.12784 3.55486 3.95549 3.76888 3.83239 4.05108C3.71117 4.33327 3.65057 4.67986 3.65057 5.09085C3.65057 5.50183 3.71117 5.84842 3.83239 6.13062C3.95549 6.41282 4.12784 6.62683 4.34943 6.77267C4.57102 6.9185 4.83049 6.99142 5.12784 6.99142C5.42519 6.99142 5.68466 6.9185 5.90625 6.77267C6.12784 6.62683 6.29924 6.41282 6.42045 6.13062C6.54356 5.84842 6.60511 5.50183 6.60511 5.09085Z" fill="white"/>
</g>
</g>
<defs>
<filter id="filter0_ddd_15202_105206" x="1.40234" y="1.1022" width="7.44922" height="9.97729" filterUnits="userSpaceOnUse" color-interpolation-filters="sRGB">
<feFlood flood-opacity="0" result="BackgroundImageFix"/>
<feColorMatrix in="SourceAlpha" type="matrix" values="0 0 0 0 0 0 0 0 0 0 0 0 0 0 0 0 0 0 127 0" result="hardAlpha"/>
<feOffset/>
<feGaussianBlur stdDeviation="0.5"/>
<feColorMatrix type="matrix" values="0 0 0 0 0 0 0 0 0 0 0 0 0 0 0 0 0 0 0.09 0"/>
<feBlend mode="normal" in2="BackgroundImageFix" result="effect1_dropShadow_15202_105206"/>
<feColorMatrix in="SourceAlpha" type="matrix" values="0 0 0 0 0 0 0 0 0 0 0 0 0 0 0 0 0 0 127 0" result="hardAlpha"/>
<feOffset dy="1"/>
<feGaussianBlur stdDeviation="0.5"/>
<feColorMatrix type="matrix" values="0 0 0 0 0 0 0 0 0 0 0 0 0 0 0 0 0 0 0.05 0"/>
<feBlend mode="normal" in2="effect1_dropShadow_15202_105206" result="effect2_dropShadow_15202_105206"/>
<feColorMatrix in="SourceAlpha" type="matrix" values="0 0 0 0 0 0 0 0 0 0 0 0 0 0 0 0 0 0 127 0" result="hardAlpha"/>
<feOffset dy="2"/>
<feGaussianBlur stdDeviation="0.5"/>
<feColorMatrix type="matrix" values="0 0 0 0 0 0 0 0 0 0 0 0 0 0 0 0 0 0 0.01 0"/>
<feBlend mode="normal" in2="effect2_dropShadow_15202_105206" result="effect3_dropShadow_15202_105206"/>
<feBlend mode="normal" in="SourceGraphic" in2="effect3_dropShadow_15202_105206" result="shape"/>
</filter>
<clipPath id="clip0_15202_105206">
<rect x="0.777344" y="0.777771" width="8.79" height="8.79" rx="1.25" fill="white"/>
</clipPath>
</defs>
</symbol><symbol id="plot-owner-12" viewBox="0 0 10 10">
<g clip-path="url(#clip0_15202_105209)">
<rect x="0.777344" y="0.777771" width="8.79" height="8.79" rx="1.25" fill="#F0453D"/>
<g filter="url(#filter0_ddd_15202_105209)">
<path d="M7.85227 5.09085C7.85227 5.72532 7.73201 6.26509 7.49148 6.71017C7.25284 7.15524 6.92708 7.4952 6.5142 7.73005C6.10322 7.96301 5.6411 8.07948 5.12784 8.07948C4.6108 8.07948 4.14678 7.96206 3.7358 7.72721C3.32481 7.49236 3 7.1524 2.76136 6.70733C2.52273 6.26225 2.40341 5.72342 2.40341 5.09085C2.40341 4.45638 2.52273 3.91661 2.76136 3.47153C3 3.02645 3.32481 2.68744 3.7358 2.45448C4.14678 2.21964 4.6108 2.10221 5.12784 2.10221C5.6411 2.10221 6.10322 2.21964 6.5142 2.45448C6.92708 2.68744 7.25284 3.02645 7.49148 3.47153C7.73201 3.91661 7.85227 4.45638 7.85227 5.09085ZM6.60511 5.09085C6.60511 4.67986 6.54356 4.33327 6.42045 4.05108C6.29924 3.76888 6.12784 3.55486 5.90625 3.40903C5.68466 3.2632 5.42519 3.19028 5.12784 3.19028C4.83049 3.19028 4.57102 3.2632 4.34943 3.40903C4.12784 3.55486 3.95549 3.76888 3.83239 4.05108C3.71117 4.33327 3.65057 4.67986 3.65057 5.09085C3.65057 5.50183 3.71117 5.84842 3.83239 6.13062C3.95549 6.41282 4.12784 6.62683 4.34943 6.77267C4.57102 6.9185 4.83049 6.99142 5.12784 6.99142C5.42519 6.99142 5.68466 6.9185 5.90625 6.77267C6.12784 6.62683 6.29924 6.41282 6.42045 6.13062C6.54356 5.84842 6.60511 5.50183 6.60511 5.09085Z" fill="white"/>
</g>
</g>
<defs>
<filter id="filter0_ddd_15202_105209" x="1.40234" y="1.10223" width="7.44922" height="9.97723" filterUnits="userSpaceOnUse" color-interpolation-filters="sRGB">
<feFlood flood-opacity="0" result="BackgroundImageFix"/>
<feColorMatrix in="SourceAlpha" type="matrix" values="0 0 0 0 0 0 0 0 0 0 0 0 0 0 0 0 0 0 127 0" result="hardAlpha"/>
<feOffset/>
<feGaussianBlur stdDeviation="0.5"/>
<feColorMatrix type="matrix" values="0 0 0 0 0 0 0 0 0 0 0 0 0 0 0 0 0 0 0.09 0"/>
<feBlend mode="normal" in2="BackgroundImageFix" result="effect1_dropShadow_15202_105209"/>
<feColorMatrix in="SourceAlpha" type="matrix" values="0 0 0 0 0 0 0 0 0 0 0 0 0 0 0 0 0 0 127 0" result="hardAlpha"/>
<feOffset dy="1"/>
<feGaussianBlur stdDeviation="0.5"/>
<feColorMatrix type="matrix" values="0 0 0 0 0 0 0 0 0 0 0 0 0 0 0 0 0 0 0.05 0"/>
<feBlend mode="normal" in2="effect1_dropShadow_15202_105209" result="effect2_dropShadow_15202_105209"/>
<feColorMatrix in="SourceAlpha" type="matrix" values="0 0 0 0 0 0 0 0 0 0 0 0 0 0 0 0 0 0 127 0" result="hardAlpha"/>
<feOffset dy="2"/>
<feGaussianBlur stdDeviation="0.5"/>
<feColorMatrix type="matrix" values="0 0 0 0 0 0 0 0 0 0 0 0 0 0 0 0 0 0 0.01 0"/>
<feBlend mode="normal" in2="effect2_dropShadow_15202_105209" result="effect3_dropShadow_15202_105209"/>
<feBlend mode="normal" in="SourceGraphic" in2="effect3_dropShadow_15202_105209" result="shape"/>
</filter>
<clipPath id="clip0_15202_105209">
<rect x="0.777344" y="0.777771" width="8.79" height="8.79" rx="1.25" fill="white"/>
</clipPath>
</defs>
</symbol><symbol id="plot-owner-2" viewBox="0 0 10 10">
<g clip-path="url(#clip0_15202_105179)">
<rect x="0.777344" y="0.777779" width="8.79" height="8.79" rx="1.25" fill="#B8EE68"/>
<path d="M7.85227 5.09086C7.85227 5.72533 7.73201 6.2651 7.49148 6.71017C7.25284 7.15525 6.92708 7.49521 6.5142 7.73006C6.10322 7.96301 5.6411 8.07949 5.12784 8.07949C4.6108 8.07949 4.14678 7.96207 3.7358 7.72722C3.32481 7.49237 3 7.15241 2.76136 6.70733C2.52273 6.26226 2.40341 5.72343 2.40341 5.09086C2.40341 4.45639 2.52273 3.91661 2.76136 3.47154C3 3.02646 3.32481 2.68745 3.7358 2.45449C4.14678 2.21964 4.6108 2.10222 5.12784 2.10222C5.6411 2.10222 6.10322 2.21964 6.5142 2.45449C6.92708 2.68745 7.25284 3.02646 7.49148 3.47154C7.73201 3.91661 7.85227 4.45639 7.85227 5.09086ZM6.60511 5.09086C6.60511 4.67987 6.54356 4.33328 6.42045 4.05108C6.29924 3.76889 6.12784 3.55487 5.90625 3.40904C5.68466 3.2632 5.42519 3.19029 5.12784 3.19029C4.83049 3.19029 4.57102 3.2632 4.34943 3.40904C4.12784 3.55487 3.95549 3.76889 3.83239 4.05108C3.71117 4.33328 3.65057 4.67987 3.65057 5.09086C3.65057 5.50184 3.71117 5.84843 3.83239 6.13063C3.95549 6.41283 4.12784 6.62684 4.34943 6.77267C4.57102 6.91851 4.83049 6.99142 5.12784 6.99142C5.42519 6.99142 5.68466 6.91851 5.90625 6.77267C6.12784 6.62684 6.29924 6.41283 6.42045 6.13063C6.54356 5.84843 6.60511 5.50184 6.60511 5.09086Z" fill="#313131"/>
</g>
<defs>
<clipPath id="clip0_15202_105179">
<rect x="0.777344" y="0.777779" width="8.79" height="8.79" rx="1.25" fill="white"/>
</clipPath>
</defs>
</symbol><symbol id="plot-owner-3" viewBox="0 0 10 10">
<g clip-path="url(#clip0_15202_105182)">
<rect x="0.777344" y="0.777771" width="8.79" height="8.79" rx="1.25" fill="#CFEE52"/>
<path d="M7.85227 5.09085C7.85227 5.72532 7.73201 6.26509 7.49148 6.71017C7.25284 7.15524 6.92708 7.4952 6.5142 7.73005C6.10322 7.96301 5.6411 8.07948 5.12784 8.07948C4.6108 8.07948 4.14678 7.96206 3.7358 7.72721C3.32481 7.49236 3 7.1524 2.76136 6.70733C2.52273 6.26225 2.40341 5.72342 2.40341 5.09085C2.40341 4.45638 2.52273 3.91661 2.76136 3.47153C3 3.02645 3.32481 2.68744 3.7358 2.45448C4.14678 2.21964 4.6108 2.10221 5.12784 2.10221C5.6411 2.10221 6.10322 2.21964 6.5142 2.45448C6.92708 2.68744 7.25284 3.02645 7.49148 3.47153C7.73201 3.91661 7.85227 4.45638 7.85227 5.09085ZM6.60511 5.09085C6.60511 4.67986 6.54356 4.33327 6.42045 4.05108C6.29924 3.76888 6.12784 3.55486 5.90625 3.40903C5.68466 3.2632 5.42519 3.19028 5.12784 3.19028C4.83049 3.19028 4.57102 3.2632 4.34943 3.40903C4.12784 3.55486 3.95549 3.76888 3.83239 4.05108C3.71117 4.33327 3.65057 4.67986 3.65057 5.09085C3.65057 5.50183 3.71117 5.84842 3.83239 6.13062C3.95549 6.41282 4.12784 6.62683 4.34943 6.77267C4.57102 6.9185 4.83049 6.99142 5.12784 6.99142C5.42519 6.99142 5.68466 6.9185 5.90625 6.77267C6.12784 6.62683 6.29924 6.41282 6.42045 6.13062C6.54356 5.84842 6.60511 5.50183 6.60511 5.09085Z" fill="#313131"/>
</g>
<defs>
<clipPath id="clip0_15202_105182">
<rect x="0.777344" y="0.777771" width="8.79" height="8.79" rx="1.25" fill="white"/>
</clipPath>
</defs>
</symbol><symbol id="plot-owner-4" viewBox="0 0 10 10">
<g clip-path="url(#clip0_15202_105176)">
<rect x="0.777344" y="0.777771" width="8.79" height="8.79" rx="1.25" fill="#E7EE3C"/>
<path d="M7.85227 5.09085C7.85227 5.72532 7.73201 6.26509 7.49148 6.71017C7.25284 7.15524 6.92708 7.4952 6.5142 7.73005C6.10322 7.96301 5.6411 8.07948 5.12784 8.07948C4.6108 8.07948 4.14678 7.96206 3.7358 7.72721C3.32481 7.49236 3 7.1524 2.76136 6.70733C2.52273 6.26225 2.40341 5.72342 2.40341 5.09085C2.40341 4.45638 2.52273 3.91661 2.76136 3.47153C3 3.02645 3.32481 2.68744 3.7358 2.45448C4.14678 2.21964 4.6108 2.10221 5.12784 2.10221C5.6411 2.10221 6.10322 2.21964 6.5142 2.45448C6.92708 2.68744 7.25284 3.02645 7.49148 3.47153C7.73201 3.91661 7.85227 4.45638 7.85227 5.09085ZM6.60511 5.09085C6.60511 4.67986 6.54356 4.33327 6.42045 4.05108C6.29924 3.76888 6.12784 3.55486 5.90625 3.40903C5.68466 3.2632 5.42519 3.19028 5.12784 3.19028C4.83049 3.19028 4.57102 3.2632 4.34943 3.40903C4.12784 3.55486 3.95549 3.76888 3.83239 4.05108C3.71117 4.33327 3.65057 4.67986 3.65057 5.09085C3.65057 5.50183 3.71117 5.84842 3.83239 6.13062C3.95549 6.41282 4.12784 6.62683 4.34943 6.77267C4.57102 6.9185 4.83049 6.99142 5.12784 6.99142C5.42519 6.99142 5.68466 6.9185 5.90625 6.77267C6.12784 6.62683 6.29924 6.41282 6.42045 6.13062C6.54356 5.84842 6.60511 5.50183 6.60511 5.09085Z" fill="#313131"/>
</g>
<defs>
<clipPath id="clip0_15202_105176">
<rect x="0.777344" y="0.777771" width="8.79" height="8.79" rx="1.25" fill="white"/>
</clipPath>
</defs>
</symbol><symbol id="plot-owner-5" viewBox="0 0 10 10">
<g clip-path="url(#clip0_15202_105188)">
<rect x="0.777344" y="0.777771" width="8.79" height="8.79" rx="1.25" fill="#FEEE24"/>
<path d="M7.85227 5.09085C7.85227 5.72532 7.73201 6.26509 7.49148 6.71017C7.25284 7.15524 6.92708 7.4952 6.5142 7.73005C6.10322 7.96301 5.6411 8.07948 5.12784 8.07948C4.6108 8.07948 4.14678 7.96206 3.7358 7.72721C3.32481 7.49236 3 7.1524 2.76136 6.70733C2.52273 6.26225 2.40341 5.72342 2.40341 5.09085C2.40341 4.45638 2.52273 3.91661 2.76136 3.47153C3 3.02645 3.32481 2.68744 3.7358 2.45448C4.14678 2.21964 4.6108 2.10221 5.12784 2.10221C5.6411 2.10221 6.10322 2.21964 6.5142 2.45448C6.92708 2.68744 7.25284 3.02645 7.49148 3.47153C7.73201 3.91661 7.85227 4.45638 7.85227 5.09085ZM6.60511 5.09085C6.60511 4.67986 6.54356 4.33327 6.42045 4.05108C6.29924 3.76888 6.12784 3.55486 5.90625 3.40903C5.68466 3.2632 5.42519 3.19028 5.12784 3.19028C4.83049 3.19028 4.57102 3.2632 4.34943 3.40903C4.12784 3.55486 3.95549 3.76888 3.83239 4.05108C3.71117 4.33327 3.65057 4.67986 3.65057 5.09085C3.65057 5.50183 3.71117 5.84842 3.83239 6.13062C3.95549 6.41282 4.12784 6.62683 4.34943 6.77267C4.57102 6.9185 4.83049 6.99142 5.12784 6.99142C5.42519 6.99142 5.68466 6.9185 5.90625 6.77267C6.12784 6.62683 6.29924 6.41282 6.42045 6.13062C6.54356 5.84842 6.60511 5.50183 6.60511 5.09085Z" fill="#313131"/>
</g>
<defs>
<clipPath id="clip0_15202_105188">
<rect x="0.777344" y="0.777771" width="8.79" height="8.79" rx="1.25" fill="white"/>
</clipPath>
</defs>
</symbol><symbol id="plot-owner-6" viewBox="0 0 10 10">
<g clip-path="url(#clip0_15202_105191)">
<rect x="0.777344" y="0.777771" width="8.79" height="8.79" rx="1.25" fill="#FEE123"/>
<path d="M7.85227 5.09085C7.85227 5.72532 7.73201 6.26509 7.49148 6.71017C7.25284 7.15524 6.92708 7.4952 6.5142 7.73005C6.10322 7.96301 5.6411 8.07948 5.12784 8.07948C4.6108 8.07948 4.14678 7.96206 3.7358 7.72721C3.32481 7.49236 3 7.1524 2.76136 6.70733C2.52273 6.26225 2.40341 5.72342 2.40341 5.09085C2.40341 4.45638 2.52273 3.91661 2.76136 3.47153C3 3.02645 3.32481 2.68744 3.7358 2.45448C4.14678 2.21964 4.6108 2.10221 5.12784 2.10221C5.6411 2.10221 6.10322 2.21964 6.5142 2.45448C6.92708 2.68744 7.25284 3.02645 7.49148 3.47153C7.73201 3.91661 7.85227 4.45638 7.85227 5.09085ZM6.60511 5.09085C6.60511 4.67986 6.54356 4.33327 6.42045 4.05108C6.29924 3.76888 6.12784 3.55486 5.90625 3.40903C5.68466 3.2632 5.42519 3.19028 5.12784 3.19028C4.83049 3.19028 4.57102 3.2632 4.34943 3.40903C4.12784 3.55486 3.95549 3.76888 3.83239 4.05108C3.71117 4.33327 3.65057 4.67986 3.65057 5.09085C3.65057 5.50183 3.71117 5.84842 3.83239 6.13062C3.95549 6.41282 4.12784 6.62683 4.34943 6.77267C4.57102 6.9185 4.83049 6.99142 5.12784 6.99142C5.42519 6.99142 5.68466 6.9185 5.90625 6.77267C6.12784 6.62683 6.29924 6.41282 6.42045 6.13062C6.54356 5.84842 6.60511 5.50183 6.60511 5.09085Z" fill="#313131"/>
</g>
<defs>
<clipPath id="clip0_15202_105191">
<rect x="0.777344" y="0.777771" width="8.79" height="8.79" rx="1.25" fill="white"/>
</clipPath>
</defs>
</symbol><symbol id="plot-owner-7" viewBox="0 0 10 10">
<g clip-path="url(#clip0_15202_105194)">
<rect x="0.777344" y="0.777771" width="8.79" height="8.79" rx="1.25" fill="#FED324"/>
<path d="M7.85227 5.09085C7.85227 5.72532 7.73201 6.26509 7.49148 6.71017C7.25284 7.15524 6.92708 7.4952 6.5142 7.73005C6.10322 7.96301 5.6411 8.07948 5.12784 8.07948C4.6108 8.07948 4.14678 7.96206 3.7358 7.72721C3.32481 7.49236 3 7.1524 2.76136 6.70733C2.52273 6.26225 2.40341 5.72342 2.40341 5.09085C2.40341 4.45638 2.52273 3.91661 2.76136 3.47153C3 3.02645 3.32481 2.68744 3.7358 2.45448C4.14678 2.21964 4.6108 2.10221 5.12784 2.10221C5.6411 2.10221 6.10322 2.21964 6.5142 2.45448C6.92708 2.68744 7.25284 3.02645 7.49148 3.47153C7.73201 3.91661 7.85227 4.45638 7.85227 5.09085ZM6.60511 5.09085C6.60511 4.67986 6.54356 4.33327 6.42045 4.05108C6.29924 3.76888 6.12784 3.55486 5.90625 3.40903C5.68466 3.2632 5.42519 3.19028 5.12784 3.19028C4.83049 3.19028 4.57102 3.2632 4.34943 3.40903C4.12784 3.55486 3.95549 3.76888 3.83239 4.05108C3.71117 4.33327 3.65057 4.67986 3.65057 5.09085C3.65057 5.50183 3.71117 5.84842 3.83239 6.13062C3.95549 6.41282 4.12784 6.62683 4.34943 6.77267C4.57102 6.9185 4.83049 6.99142 5.12784 6.99142C5.42519 6.99142 5.68466 6.9185 5.90625 6.77267C6.12784 6.62683 6.29924 6.41282 6.42045 6.13062C6.54356 5.84842 6.60511 5.50183 6.60511 5.09085Z" fill="#313131"/>
</g>
<defs>
<clipPath id="clip0_15202_105194">
<rect x="0.777344" y="0.777771" width="8.79" height="8.79" rx="1.25" fill="white"/>
</clipPath>
</defs>
</symbol><symbol id="plot-owner-8" viewBox="0 0 10 10">
<g clip-path="url(#clip0_15202_105197)">
<rect x="0.777344" y="0.777771" width="8.79" height="8.79" rx="1.25" fill="#FEB721"/>
<path d="M7.85227 5.09085C7.85227 5.72532 7.73201 6.26509 7.49148 6.71017C7.25284 7.15524 6.92708 7.4952 6.5142 7.73005C6.10322 7.96301 5.6411 8.07948 5.12784 8.07948C4.6108 8.07948 4.14678 7.96206 3.7358 7.72721C3.32481 7.49236 3 7.1524 2.76136 6.70733C2.52273 6.26225 2.40341 5.72342 2.40341 5.09085C2.40341 4.45638 2.52273 3.91661 2.76136 3.47153C3 3.02645 3.32481 2.68744 3.7358 2.45448C4.14678 2.21964 4.6108 2.10221 5.12784 2.10221C5.6411 2.10221 6.10322 2.21964 6.5142 2.45448C6.92708 2.68744 7.25284 3.02645 7.49148 3.47153C7.73201 3.91661 7.85227 4.45638 7.85227 5.09085ZM6.60511 5.09085C6.60511 4.67986 6.54356 4.33327 6.42045 4.05108C6.29924 3.76888 6.12784 3.55486 5.90625 3.40903C5.68466 3.2632 5.42519 3.19028 5.12784 3.19028C4.83049 3.19028 4.57102 3.2632 4.34943 3.40903C4.12784 3.55486 3.95549 3.76888 3.83239 4.05108C3.71117 4.33327 3.65057 4.67986 3.65057 5.09085C3.65057 5.50183 3.71117 5.84842 3.83239 6.13062C3.95549 6.41282 4.12784 6.62683 4.34943 6.77267C4.57102 6.9185 4.83049 6.99142 5.12784 6.99142C5.42519 6.99142 5.68466 6.9185 5.90625 6.77267C6.12784 6.62683 6.29924 6.41282 6.42045 6.13062C6.54356 5.84842 6.60511 5.50183 6.60511 5.09085Z" fill="#313131"/>
</g>
<defs>
<clipPath id="clip0_15202_105197">
<rect x="0.777344" y="0.777771" width="8.79" height="8.79" rx="1.25" fill="white"/>
</clipPath>
</defs>
</symbol><symbol id="plot-owner-9" viewBox="0 0 10 10">
<g clip-path="url(#clip0_15202_105200)">
<rect x="0.777344" y="0.777771" width="8.79" height="8.79" rx="1.25" fill="#FC9A28"/>
<g filter="url(#filter0_ddd_15202_105200)">
<path d="M7.85227 5.09085C7.85227 5.72532 7.73201 6.26509 7.49148 6.71017C7.25284 7.15524 6.92708 7.4952 6.5142 7.73005C6.10322 7.96301 5.6411 8.07948 5.12784 8.07948C4.6108 8.07948 4.14678 7.96206 3.7358 7.72721C3.32481 7.49236 3 7.1524 2.76136 6.70733C2.52273 6.26225 2.40341 5.72342 2.40341 5.09085C2.40341 4.45638 2.52273 3.91661 2.76136 3.47153C3 3.02645 3.32481 2.68744 3.7358 2.45448C4.14678 2.21964 4.6108 2.10221 5.12784 2.10221C5.6411 2.10221 6.10322 2.21964 6.5142 2.45448C6.92708 2.68744 7.25284 3.02645 7.49148 3.47153C7.73201 3.91661 7.85227 4.45638 7.85227 5.09085ZM6.60511 5.09085C6.60511 4.67986 6.54356 4.33327 6.42045 4.05108C6.29924 3.76888 6.12784 3.55486 5.90625 3.40903C5.68466 3.2632 5.42519 3.19028 5.12784 3.19028C4.83049 3.19028 4.57102 3.2632 4.34943 3.40903C4.12784 3.55486 3.95549 3.76888 3.83239 4.05108C3.71117 4.33327 3.65057 4.67986 3.65057 5.09085C3.65057 5.50183 3.71117 5.84842 3.83239 6.13062C3.95549 6.41282 4.12784 6.62683 4.34943 6.77267C4.57102 6.9185 4.83049 6.99142 5.12784 6.99142C5.42519 6.99142 5.68466 6.9185 5.90625 6.77267C6.12784 6.62683 6.29924 6.41282 6.42045 6.13062C6.54356 5.84842 6.60511 5.50183 6.60511 5.09085Z" fill="white"/>
</g>
</g>
<defs>
<filter id="filter0_ddd_15202_105200" x="1.40234" y="1.1022" width="7.44922" height="9.97729" filterUnits="userSpaceOnUse" color-interpolation-filters="sRGB">
<feFlood flood-opacity="0" result="BackgroundImageFix"/>
<feColorMatrix in="SourceAlpha" type="matrix" values="0 0 0 0 0 0 0 0 0 0 0 0 0 0 0 0 0 0 127 0" result="hardAlpha"/>
<feOffset/>
<feGaussianBlur stdDeviation="0.5"/>
<feColorMatrix type="matrix" values="0 0 0 0 0 0 0 0 0 0 0 0 0 0 0 0 0 0 0.09 0"/>
<feBlend mode="normal" in2="BackgroundImageFix" result="effect1_dropShadow_15202_105200"/>
<feColorMatrix in="SourceAlpha" type="matrix" values="0 0 0 0 0 0 0 0 0 0 0 0 0 0 0 0 0 0 127 0" result="hardAlpha"/>
<feOffset dy="1"/>
<feGaussianBlur stdDeviation="0.5"/>
<feColorMatrix type="matrix" values="0 0 0 0 0 0 0 0 0 0 0 0 0 0 0 0 0 0 0.05 0"/>
<feBlend mode="normal" in2="effect1_dropShadow_15202_105200" result="effect2_dropShadow_15202_105200"/>
<feColorMatrix in="SourceAlpha" type="matrix" values="0 0 0 0 0 0 0 0 0 0 0 0 0 0 0 0 0 0 127 0" result="hardAlpha"/>
<feOffset dy="2"/>
<feGaussianBlur stdDeviation="0.5"/>
<feColorMatrix type="matrix" values="0 0 0 0 0 0 0 0 0 0 0 0 0 0 0 0 0 0 0.01 0"/>
<feBlend mode="normal" in2="effect2_dropShadow_15202_105200" result="effect3_dropShadow_15202_105200"/>
<feBlend mode="normal" in="SourceGraphic" in2="effect3_dropShadow_15202_105200" result="shape"/>
</filter>
<clipPath id="clip0_15202_105200">
<rect x="0.777344" y="0.777771" width="8.79" height="8.79" rx="1.25" fill="white"/>
</clipPath>
</defs>
</symbol></svg>