<svg xmlns="http://www.w3.org/2000/svg"><symbol id="plot-development-1" viewBox="0 0 14 14">
<rect x="0.777344" y="0.777344" width="12.4444" height="12.4444" rx="2" fill="#A0EE7E"/>
<g filter="url(#filter0_ddd_13337_15950)">
<path d="M6.94562 10H4.88312V4.18182H6.96267C7.5479 4.18182 8.05168 4.2983 8.47403 4.53125C8.89638 4.76231 9.22119 5.0947 9.44846 5.52841C9.67763 5.96212 9.79221 6.48106 9.79221 7.08523C9.79221 7.69129 9.67763 8.21212 9.44846 8.64773C9.22119 9.08333 8.89449 9.41761 8.46835 9.65057C8.04411 9.88352 7.53653 10 6.94562 10ZM6.11324 8.94602H6.89449C7.25812 8.94602 7.56399 8.88163 7.8121 8.75284C8.0621 8.62216 8.2496 8.42045 8.3746 8.14773C8.50149 7.87311 8.56494 7.51894 8.56494 7.08523C8.56494 6.6553 8.50149 6.30398 8.3746 6.03125C8.2496 5.75852 8.06305 5.55777 7.81494 5.42898C7.56684 5.30019 7.26096 5.2358 6.89733 5.2358H6.11324V8.94602Z" fill="#313131"/>
</g>
<defs>
<filter id="filter0_ddd_13337_15950" x="3.8833" y="3.18164" width="6.90869" height="9.81836" filterUnits="userSpaceOnUse" color-interpolation-filters="sRGB">
<feFlood flood-opacity="0" result="BackgroundImageFix"/>
<feColorMatrix in="SourceAlpha" type="matrix" values="0 0 0 0 0 0 0 0 0 0 0 0 0 0 0 0 0 0 127 0" result="hardAlpha"/>
<feOffset/>
<feGaussianBlur stdDeviation="0.5"/>
<feColorMatrix type="matrix" values="0 0 0 0 0 0 0 0 0 0 0 0 0 0 0 0 0 0 0.09 0"/>
<feBlend mode="normal" in2="BackgroundImageFix" result="effect1_dropShadow_13337_15950"/>
<feColorMatrix in="SourceAlpha" type="matrix" values="0 0 0 0 0 0 0 0 0 0 0 0 0 0 0 0 0 0 127 0" result="hardAlpha"/>
<feOffset dy="1"/>
<feGaussianBlur stdDeviation="0.5"/>
<feColorMatrix type="matrix" values="0 0 0 0 0 0 0 0 0 0 0 0 0 0 0 0 0 0 0.05 0"/>
<feBlend mode="normal" in2="effect1_dropShadow_13337_15950" result="effect2_dropShadow_13337_15950"/>
<feColorMatrix in="SourceAlpha" type="matrix" values="0 0 0 0 0 0 0 0 0 0 0 0 0 0 0 0 0 0 127 0" result="hardAlpha"/>
<feOffset dy="2"/>
<feGaussianBlur stdDeviation="0.5"/>
<feColorMatrix type="matrix" values="0 0 0 0 0 0 0 0 0 0 0 0 0 0 0 0 0 0 0.01 0"/>
<feBlend mode="normal" in2="effect2_dropShadow_13337_15950" result="effect3_dropShadow_13337_15950"/>
<feBlend mode="normal" in="SourceGraphic" in2="effect3_dropShadow_13337_15950" result="shape"/>
</filter>
</defs>
</symbol><symbol id="plot-development-10" viewBox="0 0 14 14">
<rect x="0.777344" y="0.777344" width="12.4444" height="12.4444" rx="2" fill="#F77E2F"/>
<g filter="url(#filter0_ddd_13337_15950)">
<path d="M6.94562 10H4.88312V4.18182H6.96267C7.5479 4.18182 8.05168 4.2983 8.47403 4.53125C8.89638 4.76231 9.22119 5.0947 9.44846 5.52841C9.67763 5.96212 9.79221 6.48106 9.79221 7.08523C9.79221 7.69129 9.67763 8.21212 9.44846 8.64773C9.22119 9.08333 8.89449 9.41761 8.46835 9.65057C8.04411 9.88352 7.53653 10 6.94562 10ZM6.11324 8.94602H6.89449C7.25812 8.94602 7.56399 8.88163 7.8121 8.75284C8.0621 8.62216 8.2496 8.42045 8.3746 8.14773C8.50149 7.87311 8.56494 7.51894 8.56494 7.08523C8.56494 6.6553 8.50149 6.30398 8.3746 6.03125C8.2496 5.75852 8.06305 5.55777 7.81494 5.42898C7.56684 5.30019 7.26096 5.2358 6.89733 5.2358H6.11324V8.94602Z" fill="#FFFFFF"/>
</g>
<defs>
<filter id="filter0_ddd_13337_15950" x="3.8833" y="3.18164" width="6.90869" height="9.81836" filterUnits="userSpaceOnUse" color-interpolation-filters="sRGB">
<feFlood flood-opacity="0" result="BackgroundImageFix"/>
<feColorMatrix in="SourceAlpha" type="matrix" values="0 0 0 0 0 0 0 0 0 0 0 0 0 0 0 0 0 0 127 0" result="hardAlpha"/>
<feOffset/>
<feGaussianBlur stdDeviation="0.5"/>
<feColorMatrix type="matrix" values="0 0 0 0 0 0 0 0 0 0 0 0 0 0 0 0 0 0 0.09 0"/>
<feBlend mode="normal" in2="BackgroundImageFix" result="effect1_dropShadow_13337_15950"/>
<feColorMatrix in="SourceAlpha" type="matrix" values="0 0 0 0 0 0 0 0 0 0 0 0 0 0 0 0 0 0 127 0" result="hardAlpha"/>
<feOffset dy="1"/>
<feGaussianBlur stdDeviation="0.5"/>
<feColorMatrix type="matrix" values="0 0 0 0 0 0 0 0 0 0 0 0 0 0 0 0 0 0 0.05 0"/>
<feBlend mode="normal" in2="effect1_dropShadow_13337_15950" result="effect2_dropShadow_13337_15950"/>
<feColorMatrix in="SourceAlpha" type="matrix" values="0 0 0 0 0 0 0 0 0 0 0 0 0 0 0 0 0 0 127 0" result="hardAlpha"/>
<feOffset dy="2"/>
<feGaussianBlur stdDeviation="0.5"/>
<feColorMatrix type="matrix" values="0 0 0 0 0 0 0 0 0 0 0 0 0 0 0 0 0 0 0.01 0"/>
<feBlend mode="normal" in2="effect2_dropShadow_13337_15950" result="effect3_dropShadow_13337_15950"/>
<feBlend mode="normal" in="SourceGraphic" in2="effect3_dropShadow_13337_15950" result="shape"/>
</filter>
</defs>
</symbol><symbol id="plot-development-11" viewBox="0 0 14 14">
<rect x="0.777344" y="0.777344" width="12.4444" height="12.4444" rx="2" fill="#F46236"/>
<g filter="url(#filter0_ddd_13337_15950)">
<path d="M6.94562 10H4.88312V4.18182H6.96267C7.5479 4.18182 8.05168 4.2983 8.47403 4.53125C8.89638 4.76231 9.22119 5.0947 9.44846 5.52841C9.67763 5.96212 9.79221 6.48106 9.79221 7.08523C9.79221 7.69129 9.67763 8.21212 9.44846 8.64773C9.22119 9.08333 8.89449 9.41761 8.46835 9.65057C8.04411 9.88352 7.53653 10 6.94562 10ZM6.11324 8.94602H6.89449C7.25812 8.94602 7.56399 8.88163 7.8121 8.75284C8.0621 8.62216 8.2496 8.42045 8.3746 8.14773C8.50149 7.87311 8.56494 7.51894 8.56494 7.08523C8.56494 6.6553 8.50149 6.30398 8.3746 6.03125C8.2496 5.75852 8.06305 5.55777 7.81494 5.42898C7.56684 5.30019 7.26096 5.2358 6.89733 5.2358H6.11324V8.94602Z" fill="#FFFFFF"/>
</g>
<defs>
<filter id="filter0_ddd_13337_15950" x="3.8833" y="3.18164" width="6.90869" height="9.81836" filterUnits="userSpaceOnUse" color-interpolation-filters="sRGB">
<feFlood flood-opacity="0" result="BackgroundImageFix"/>
<feColorMatrix in="SourceAlpha" type="matrix" values="0 0 0 0 0 0 0 0 0 0 0 0 0 0 0 0 0 0 127 0" result="hardAlpha"/>
<feOffset/>
<feGaussianBlur stdDeviation="0.5"/>
<feColorMatrix type="matrix" values="0 0 0 0 0 0 0 0 0 0 0 0 0 0 0 0 0 0 0.09 0"/>
<feBlend mode="normal" in2="BackgroundImageFix" result="effect1_dropShadow_13337_15950"/>
<feColorMatrix in="SourceAlpha" type="matrix" values="0 0 0 0 0 0 0 0 0 0 0 0 0 0 0 0 0 0 127 0" result="hardAlpha"/>
<feOffset dy="1"/>
<feGaussianBlur stdDeviation="0.5"/>
<feColorMatrix type="matrix" values="0 0 0 0 0 0 0 0 0 0 0 0 0 0 0 0 0 0 0.05 0"/>
<feBlend mode="normal" in2="effect1_dropShadow_13337_15950" result="effect2_dropShadow_13337_15950"/>
<feColorMatrix in="SourceAlpha" type="matrix" values="0 0 0 0 0 0 0 0 0 0 0 0 0 0 0 0 0 0 127 0" result="hardAlpha"/>
<feOffset dy="2"/>
<feGaussianBlur stdDeviation="0.5"/>
<feColorMatrix type="matrix" values="0 0 0 0 0 0 0 0 0 0 0 0 0 0 0 0 0 0 0.01 0"/>
<feBlend mode="normal" in2="effect2_dropShadow_13337_15950" result="effect3_dropShadow_13337_15950"/>
<feBlend mode="normal" in="SourceGraphic" in2="effect3_dropShadow_13337_15950" result="shape"/>
</filter>
</defs>
</symbol><symbol id="plot-development-12" viewBox="0 0 14 14">
<rect x="0.777344" y="0.777344" width="12.4444" height="12.4444" rx="2" fill="#F0453D"/>
<g filter="url(#filter0_ddd_13337_15950)">
<path d="M6.94562 10H4.88312V4.18182H6.96267C7.5479 4.18182 8.05168 4.2983 8.47403 4.53125C8.89638 4.76231 9.22119 5.0947 9.44846 5.52841C9.67763 5.96212 9.79221 6.48106 9.79221 7.08523C9.79221 7.69129 9.67763 8.21212 9.44846 8.64773C9.22119 9.08333 8.89449 9.41761 8.46835 9.65057C8.04411 9.88352 7.53653 10 6.94562 10ZM6.11324 8.94602H6.89449C7.25812 8.94602 7.56399 8.88163 7.8121 8.75284C8.0621 8.62216 8.2496 8.42045 8.3746 8.14773C8.50149 7.87311 8.56494 7.51894 8.56494 7.08523C8.56494 6.6553 8.50149 6.30398 8.3746 6.03125C8.2496 5.75852 8.06305 5.55777 7.81494 5.42898C7.56684 5.30019 7.26096 5.2358 6.89733 5.2358H6.11324V8.94602Z" fill="#FFFFFF"/>
</g>
<defs>
<filter id="filter0_ddd_13337_15950" x="3.8833" y="3.18164" width="6.90869" height="9.81836" filterUnits="userSpaceOnUse" color-interpolation-filters="sRGB">
<feFlood flood-opacity="0" result="BackgroundImageFix"/>
<feColorMatrix in="SourceAlpha" type="matrix" values="0 0 0 0 0 0 0 0 0 0 0 0 0 0 0 0 0 0 127 0" result="hardAlpha"/>
<feOffset/>
<feGaussianBlur stdDeviation="0.5"/>
<feColorMatrix type="matrix" values="0 0 0 0 0 0 0 0 0 0 0 0 0 0 0 0 0 0 0.09 0"/>
<feBlend mode="normal" in2="BackgroundImageFix" result="effect1_dropShadow_13337_15950"/>
<feColorMatrix in="SourceAlpha" type="matrix" values="0 0 0 0 0 0 0 0 0 0 0 0 0 0 0 0 0 0 127 0" result="hardAlpha"/>
<feOffset dy="1"/>
<feGaussianBlur stdDeviation="0.5"/>
<feColorMatrix type="matrix" values="0 0 0 0 0 0 0 0 0 0 0 0 0 0 0 0 0 0 0.05 0"/>
<feBlend mode="normal" in2="effect1_dropShadow_13337_15950" result="effect2_dropShadow_13337_15950"/>
<feColorMatrix in="SourceAlpha" type="matrix" values="0 0 0 0 0 0 0 0 0 0 0 0 0 0 0 0 0 0 127 0" result="hardAlpha"/>
<feOffset dy="2"/>
<feGaussianBlur stdDeviation="0.5"/>
<feColorMatrix type="matrix" values="0 0 0 0 0 0 0 0 0 0 0 0 0 0 0 0 0 0 0.01 0"/>
<feBlend mode="normal" in2="effect2_dropShadow_13337_15950" result="effect3_dropShadow_13337_15950"/>
<feBlend mode="normal" in="SourceGraphic" in2="effect3_dropShadow_13337_15950" result="shape"/>
</filter>
</defs>
</symbol><symbol id="plot-development-2" viewBox="0 0 14 14">
<rect x="0.777344" y="0.777344" width="12.4444" height="12.4444" rx="2" fill="#B8EE68"/>
<g filter="url(#filter0_ddd_13337_15950)">
<path d="M6.94562 10H4.88312V4.18182H6.96267C7.5479 4.18182 8.05168 4.2983 8.47403 4.53125C8.89638 4.76231 9.22119 5.0947 9.44846 5.52841C9.67763 5.96212 9.79221 6.48106 9.79221 7.08523C9.79221 7.69129 9.67763 8.21212 9.44846 8.64773C9.22119 9.08333 8.89449 9.41761 8.46835 9.65057C8.04411 9.88352 7.53653 10 6.94562 10ZM6.11324 8.94602H6.89449C7.25812 8.94602 7.56399 8.88163 7.8121 8.75284C8.0621 8.62216 8.2496 8.42045 8.3746 8.14773C8.50149 7.87311 8.56494 7.51894 8.56494 7.08523C8.56494 6.6553 8.50149 6.30398 8.3746 6.03125C8.2496 5.75852 8.06305 5.55777 7.81494 5.42898C7.56684 5.30019 7.26096 5.2358 6.89733 5.2358H6.11324V8.94602Z" fill="#313131"/>
</g>
<defs>
<filter id="filter0_ddd_13337_15950" x="3.8833" y="3.18164" width="6.90869" height="9.81836" filterUnits="userSpaceOnUse" color-interpolation-filters="sRGB">
<feFlood flood-opacity="0" result="BackgroundImageFix"/>
<feColorMatrix in="SourceAlpha" type="matrix" values="0 0 0 0 0 0 0 0 0 0 0 0 0 0 0 0 0 0 127 0" result="hardAlpha"/>
<feOffset/>
<feGaussianBlur stdDeviation="0.5"/>
<feColorMatrix type="matrix" values="0 0 0 0 0 0 0 0 0 0 0 0 0 0 0 0 0 0 0.09 0"/>
<feBlend mode="normal" in2="BackgroundImageFix" result="effect1_dropShadow_13337_15950"/>
<feColorMatrix in="SourceAlpha" type="matrix" values="0 0 0 0 0 0 0 0 0 0 0 0 0 0 0 0 0 0 127 0" result="hardAlpha"/>
<feOffset dy="1"/>
<feGaussianBlur stdDeviation="0.5"/>
<feColorMatrix type="matrix" values="0 0 0 0 0 0 0 0 0 0 0 0 0 0 0 0 0 0 0.05 0"/>
<feBlend mode="normal" in2="effect1_dropShadow_13337_15950" result="effect2_dropShadow_13337_15950"/>
<feColorMatrix in="SourceAlpha" type="matrix" values="0 0 0 0 0 0 0 0 0 0 0 0 0 0 0 0 0 0 127 0" result="hardAlpha"/>
<feOffset dy="2"/>
<feGaussianBlur stdDeviation="0.5"/>
<feColorMatrix type="matrix" values="0 0 0 0 0 0 0 0 0 0 0 0 0 0 0 0 0 0 0.01 0"/>
<feBlend mode="normal" in2="effect2_dropShadow_13337_15950" result="effect3_dropShadow_13337_15950"/>
<feBlend mode="normal" in="SourceGraphic" in2="effect3_dropShadow_13337_15950" result="shape"/>
</filter>
</defs>
</symbol><symbol id="plot-development-3" viewBox="0 0 14 14">
<rect x="0.777344" y="0.777344" width="12.4444" height="12.4444" rx="2" fill="#CFEE52"/>
<g filter="url(#filter0_ddd_13337_15950)">
<path d="M6.94562 10H4.88312V4.18182H6.96267C7.5479 4.18182 8.05168 4.2983 8.47403 4.53125C8.89638 4.76231 9.22119 5.0947 9.44846 5.52841C9.67763 5.96212 9.79221 6.48106 9.79221 7.08523C9.79221 7.69129 9.67763 8.21212 9.44846 8.64773C9.22119 9.08333 8.89449 9.41761 8.46835 9.65057C8.04411 9.88352 7.53653 10 6.94562 10ZM6.11324 8.94602H6.89449C7.25812 8.94602 7.56399 8.88163 7.8121 8.75284C8.0621 8.62216 8.2496 8.42045 8.3746 8.14773C8.50149 7.87311 8.56494 7.51894 8.56494 7.08523C8.56494 6.6553 8.50149 6.30398 8.3746 6.03125C8.2496 5.75852 8.06305 5.55777 7.81494 5.42898C7.56684 5.30019 7.26096 5.2358 6.89733 5.2358H6.11324V8.94602Z" fill="#313131"/>
</g>
<defs>
<filter id="filter0_ddd_13337_15950" x="3.8833" y="3.18164" width="6.90869" height="9.81836" filterUnits="userSpaceOnUse" color-interpolation-filters="sRGB">
<feFlood flood-opacity="0" result="BackgroundImageFix"/>
<feColorMatrix in="SourceAlpha" type="matrix" values="0 0 0 0 0 0 0 0 0 0 0 0 0 0 0 0 0 0 127 0" result="hardAlpha"/>
<feOffset/>
<feGaussianBlur stdDeviation="0.5"/>
<feColorMatrix type="matrix" values="0 0 0 0 0 0 0 0 0 0 0 0 0 0 0 0 0 0 0.09 0"/>
<feBlend mode="normal" in2="BackgroundImageFix" result="effect1_dropShadow_13337_15950"/>
<feColorMatrix in="SourceAlpha" type="matrix" values="0 0 0 0 0 0 0 0 0 0 0 0 0 0 0 0 0 0 127 0" result="hardAlpha"/>
<feOffset dy="1"/>
<feGaussianBlur stdDeviation="0.5"/>
<feColorMatrix type="matrix" values="0 0 0 0 0 0 0 0 0 0 0 0 0 0 0 0 0 0 0.05 0"/>
<feBlend mode="normal" in2="effect1_dropShadow_13337_15950" result="effect2_dropShadow_13337_15950"/>
<feColorMatrix in="SourceAlpha" type="matrix" values="0 0 0 0 0 0 0 0 0 0 0 0 0 0 0 0 0 0 127 0" result="hardAlpha"/>
<feOffset dy="2"/>
<feGaussianBlur stdDeviation="0.5"/>
<feColorMatrix type="matrix" values="0 0 0 0 0 0 0 0 0 0 0 0 0 0 0 0 0 0 0.01 0"/>
<feBlend mode="normal" in2="effect2_dropShadow_13337_15950" result="effect3_dropShadow_13337_15950"/>
<feBlend mode="normal" in="SourceGraphic" in2="effect3_dropShadow_13337_15950" result="shape"/>
</filter>
</defs>
</symbol><symbol id="plot-development-4" viewBox="0 0 14 14">
<rect x="0.777344" y="0.777344" width="12.4444" height="12.4444" rx="2" fill="#E7EE3C"/>
<g filter="url(#filter0_ddd_13337_15950)">
<path d="M6.94562 10H4.88312V4.18182H6.96267C7.5479 4.18182 8.05168 4.2983 8.47403 4.53125C8.89638 4.76231 9.22119 5.0947 9.44846 5.52841C9.67763 5.96212 9.79221 6.48106 9.79221 7.08523C9.79221 7.69129 9.67763 8.21212 9.44846 8.64773C9.22119 9.08333 8.89449 9.41761 8.46835 9.65057C8.04411 9.88352 7.53653 10 6.94562 10ZM6.11324 8.94602H6.89449C7.25812 8.94602 7.56399 8.88163 7.8121 8.75284C8.0621 8.62216 8.2496 8.42045 8.3746 8.14773C8.50149 7.87311 8.56494 7.51894 8.56494 7.08523C8.56494 6.6553 8.50149 6.30398 8.3746 6.03125C8.2496 5.75852 8.06305 5.55777 7.81494 5.42898C7.56684 5.30019 7.26096 5.2358 6.89733 5.2358H6.11324V8.94602Z" fill="#313131"/>
</g>
<defs>
<filter id="filter0_ddd_13337_15950" x="3.8833" y="3.18164" width="6.90869" height="9.81836" filterUnits="userSpaceOnUse" color-interpolation-filters="sRGB">
<feFlood flood-opacity="0" result="BackgroundImageFix"/>
<feColorMatrix in="SourceAlpha" type="matrix" values="0 0 0 0 0 0 0 0 0 0 0 0 0 0 0 0 0 0 127 0" result="hardAlpha"/>
<feOffset/>
<feGaussianBlur stdDeviation="0.5"/>
<feColorMatrix type="matrix" values="0 0 0 0 0 0 0 0 0 0 0 0 0 0 0 0 0 0 0.09 0"/>
<feBlend mode="normal" in2="BackgroundImageFix" result="effect1_dropShadow_13337_15950"/>
<feColorMatrix in="SourceAlpha" type="matrix" values="0 0 0 0 0 0 0 0 0 0 0 0 0 0 0 0 0 0 127 0" result="hardAlpha"/>
<feOffset dy="1"/>
<feGaussianBlur stdDeviation="0.5"/>
<feColorMatrix type="matrix" values="0 0 0 0 0 0 0 0 0 0 0 0 0 0 0 0 0 0 0.05 0"/>
<feBlend mode="normal" in2="effect1_dropShadow_13337_15950" result="effect2_dropShadow_13337_15950"/>
<feColorMatrix in="SourceAlpha" type="matrix" values="0 0 0 0 0 0 0 0 0 0 0 0 0 0 0 0 0 0 127 0" result="hardAlpha"/>
<feOffset dy="2"/>
<feGaussianBlur stdDeviation="0.5"/>
<feColorMatrix type="matrix" values="0 0 0 0 0 0 0 0 0 0 0 0 0 0 0 0 0 0 0.01 0"/>
<feBlend mode="normal" in2="effect2_dropShadow_13337_15950" result="effect3_dropShadow_13337_15950"/>
<feBlend mode="normal" in="SourceGraphic" in2="effect3_dropShadow_13337_15950" result="shape"/>
</filter>
</defs>
</symbol><symbol id="plot-development-5" viewBox="0 0 14 14">
<rect x="0.777344" y="0.777344" width="12.4444" height="12.4444" rx="2" fill="#FEEE25"/>
<g filter="url(#filter0_ddd_13337_15950)">
<path d="M6.94562 10H4.88312V4.18182H6.96267C7.5479 4.18182 8.05168 4.2983 8.47403 4.53125C8.89638 4.76231 9.22119 5.0947 9.44846 5.52841C9.67763 5.96212 9.79221 6.48106 9.79221 7.08523C9.79221 7.69129 9.67763 8.21212 9.44846 8.64773C9.22119 9.08333 8.89449 9.41761 8.46835 9.65057C8.04411 9.88352 7.53653 10 6.94562 10ZM6.11324 8.94602H6.89449C7.25812 8.94602 7.56399 8.88163 7.8121 8.75284C8.0621 8.62216 8.2496 8.42045 8.3746 8.14773C8.50149 7.87311 8.56494 7.51894 8.56494 7.08523C8.56494 6.6553 8.50149 6.30398 8.3746 6.03125C8.2496 5.75852 8.06305 5.55777 7.81494 5.42898C7.56684 5.30019 7.26096 5.2358 6.89733 5.2358H6.11324V8.94602Z" fill="#313131"/>
</g>
<defs>
<filter id="filter0_ddd_13337_15950" x="3.8833" y="3.18164" width="6.90869" height="9.81836" filterUnits="userSpaceOnUse" color-interpolation-filters="sRGB">
<feFlood flood-opacity="0" result="BackgroundImageFix"/>
<feColorMatrix in="SourceAlpha" type="matrix" values="0 0 0 0 0 0 0 0 0 0 0 0 0 0 0 0 0 0 127 0" result="hardAlpha"/>
<feOffset/>
<feGaussianBlur stdDeviation="0.5"/>
<feColorMatrix type="matrix" values="0 0 0 0 0 0 0 0 0 0 0 0 0 0 0 0 0 0 0.09 0"/>
<feBlend mode="normal" in2="BackgroundImageFix" result="effect1_dropShadow_13337_15950"/>
<feColorMatrix in="SourceAlpha" type="matrix" values="0 0 0 0 0 0 0 0 0 0 0 0 0 0 0 0 0 0 127 0" result="hardAlpha"/>
<feOffset dy="1"/>
<feGaussianBlur stdDeviation="0.5"/>
<feColorMatrix type="matrix" values="0 0 0 0 0 0 0 0 0 0 0 0 0 0 0 0 0 0 0.05 0"/>
<feBlend mode="normal" in2="effect1_dropShadow_13337_15950" result="effect2_dropShadow_13337_15950"/>
<feColorMatrix in="SourceAlpha" type="matrix" values="0 0 0 0 0 0 0 0 0 0 0 0 0 0 0 0 0 0 127 0" result="hardAlpha"/>
<feOffset dy="2"/>
<feGaussianBlur stdDeviation="0.5"/>
<feColorMatrix type="matrix" values="0 0 0 0 0 0 0 0 0 0 0 0 0 0 0 0 0 0 0.01 0"/>
<feBlend mode="normal" in2="effect2_dropShadow_13337_15950" result="effect3_dropShadow_13337_15950"/>
<feBlend mode="normal" in="SourceGraphic" in2="effect3_dropShadow_13337_15950" result="shape"/>
</filter>
</defs>
</symbol><symbol id="plot-development-6" viewBox="0 0 14 14">
<rect x="0.777344" y="0.777344" width="12.4444" height="12.4444" rx="2" fill="#FEE124"/>
<g filter="url(#filter0_ddd_13337_15950)">
<path d="M6.94562 10H4.88312V4.18182H6.96267C7.5479 4.18182 8.05168 4.2983 8.47403 4.53125C8.89638 4.76231 9.22119 5.0947 9.44846 5.52841C9.67763 5.96212 9.79221 6.48106 9.79221 7.08523C9.79221 7.69129 9.67763 8.21212 9.44846 8.64773C9.22119 9.08333 8.89449 9.41761 8.46835 9.65057C8.04411 9.88352 7.53653 10 6.94562 10ZM6.11324 8.94602H6.89449C7.25812 8.94602 7.56399 8.88163 7.8121 8.75284C8.0621 8.62216 8.2496 8.42045 8.3746 8.14773C8.50149 7.87311 8.56494 7.51894 8.56494 7.08523C8.56494 6.6553 8.50149 6.30398 8.3746 6.03125C8.2496 5.75852 8.06305 5.55777 7.81494 5.42898C7.56684 5.30019 7.26096 5.2358 6.89733 5.2358H6.11324V8.94602Z" fill="#313131"/>
</g>
<defs>
<filter id="filter0_ddd_13337_15950" x="3.8833" y="3.18164" width="6.90869" height="9.81836" filterUnits="userSpaceOnUse" color-interpolation-filters="sRGB">
<feFlood flood-opacity="0" result="BackgroundImageFix"/>
<feColorMatrix in="SourceAlpha" type="matrix" values="0 0 0 0 0 0 0 0 0 0 0 0 0 0 0 0 0 0 127 0" result="hardAlpha"/>
<feOffset/>
<feGaussianBlur stdDeviation="0.5"/>
<feColorMatrix type="matrix" values="0 0 0 0 0 0 0 0 0 0 0 0 0 0 0 0 0 0 0.09 0"/>
<feBlend mode="normal" in2="BackgroundImageFix" result="effect1_dropShadow_13337_15950"/>
<feColorMatrix in="SourceAlpha" type="matrix" values="0 0 0 0 0 0 0 0 0 0 0 0 0 0 0 0 0 0 127 0" result="hardAlpha"/>
<feOffset dy="1"/>
<feGaussianBlur stdDeviation="0.5"/>
<feColorMatrix type="matrix" values="0 0 0 0 0 0 0 0 0 0 0 0 0 0 0 0 0 0 0.05 0"/>
<feBlend mode="normal" in2="effect1_dropShadow_13337_15950" result="effect2_dropShadow_13337_15950"/>
<feColorMatrix in="SourceAlpha" type="matrix" values="0 0 0 0 0 0 0 0 0 0 0 0 0 0 0 0 0 0 127 0" result="hardAlpha"/>
<feOffset dy="2"/>
<feGaussianBlur stdDeviation="0.5"/>
<feColorMatrix type="matrix" values="0 0 0 0 0 0 0 0 0 0 0 0 0 0 0 0 0 0 0.01 0"/>
<feBlend mode="normal" in2="effect2_dropShadow_13337_15950" result="effect3_dropShadow_13337_15950"/>
<feBlend mode="normal" in="SourceGraphic" in2="effect3_dropShadow_13337_15950" result="shape"/>
</filter>
</defs>
</symbol><symbol id="plot-development-7" viewBox="0 0 14 14">
<rect x="0.777344" y="0.777344" width="12.4444" height="12.4444" rx="2" fill="#FED323"/>
<g filter="url(#filter0_ddd_13337_15950)">
<path d="M6.94562 10H4.88312V4.18182H6.96267C7.5479 4.18182 8.05168 4.2983 8.47403 4.53125C8.89638 4.76231 9.22119 5.0947 9.44846 5.52841C9.67763 5.96212 9.79221 6.48106 9.79221 7.08523C9.79221 7.69129 9.67763 8.21212 9.44846 8.64773C9.22119 9.08333 8.89449 9.41761 8.46835 9.65057C8.04411 9.88352 7.53653 10 6.94562 10ZM6.11324 8.94602H6.89449C7.25812 8.94602 7.56399 8.88163 7.8121 8.75284C8.0621 8.62216 8.2496 8.42045 8.3746 8.14773C8.50149 7.87311 8.56494 7.51894 8.56494 7.08523C8.56494 6.6553 8.50149 6.30398 8.3746 6.03125C8.2496 5.75852 8.06305 5.55777 7.81494 5.42898C7.56684 5.30019 7.26096 5.2358 6.89733 5.2358H6.11324V8.94602Z" fill="#313131"/>
</g>
<defs>
<filter id="filter0_ddd_13337_15950" x="3.8833" y="3.18164" width="6.90869" height="9.81836" filterUnits="userSpaceOnUse" color-interpolation-filters="sRGB">
<feFlood flood-opacity="0" result="BackgroundImageFix"/>
<feColorMatrix in="SourceAlpha" type="matrix" values="0 0 0 0 0 0 0 0 0 0 0 0 0 0 0 0 0 0 127 0" result="hardAlpha"/>
<feOffset/>
<feGaussianBlur stdDeviation="0.5"/>
<feColorMatrix type="matrix" values="0 0 0 0 0 0 0 0 0 0 0 0 0 0 0 0 0 0 0.09 0"/>
<feBlend mode="normal" in2="BackgroundImageFix" result="effect1_dropShadow_13337_15950"/>
<feColorMatrix in="SourceAlpha" type="matrix" values="0 0 0 0 0 0 0 0 0 0 0 0 0 0 0 0 0 0 127 0" result="hardAlpha"/>
<feOffset dy="1"/>
<feGaussianBlur stdDeviation="0.5"/>
<feColorMatrix type="matrix" values="0 0 0 0 0 0 0 0 0 0 0 0 0 0 0 0 0 0 0.05 0"/>
<feBlend mode="normal" in2="effect1_dropShadow_13337_15950" result="effect2_dropShadow_13337_15950"/>
<feColorMatrix in="SourceAlpha" type="matrix" values="0 0 0 0 0 0 0 0 0 0 0 0 0 0 0 0 0 0 127 0" result="hardAlpha"/>
<feOffset dy="2"/>
<feGaussianBlur stdDeviation="0.5"/>
<feColorMatrix type="matrix" values="0 0 0 0 0 0 0 0 0 0 0 0 0 0 0 0 0 0 0.01 0"/>
<feBlend mode="normal" in2="effect2_dropShadow_13337_15950" result="effect3_dropShadow_13337_15950"/>
<feBlend mode="normal" in="SourceGraphic" in2="effect3_dropShadow_13337_15950" result="shape"/>
</filter>
</defs>
</symbol><symbol id="plot-development-8" viewBox="0 0 14 14">
<rect x="0.777344" y="0.777344" width="12.4444" height="12.4444" rx="2" fill="#FEB721"/>
<g filter="url(#filter0_ddd_13337_15950)">
<path d="M6.94562 10H4.88312V4.18182H6.96267C7.5479 4.18182 8.05168 4.2983 8.47403 4.53125C8.89638 4.76231 9.22119 5.0947 9.44846 5.52841C9.67763 5.96212 9.79221 6.48106 9.79221 7.08523C9.79221 7.69129 9.67763 8.21212 9.44846 8.64773C9.22119 9.08333 8.89449 9.41761 8.46835 9.65057C8.04411 9.88352 7.53653 10 6.94562 10ZM6.11324 8.94602H6.89449C7.25812 8.94602 7.56399 8.88163 7.8121 8.75284C8.0621 8.62216 8.2496 8.42045 8.3746 8.14773C8.50149 7.87311 8.56494 7.51894 8.56494 7.08523C8.56494 6.6553 8.50149 6.30398 8.3746 6.03125C8.2496 5.75852 8.06305 5.55777 7.81494 5.42898C7.56684 5.30019 7.26096 5.2358 6.89733 5.2358H6.11324V8.94602Z" fill="#313131"/>
</g>
<defs>
<filter id="filter0_ddd_13337_15950" x="3.8833" y="3.18164" width="6.90869" height="9.81836" filterUnits="userSpaceOnUse" color-interpolation-filters="sRGB">
<feFlood flood-opacity="0" result="BackgroundImageFix"/>
<feColorMatrix in="SourceAlpha" type="matrix" values="0 0 0 0 0 0 0 0 0 0 0 0 0 0 0 0 0 0 127 0" result="hardAlpha"/>
<feOffset/>
<feGaussianBlur stdDeviation="0.5"/>
<feColorMatrix type="matrix" values="0 0 0 0 0 0 0 0 0 0 0 0 0 0 0 0 0 0 0.09 0"/>
<feBlend mode="normal" in2="BackgroundImageFix" result="effect1_dropShadow_13337_15950"/>
<feColorMatrix in="SourceAlpha" type="matrix" values="0 0 0 0 0 0 0 0 0 0 0 0 0 0 0 0 0 0 127 0" result="hardAlpha"/>
<feOffset dy="1"/>
<feGaussianBlur stdDeviation="0.5"/>
<feColorMatrix type="matrix" values="0 0 0 0 0 0 0 0 0 0 0 0 0 0 0 0 0 0 0.05 0"/>
<feBlend mode="normal" in2="effect1_dropShadow_13337_15950" result="effect2_dropShadow_13337_15950"/>
<feColorMatrix in="SourceAlpha" type="matrix" values="0 0 0 0 0 0 0 0 0 0 0 0 0 0 0 0 0 0 127 0" result="hardAlpha"/>
<feOffset dy="2"/>
<feGaussianBlur stdDeviation="0.5"/>
<feColorMatrix type="matrix" values="0 0 0 0 0 0 0 0 0 0 0 0 0 0 0 0 0 0 0.01 0"/>
<feBlend mode="normal" in2="effect2_dropShadow_13337_15950" result="effect3_dropShadow_13337_15950"/>
<feBlend mode="normal" in="SourceGraphic" in2="effect3_dropShadow_13337_15950" result="shape"/>
</filter>
</defs>
</symbol><symbol id="plot-development-9" viewBox="0 0 14 14">
<rect x="0.777344" y="0.777344" width="12.4444" height="12.4444" rx="2" fill="#FB9B28"/>
<g filter="url(#filter0_ddd_13337_15950)">
<path d="M6.94562 10H4.88312V4.18182H6.96267C7.5479 4.18182 8.05168 4.2983 8.47403 4.53125C8.89638 4.76231 9.22119 5.0947 9.44846 5.52841C9.67763 5.96212 9.79221 6.48106 9.79221 7.08523C9.79221 7.69129 9.67763 8.21212 9.44846 8.64773C9.22119 9.08333 8.89449 9.41761 8.46835 9.65057C8.04411 9.88352 7.53653 10 6.94562 10ZM6.11324 8.94602H6.89449C7.25812 8.94602 7.56399 8.88163 7.8121 8.75284C8.0621 8.62216 8.2496 8.42045 8.3746 8.14773C8.50149 7.87311 8.56494 7.51894 8.56494 7.08523C8.56494 6.6553 8.50149 6.30398 8.3746 6.03125C8.2496 5.75852 8.06305 5.55777 7.81494 5.42898C7.56684 5.30019 7.26096 5.2358 6.89733 5.2358H6.11324V8.94602Z" fill="#FFFFFF"/>
</g>
<defs>
<filter id="filter0_ddd_13337_15950" x="3.8833" y="3.18164" width="6.90869" height="9.81836" filterUnits="userSpaceOnUse" color-interpolation-filters="sRGB">
<feFlood flood-opacity="0" result="BackgroundImageFix"/>
<feColorMatrix in="SourceAlpha" type="matrix" values="0 0 0 0 0 0 0 0 0 0 0 0 0 0 0 0 0 0 127 0" result="hardAlpha"/>
<feOffset/>
<feGaussianBlur stdDeviation="0.5"/>
<feColorMatrix type="matrix" values="0 0 0 0 0 0 0 0 0 0 0 0 0 0 0 0 0 0 0.09 0"/>
<feBlend mode="normal" in2="BackgroundImageFix" result="effect1_dropShadow_13337_15950"/>
<feColorMatrix in="SourceAlpha" type="matrix" values="0 0 0 0 0 0 0 0 0 0 0 0 0 0 0 0 0 0 127 0" result="hardAlpha"/>
<feOffset dy="1"/>
<feGaussianBlur stdDeviation="0.5"/>
<feColorMatrix type="matrix" values="0 0 0 0 0 0 0 0 0 0 0 0 0 0 0 0 0 0 0.05 0"/>
<feBlend mode="normal" in2="effect1_dropShadow_13337_15950" result="effect2_dropShadow_13337_15950"/>
<feColorMatrix in="SourceAlpha" type="matrix" values="0 0 0 0 0 0 0 0 0 0 0 0 0 0 0 0 0 0 127 0" result="hardAlpha"/>
<feOffset dy="2"/>
<feGaussianBlur stdDeviation="0.5"/>
<feColorMatrix type="matrix" values="0 0 0 0 0 0 0 0 0 0 0 0 0 0 0 0 0 0 0.01 0"/>
<feBlend mode="normal" in2="effect2_dropShadow_13337_15950" result="effect3_dropShadow_13337_15950"/>
<feBlend mode="normal" in="SourceGraphic" in2="effect3_dropShadow_13337_15950" result="shape"/>
</filter>
</defs>
</symbol></svg>