<svg xmlns="http://www.w3.org/2000/svg"><symbol id="plot-layout-0" viewBox="0 0 14 14">
<rect x="0.777344" y="0.777344" width="12.4444" height="12.4444" rx="2" fill="#C3C3C3"/>
<g clip-path="url(#clip0_12640_50173)" filter="url(#filter0_ddd_12640_50173)">
<path d="M4.66666 3.5H5.54166C6.18599 3.5 6.70832 4.02233 6.70832 4.66666V5.54166C6.70832 6.18599 6.18599 6.70832 5.54166 6.70832H4.66666C4.02233 6.70834 3.5 6.186 3.5 5.54166V4.66666C3.5 4.02233 4.02233 3.5 4.66666 3.5Z" fill="white"/>
<path d="M8.45817 3.5H9.33317C9.97749 3.5 10.4998 4.02233 10.4998 4.66666V5.54166C10.4998 6.18599 9.97749 6.70832 9.33317 6.70832H8.45817C7.81384 6.70832 7.2915 6.18599 7.2915 5.54166V4.66666C7.29149 4.02233 7.81382 3.5 8.45817 3.5Z" fill="white"/>
<path d="M4.66666 7.2915H5.54166C6.18599 7.2915 6.70832 7.81384 6.70832 8.45817V9.33317C6.70832 9.97749 6.18599 10.4998 5.54166 10.4998H4.66666C4.02233 10.4998 3.5 9.97751 3.5 9.33318V8.45818C3.5 7.81384 4.02233 7.2915 4.66666 7.2915Z" fill="white"/>
<path d="M8.45817 7.2915H9.33317C9.97749 7.2915 10.4998 7.81384 10.4998 8.45817V9.33317C10.4998 9.97751 9.97749 10.4998 9.33317 10.4998H8.45817C7.81384 10.4998 7.2915 9.97751 7.2915 9.33318V8.45818C7.29149 7.81384 7.81382 7.2915 8.45817 7.2915Z" fill="white"/>
</g>
<defs>
<filter id="filter0_ddd_12640_50173" x="2.5" y="2.5" width="9" height="10" filterUnits="userSpaceOnUse" color-interpolation-filters="sRGB">
<feFlood flood-opacity="0" result="BackgroundImageFix"/>
<feColorMatrix in="SourceAlpha" type="matrix" values="0 0 0 0 0 0 0 0 0 0 0 0 0 0 0 0 0 0 127 0" result="hardAlpha"/>
<feOffset/>
<feGaussianBlur stdDeviation="0.5"/>
<feColorMatrix type="matrix" values="0 0 0 0 0 0 0 0 0 0 0 0 0 0 0 0 0 0 0.09 0"/>
<feBlend mode="normal" in2="BackgroundImageFix" result="effect1_dropShadow_12640_50173"/>
<feColorMatrix in="SourceAlpha" type="matrix" values="0 0 0 0 0 0 0 0 0 0 0 0 0 0 0 0 0 0 127 0" result="hardAlpha"/>
<feOffset dy="1"/>
<feGaussianBlur stdDeviation="0.5"/>
<feColorMatrix type="matrix" values="0 0 0 0 0 0 0 0 0 0 0 0 0 0 0 0 0 0 0.05 0"/>
<feBlend mode="normal" in2="effect1_dropShadow_12640_50173" result="effect2_dropShadow_12640_50173"/>
<feColorMatrix in="SourceAlpha" type="matrix" values="0 0 0 0 0 0 0 0 0 0 0 0 0 0 0 0 0 0 127 0" result="hardAlpha"/>
<feOffset dy="1"/>
<feGaussianBlur stdDeviation="0.5"/>
<feColorMatrix type="matrix" values="0 0 0 0 0 0 0 0 0 0 0 0 0 0 0 0 0 0 0.01 0"/>
<feBlend mode="normal" in2="effect2_dropShadow_12640_50173" result="effect3_dropShadow_12640_50173"/>
<feBlend mode="normal" in="SourceGraphic" in2="effect3_dropShadow_12640_50173" result="shape"/>
</filter>
<clipPath id="clip0_12640_50173">
<rect width="7" height="7" fill="white" transform="translate(3.5 3.5)"/>
</clipPath>
</defs>
</symbol><symbol id="plot-layout-1" viewBox="0 0 14 14">
<rect x="0.777344" y="0.777344" width="12.4444" height="12.4444" rx="2" fill="#A0EE7E"/>
<g clip-path="url(#clip0_12640_50074)">
<path d="M4.66666 3.5H5.54166C6.18599 3.5 6.70832 4.02233 6.70832 4.66666V5.54166C6.70832 6.18599 6.18599 6.70832 5.54166 6.70832H4.66666C4.02233 6.70834 3.5 6.186 3.5 5.54166V4.66666C3.5 4.02233 4.02233 3.5 4.66666 3.5Z" fill="#313131"/>
<path d="M8.45817 3.5H9.33317C9.97749 3.5 10.4998 4.02233 10.4998 4.66666V5.54166C10.4998 6.18599 9.97749 6.70832 9.33317 6.70832H8.45817C7.81384 6.70832 7.2915 6.18599 7.2915 5.54166V4.66666C7.29149 4.02233 7.81382 3.5 8.45817 3.5Z" fill="#313131"/>
<path d="M4.66666 7.2915H5.54166C6.18599 7.2915 6.70832 7.81384 6.70832 8.45817V9.33317C6.70832 9.97749 6.18599 10.4998 5.54166 10.4998H4.66666C4.02233 10.4998 3.5 9.97751 3.5 9.33318V8.45818C3.5 7.81384 4.02233 7.2915 4.66666 7.2915Z" fill="#313131"/>
<path d="M8.45817 7.2915H9.33317C9.97749 7.2915 10.4998 7.81384 10.4998 8.45817V9.33317C10.4998 9.97751 9.97749 10.4998 9.33317 10.4998H8.45817C7.81384 10.4998 7.2915 9.97751 7.2915 9.33318V8.45818C7.29149 7.81384 7.81382 7.2915 8.45817 7.2915Z" fill="#313131"/>
</g>
<defs>
<clipPath id="clip0_12640_50074">
<rect width="7" height="7" fill="white" transform="translate(3.5 3.5)"/>
</clipPath>
</defs>
</symbol><symbol id="plot-layout-10" viewBox="0 0 14 14">
<rect x="0.777344" y="0.777344" width="12.4444" height="12.4444" rx="2" fill="#F77D2E"/>
<g clip-path="url(#clip0_12889_266753)" filter="url(#filter0_ddd_12889_266753)">
<path d="M4.66666 3.5H5.54166C6.18599 3.5 6.70832 4.02233 6.70832 4.66666V5.54166C6.70832 6.18599 6.18599 6.70832 5.54166 6.70832H4.66666C4.02233 6.70834 3.5 6.186 3.5 5.54166V4.66666C3.5 4.02233 4.02233 3.5 4.66666 3.5Z" fill="white"/>
<path d="M8.45817 3.5H9.33317C9.97749 3.5 10.4998 4.02233 10.4998 4.66666V5.54166C10.4998 6.18599 9.97749 6.70832 9.33317 6.70832H8.45817C7.81384 6.70832 7.2915 6.18599 7.2915 5.54166V4.66666C7.29149 4.02233 7.81382 3.5 8.45817 3.5Z" fill="white"/>
<path d="M4.66666 7.2915H5.54166C6.18599 7.2915 6.70832 7.81384 6.70832 8.45817V9.33317C6.70832 9.97749 6.18599 10.4998 5.54166 10.4998H4.66666C4.02233 10.4998 3.5 9.97751 3.5 9.33318V8.45818C3.5 7.81384 4.02233 7.2915 4.66666 7.2915Z" fill="white"/>
<path d="M8.45817 7.2915H9.33317C9.97749 7.2915 10.4998 7.81384 10.4998 8.45817V9.33317C10.4998 9.97751 9.97749 10.4998 9.33317 10.4998H8.45817C7.81384 10.4998 7.2915 9.97751 7.2915 9.33318V8.45818C7.29149 7.81384 7.81382 7.2915 8.45817 7.2915Z" fill="white"/>
</g>
<defs>
<filter id="filter0_ddd_12889_266753" x="2.5" y="2.5" width="9" height="10" filterUnits="userSpaceOnUse" color-interpolation-filters="sRGB">
<feFlood flood-opacity="0" result="BackgroundImageFix"/>
<feColorMatrix in="SourceAlpha" type="matrix" values="0 0 0 0 0 0 0 0 0 0 0 0 0 0 0 0 0 0 127 0" result="hardAlpha"/>
<feOffset/>
<feGaussianBlur stdDeviation="0.5"/>
<feColorMatrix type="matrix" values="0 0 0 0 0 0 0 0 0 0 0 0 0 0 0 0 0 0 0.09 0"/>
<feBlend mode="normal" in2="BackgroundImageFix" result="effect1_dropShadow_12889_266753"/>
<feColorMatrix in="SourceAlpha" type="matrix" values="0 0 0 0 0 0 0 0 0 0 0 0 0 0 0 0 0 0 127 0" result="hardAlpha"/>
<feOffset dy="1"/>
<feGaussianBlur stdDeviation="0.5"/>
<feColorMatrix type="matrix" values="0 0 0 0 0 0 0 0 0 0 0 0 0 0 0 0 0 0 0.05 0"/>
<feBlend mode="normal" in2="effect1_dropShadow_12889_266753" result="effect2_dropShadow_12889_266753"/>
<feColorMatrix in="SourceAlpha" type="matrix" values="0 0 0 0 0 0 0 0 0 0 0 0 0 0 0 0 0 0 127 0" result="hardAlpha"/>
<feOffset dy="1"/>
<feGaussianBlur stdDeviation="0.5"/>
<feColorMatrix type="matrix" values="0 0 0 0 0 0 0 0 0 0 0 0 0 0 0 0 0 0 0.01 0"/>
<feBlend mode="normal" in2="effect2_dropShadow_12889_266753" result="effect3_dropShadow_12889_266753"/>
<feBlend mode="normal" in="SourceGraphic" in2="effect3_dropShadow_12889_266753" result="shape"/>
</filter>
<clipPath id="clip0_12889_266753">
<rect width="7" height="7" fill="white" transform="translate(3.5 3.5)"/>
</clipPath>
</defs>
</symbol><symbol id="plot-layout-11" viewBox="0 0 14 14">
<rect x="0.777344" y="0.777344" width="12.4444" height="12.4444" rx="2" fill="#F46236"/>
<g clip-path="url(#clip0_12889_266833)" filter="url(#filter0_ddd_12889_266833)">
<path d="M4.66666 3.5H5.54166C6.18599 3.5 6.70832 4.02233 6.70832 4.66666V5.54166C6.70832 6.18599 6.18599 6.70832 5.54166 6.70832H4.66666C4.02233 6.70834 3.5 6.186 3.5 5.54166V4.66666C3.5 4.02233 4.02233 3.5 4.66666 3.5Z" fill="white"/>
<path d="M8.45817 3.5H9.33317C9.97749 3.5 10.4998 4.02233 10.4998 4.66666V5.54166C10.4998 6.18599 9.97749 6.70832 9.33317 6.70832H8.45817C7.81384 6.70832 7.2915 6.18599 7.2915 5.54166V4.66666C7.29149 4.02233 7.81382 3.5 8.45817 3.5Z" fill="white"/>
<path d="M4.66666 7.2915H5.54166C6.18599 7.2915 6.70832 7.81384 6.70832 8.45817V9.33317C6.70832 9.97749 6.18599 10.4998 5.54166 10.4998H4.66666C4.02233 10.4998 3.5 9.97751 3.5 9.33318V8.45818C3.5 7.81384 4.02233 7.2915 4.66666 7.2915Z" fill="white"/>
<path d="M8.45817 7.2915H9.33317C9.97749 7.2915 10.4998 7.81384 10.4998 8.45817V9.33317C10.4998 9.97751 9.97749 10.4998 9.33317 10.4998H8.45817C7.81384 10.4998 7.2915 9.97751 7.2915 9.33318V8.45818C7.29149 7.81384 7.81382 7.2915 8.45817 7.2915Z" fill="white"/>
</g>
<defs>
<filter id="filter0_ddd_12889_266833" x="2.5" y="2.5" width="9" height="10" filterUnits="userSpaceOnUse" color-interpolation-filters="sRGB">
<feFlood flood-opacity="0" result="BackgroundImageFix"/>
<feColorMatrix in="SourceAlpha" type="matrix" values="0 0 0 0 0 0 0 0 0 0 0 0 0 0 0 0 0 0 127 0" result="hardAlpha"/>
<feOffset/>
<feGaussianBlur stdDeviation="0.5"/>
<feColorMatrix type="matrix" values="0 0 0 0 0 0 0 0 0 0 0 0 0 0 0 0 0 0 0.09 0"/>
<feBlend mode="normal" in2="BackgroundImageFix" result="effect1_dropShadow_12889_266833"/>
<feColorMatrix in="SourceAlpha" type="matrix" values="0 0 0 0 0 0 0 0 0 0 0 0 0 0 0 0 0 0 127 0" result="hardAlpha"/>
<feOffset dy="1"/>
<feGaussianBlur stdDeviation="0.5"/>
<feColorMatrix type="matrix" values="0 0 0 0 0 0 0 0 0 0 0 0 0 0 0 0 0 0 0.05 0"/>
<feBlend mode="normal" in2="effect1_dropShadow_12889_266833" result="effect2_dropShadow_12889_266833"/>
<feColorMatrix in="SourceAlpha" type="matrix" values="0 0 0 0 0 0 0 0 0 0 0 0 0 0 0 0 0 0 127 0" result="hardAlpha"/>
<feOffset dy="1"/>
<feGaussianBlur stdDeviation="0.5"/>
<feColorMatrix type="matrix" values="0 0 0 0 0 0 0 0 0 0 0 0 0 0 0 0 0 0 0.01 0"/>
<feBlend mode="normal" in2="effect2_dropShadow_12889_266833" result="effect3_dropShadow_12889_266833"/>
<feBlend mode="normal" in="SourceGraphic" in2="effect3_dropShadow_12889_266833" result="shape"/>
</filter>
<clipPath id="clip0_12889_266833">
<rect width="7" height="7" fill="white" transform="translate(3.5 3.5)"/>
</clipPath>
</defs>
</symbol><symbol id="plot-layout-12" viewBox="0 0 14 14">
<rect x="0.777344" y="0.777344" width="12.4444" height="12.4444" rx="2" fill="#F0453D"/>
<g clip-path="url(#clip0_12889_266913)" filter="url(#filter0_ddd_12889_266913)">
<path d="M4.66666 3.5H5.54166C6.18599 3.5 6.70832 4.02233 6.70832 4.66666V5.54166C6.70832 6.18599 6.18599 6.70832 5.54166 6.70832H4.66666C4.02233 6.70834 3.5 6.186 3.5 5.54166V4.66666C3.5 4.02233 4.02233 3.5 4.66666 3.5Z" fill="white"/>
<path d="M8.45817 3.5H9.33317C9.97749 3.5 10.4998 4.02233 10.4998 4.66666V5.54166C10.4998 6.18599 9.97749 6.70832 9.33317 6.70832H8.45817C7.81384 6.70832 7.2915 6.18599 7.2915 5.54166V4.66666C7.29149 4.02233 7.81382 3.5 8.45817 3.5Z" fill="white"/>
<path d="M4.66666 7.2915H5.54166C6.18599 7.2915 6.70832 7.81384 6.70832 8.45817V9.33317C6.70832 9.97749 6.18599 10.4998 5.54166 10.4998H4.66666C4.02233 10.4998 3.5 9.97751 3.5 9.33318V8.45818C3.5 7.81384 4.02233 7.2915 4.66666 7.2915Z" fill="white"/>
<path d="M8.45817 7.2915H9.33317C9.97749 7.2915 10.4998 7.81384 10.4998 8.45817V9.33317C10.4998 9.97751 9.97749 10.4998 9.33317 10.4998H8.45817C7.81384 10.4998 7.2915 9.97751 7.2915 9.33318V8.45818C7.29149 7.81384 7.81382 7.2915 8.45817 7.2915Z" fill="white"/>
</g>
<defs>
<filter id="filter0_ddd_12889_266913" x="2.5" y="2.5" width="9" height="10" filterUnits="userSpaceOnUse" color-interpolation-filters="sRGB">
<feFlood flood-opacity="0" result="BackgroundImageFix"/>
<feColorMatrix in="SourceAlpha" type="matrix" values="0 0 0 0 0 0 0 0 0 0 0 0 0 0 0 0 0 0 127 0" result="hardAlpha"/>
<feOffset/>
<feGaussianBlur stdDeviation="0.5"/>
<feColorMatrix type="matrix" values="0 0 0 0 0 0 0 0 0 0 0 0 0 0 0 0 0 0 0.09 0"/>
<feBlend mode="normal" in2="BackgroundImageFix" result="effect1_dropShadow_12889_266913"/>
<feColorMatrix in="SourceAlpha" type="matrix" values="0 0 0 0 0 0 0 0 0 0 0 0 0 0 0 0 0 0 127 0" result="hardAlpha"/>
<feOffset dy="1"/>
<feGaussianBlur stdDeviation="0.5"/>
<feColorMatrix type="matrix" values="0 0 0 0 0 0 0 0 0 0 0 0 0 0 0 0 0 0 0.05 0"/>
<feBlend mode="normal" in2="effect1_dropShadow_12889_266913" result="effect2_dropShadow_12889_266913"/>
<feColorMatrix in="SourceAlpha" type="matrix" values="0 0 0 0 0 0 0 0 0 0 0 0 0 0 0 0 0 0 127 0" result="hardAlpha"/>
<feOffset dy="1"/>
<feGaussianBlur stdDeviation="0.5"/>
<feColorMatrix type="matrix" values="0 0 0 0 0 0 0 0 0 0 0 0 0 0 0 0 0 0 0.01 0"/>
<feBlend mode="normal" in2="effect2_dropShadow_12889_266913" result="effect3_dropShadow_12889_266913"/>
<feBlend mode="normal" in="SourceGraphic" in2="effect3_dropShadow_12889_266913" result="shape"/>
</filter>
<clipPath id="clip0_12889_266913">
<rect width="7" height="7" fill="white" transform="translate(3.5 3.5)"/>
</clipPath>
</defs>
</symbol><symbol id="plot-layout-2" viewBox="0 0 14 14">
<rect x="0.777344" y="0.777344" width="12.4444" height="12.4444" rx="2" fill="#B8EE68"/>
<g clip-path="url(#clip0_12640_50066)">
<path d="M4.66666 3.5H5.54166C6.18599 3.5 6.70832 4.02233 6.70832 4.66666V5.54166C6.70832 6.18599 6.18599 6.70832 5.54166 6.70832H4.66666C4.02233 6.70834 3.5 6.186 3.5 5.54166V4.66666C3.5 4.02233 4.02233 3.5 4.66666 3.5Z" fill="#313131"/>
<path d="M8.45817 3.5H9.33317C9.97749 3.5 10.4998 4.02233 10.4998 4.66666V5.54166C10.4998 6.18599 9.97749 6.70832 9.33317 6.70832H8.45817C7.81384 6.70832 7.2915 6.18599 7.2915 5.54166V4.66666C7.29149 4.02233 7.81382 3.5 8.45817 3.5Z" fill="#313131"/>
<path d="M4.66666 7.2915H5.54166C6.18599 7.2915 6.70832 7.81384 6.70832 8.45817V9.33317C6.70832 9.97749 6.18599 10.4998 5.54166 10.4998H4.66666C4.02233 10.4998 3.5 9.97751 3.5 9.33318V8.45818C3.5 7.81384 4.02233 7.2915 4.66666 7.2915Z" fill="#313131"/>
<path d="M8.45817 7.2915H9.33317C9.97749 7.2915 10.4998 7.81384 10.4998 8.45817V9.33317C10.4998 9.97751 9.97749 10.4998 9.33317 10.4998H8.45817C7.81384 10.4998 7.2915 9.97751 7.2915 9.33318V8.45818C7.29149 7.81384 7.81382 7.2915 8.45817 7.2915Z" fill="#313131"/>
</g>
<defs>
<clipPath id="clip0_12640_50066">
<rect width="7" height="7" fill="white" transform="translate(3.5 3.5)"/>
</clipPath>
</defs>
</symbol><symbol id="plot-layout-3" viewBox="0 0 14 14">
<rect x="0.777344" y="0.777344" width="12.4444" height="12.4444" rx="2" fill="#CFEE52"/>
<g clip-path="url(#clip0_12640_50070)">
<path d="M4.66666 3.5H5.54166C6.18599 3.5 6.70832 4.02233 6.70832 4.66666V5.54166C6.70832 6.18599 6.18599 6.70832 5.54166 6.70832H4.66666C4.02233 6.70834 3.5 6.186 3.5 5.54166V4.66666C3.5 4.02233 4.02233 3.5 4.66666 3.5Z" fill="#313131"/>
<path d="M8.45817 3.5H9.33317C9.97749 3.5 10.4998 4.02233 10.4998 4.66666V5.54166C10.4998 6.18599 9.97749 6.70832 9.33317 6.70832H8.45817C7.81384 6.70832 7.2915 6.18599 7.2915 5.54166V4.66666C7.29149 4.02233 7.81382 3.5 8.45817 3.5Z" fill="#313131"/>
<path d="M4.66666 7.2915H5.54166C6.18599 7.2915 6.70832 7.81384 6.70832 8.45817V9.33317C6.70832 9.97749 6.18599 10.4998 5.54166 10.4998H4.66666C4.02233 10.4998 3.5 9.97751 3.5 9.33318V8.45818C3.5 7.81384 4.02233 7.2915 4.66666 7.2915Z" fill="#313131"/>
<path d="M8.45817 7.2915H9.33317C9.97749 7.2915 10.4998 7.81384 10.4998 8.45817V9.33317C10.4998 9.97751 9.97749 10.4998 9.33317 10.4998H8.45817C7.81384 10.4998 7.2915 9.97751 7.2915 9.33318V8.45818C7.29149 7.81384 7.81382 7.2915 8.45817 7.2915Z" fill="#313131"/>
</g>
<defs>
<clipPath id="clip0_12640_50070">
<rect width="7" height="7" fill="white" transform="translate(3.5 3.5)"/>
</clipPath>
</defs>
</symbol><symbol id="plot-layout-4" viewBox="0 0 14 14">
<rect x="0.777344" y="0.777344" width="12.4444" height="12.4444" rx="2" fill="#E7EE3C"/>
<g clip-path="url(#clip0_12640_50062)">
<path d="M4.66666 3.5H5.54166C6.18599 3.5 6.70832 4.02233 6.70832 4.66666V5.54166C6.70832 6.18599 6.18599 6.70832 5.54166 6.70832H4.66666C4.02233 6.70834 3.5 6.186 3.5 5.54166V4.66666C3.5 4.02233 4.02233 3.5 4.66666 3.5Z" fill="#313131"/>
<path d="M8.45817 3.5H9.33317C9.97749 3.5 10.4998 4.02233 10.4998 4.66666V5.54166C10.4998 6.18599 9.97749 6.70832 9.33317 6.70832H8.45817C7.81384 6.70832 7.2915 6.18599 7.2915 5.54166V4.66666C7.29149 4.02233 7.81382 3.5 8.45817 3.5Z" fill="#313131"/>
<path d="M4.66666 7.2915H5.54166C6.18599 7.2915 6.70832 7.81384 6.70832 8.45817V9.33317C6.70832 9.97749 6.18599 10.4998 5.54166 10.4998H4.66666C4.02233 10.4998 3.5 9.97751 3.5 9.33318V8.45818C3.5 7.81384 4.02233 7.2915 4.66666 7.2915Z" fill="#313131"/>
<path d="M8.45817 7.2915H9.33317C9.97749 7.2915 10.4998 7.81384 10.4998 8.45817V9.33317C10.4998 9.97751 9.97749 10.4998 9.33317 10.4998H8.45817C7.81384 10.4998 7.2915 9.97751 7.2915 9.33318V8.45818C7.29149 7.81384 7.81382 7.2915 8.45817 7.2915Z" fill="#313131"/>
</g>
<defs>
<clipPath id="clip0_12640_50062">
<rect width="7" height="7" fill="white" transform="translate(3.5 3.5)"/>
</clipPath>
</defs>
</symbol><symbol id="plot-layout-5" viewBox="0 0 14 14">
<rect x="0.777344" y="0.777344" width="12.4444" height="12.4444" rx="2" fill="#FEEE24"/>
<g clip-path="url(#clip0_12640_50078)">
<path d="M4.66666 3.5H5.54166C6.18599 3.5 6.70832 4.02233 6.70832 4.66666V5.54166C6.70832 6.18599 6.18599 6.70832 5.54166 6.70832H4.66666C4.02233 6.70834 3.5 6.186 3.5 5.54166V4.66666C3.5 4.02233 4.02233 3.5 4.66666 3.5Z" fill="#313131"/>
<path d="M8.45817 3.5H9.33317C9.97749 3.5 10.4998 4.02233 10.4998 4.66666V5.54166C10.4998 6.18599 9.97749 6.70832 9.33317 6.70832H8.45817C7.81384 6.70832 7.2915 6.18599 7.2915 5.54166V4.66666C7.29149 4.02233 7.81382 3.5 8.45817 3.5Z" fill="#313131"/>
<path d="M4.66666 7.2915H5.54166C6.18599 7.2915 6.70832 7.81384 6.70832 8.45817V9.33317C6.70832 9.97749 6.18599 10.4998 5.54166 10.4998H4.66666C4.02233 10.4998 3.5 9.97751 3.5 9.33318V8.45818C3.5 7.81384 4.02233 7.2915 4.66666 7.2915Z" fill="#313131"/>
<path d="M8.45817 7.2915H9.33317C9.97749 7.2915 10.4998 7.81384 10.4998 8.45817V9.33317C10.4998 9.97751 9.97749 10.4998 9.33317 10.4998H8.45817C7.81384 10.4998 7.2915 9.97751 7.2915 9.33318V8.45818C7.29149 7.81384 7.81382 7.2915 8.45817 7.2915Z" fill="#313131"/>
</g>
<defs>
<clipPath id="clip0_12640_50078">
<rect width="7" height="7" fill="white" transform="translate(3.5 3.5)"/>
</clipPath>
</defs>
</symbol><symbol id="plot-layout-6" viewBox="0 0 14 14">
<rect x="0.777344" y="0.777344" width="12.4444" height="12.4444" rx="2" fill="#FEE123"/>
<g clip-path="url(#clip0_12640_50082)">
<path d="M4.66666 3.5H5.54166C6.18599 3.5 6.70832 4.02233 6.70832 4.66666V5.54166C6.70832 6.18599 6.18599 6.70832 5.54166 6.70832H4.66666C4.02233 6.70834 3.5 6.186 3.5 5.54166V4.66666C3.5 4.02233 4.02233 3.5 4.66666 3.5Z" fill="#313131"/>
<path d="M8.45817 3.5H9.33317C9.97749 3.5 10.4998 4.02233 10.4998 4.66666V5.54166C10.4998 6.18599 9.97749 6.70832 9.33317 6.70832H8.45817C7.81384 6.70832 7.2915 6.18599 7.2915 5.54166V4.66666C7.29149 4.02233 7.81382 3.5 8.45817 3.5Z" fill="#313131"/>
<path d="M4.66666 7.2915H5.54166C6.18599 7.2915 6.70832 7.81384 6.70832 8.45817V9.33317C6.70832 9.97749 6.18599 10.4998 5.54166 10.4998H4.66666C4.02233 10.4998 3.5 9.97751 3.5 9.33318V8.45818C3.5 7.81384 4.02233 7.2915 4.66666 7.2915Z" fill="#313131"/>
<path d="M8.45817 7.2915H9.33317C9.97749 7.2915 10.4998 7.81384 10.4998 8.45817V9.33317C10.4998 9.97751 9.97749 10.4998 9.33317 10.4998H8.45817C7.81384 10.4998 7.2915 9.97751 7.2915 9.33318V8.45818C7.29149 7.81384 7.81382 7.2915 8.45817 7.2915Z" fill="#313131"/>
</g>
<defs>
<clipPath id="clip0_12640_50082">
<rect width="7" height="7" fill="white" transform="translate(3.5 3.5)"/>
</clipPath>
</defs>
</symbol><symbol id="plot-layout-7" viewBox="0 0 14 14">
<rect x="0.777344" y="0.777344" width="12.4444" height="12.4444" rx="2" fill="#FED324"/>
<g clip-path="url(#clip0_12640_50086)">
<path d="M4.66666 3.5H5.54166C6.18599 3.5 6.70832 4.02233 6.70832 4.66666V5.54166C6.70832 6.18599 6.18599 6.70832 5.54166 6.70832H4.66666C4.02233 6.70834 3.5 6.186 3.5 5.54166V4.66666C3.5 4.02233 4.02233 3.5 4.66666 3.5Z" fill="#313131"/>
<path d="M8.45817 3.5H9.33317C9.97749 3.5 10.4998 4.02233 10.4998 4.66666V5.54166C10.4998 6.18599 9.97749 6.70832 9.33317 6.70832H8.45817C7.81384 6.70832 7.2915 6.18599 7.2915 5.54166V4.66666C7.29149 4.02233 7.81382 3.5 8.45817 3.5Z" fill="#313131"/>
<path d="M4.66666 7.2915H5.54166C6.18599 7.2915 6.70832 7.81384 6.70832 8.45817V9.33317C6.70832 9.97749 6.18599 10.4998 5.54166 10.4998H4.66666C4.02233 10.4998 3.5 9.97751 3.5 9.33318V8.45818C3.5 7.81384 4.02233 7.2915 4.66666 7.2915Z" fill="#313131"/>
<path d="M8.45817 7.2915H9.33317C9.97749 7.2915 10.4998 7.81384 10.4998 8.45817V9.33317C10.4998 9.97751 9.97749 10.4998 9.33317 10.4998H8.45817C7.81384 10.4998 7.2915 9.97751 7.2915 9.33318V8.45818C7.29149 7.81384 7.81382 7.2915 8.45817 7.2915Z" fill="#313131"/>
</g>
<defs>
<clipPath id="clip0_12640_50086">
<rect width="7" height="7" fill="white" transform="translate(3.5 3.5)"/>
</clipPath>
</defs>
</symbol><symbol id="plot-layout-8" viewBox="0 0 14 14">
<rect x="0.777344" y="0.777344" width="12.4444" height="12.4444" rx="2" fill="#FEB721"/>
<g clip-path="url(#clip0_12640_50090)">
<path d="M4.66666 3.5H5.54166C6.18599 3.5 6.70832 4.02233 6.70832 4.66666V5.54166C6.70832 6.18599 6.18599 6.70832 5.54166 6.70832H4.66666C4.02233 6.70834 3.5 6.186 3.5 5.54166V4.66666C3.5 4.02233 4.02233 3.5 4.66666 3.5Z" fill="#313131"/>
<path d="M8.45817 3.5H9.33317C9.97749 3.5 10.4998 4.02233 10.4998 4.66666V5.54166C10.4998 6.18599 9.97749 6.70832 9.33317 6.70832H8.45817C7.81384 6.70832 7.2915 6.18599 7.2915 5.54166V4.66666C7.29149 4.02233 7.81382 3.5 8.45817 3.5Z" fill="#313131"/>
<path d="M4.66666 7.2915H5.54166C6.18599 7.2915 6.70832 7.81384 6.70832 8.45817V9.33317C6.70832 9.97749 6.18599 10.4998 5.54166 10.4998H4.66666C4.02233 10.4998 3.5 9.97751 3.5 9.33318V8.45818C3.5 7.81384 4.02233 7.2915 4.66666 7.2915Z" fill="#313131"/>
<path d="M8.45817 7.2915H9.33317C9.97749 7.2915 10.4998 7.81384 10.4998 8.45817V9.33317C10.4998 9.97751 9.97749 10.4998 9.33317 10.4998H8.45817C7.81384 10.4998 7.2915 9.97751 7.2915 9.33318V8.45818C7.29149 7.81384 7.81382 7.2915 8.45817 7.2915Z" fill="#313131"/>
</g>
<defs>
<clipPath id="clip0_12640_50090">
<rect width="7" height="7" fill="white" transform="translate(3.5 3.5)"/>
</clipPath>
</defs>
</symbol><symbol id="plot-layout-9" viewBox="0 0 14 14">
<rect x="0.777344" y="0.777344" width="12.4444" height="12.4444" rx="2" fill="#FC9A28"/>
<g clip-path="url(#clip0_12889_266673)">
<path d="M4.66666 3.5H5.54166C6.18599 3.5 6.70832 4.02233 6.70832 4.66666V5.54166C6.70832 6.18599 6.18599 6.70832 5.54166 6.70832H4.66666C4.02233 6.70834 3.5 6.186 3.5 5.54166V4.66666C3.5 4.02233 4.02233 3.5 4.66666 3.5Z" fill="white"/>
<path d="M8.45817 3.5H9.33317C9.97749 3.5 10.4998 4.02233 10.4998 4.66666V5.54166C10.4998 6.18599 9.97749 6.70832 9.33317 6.70832H8.45817C7.81384 6.70832 7.2915 6.18599 7.2915 5.54166V4.66666C7.29149 4.02233 7.81382 3.5 8.45817 3.5Z" fill="white"/>
<path d="M4.66666 7.2915H5.54166C6.18599 7.2915 6.70832 7.81384 6.70832 8.45817V9.33317C6.70832 9.97749 6.18599 10.4998 5.54166 10.4998H4.66666C4.02233 10.4998 3.5 9.97751 3.5 9.33318V8.45818C3.5 7.81384 4.02233 7.2915 4.66666 7.2915Z" fill="white"/>
<path d="M8.45817 7.2915H9.33317C9.97749 7.2915 10.4998 7.81384 10.4998 8.45817V9.33317C10.4998 9.97751 9.97749 10.4998 9.33317 10.4998H8.45817C7.81384 10.4998 7.2915 9.97751 7.2915 9.33318V8.45818C7.29149 7.81384 7.81382 7.2915 8.45817 7.2915Z" fill="white"/>
</g>
<defs>
<clipPath id="clip0_12889_266673">
<rect width="7" height="7" fill="white" transform="translate(3.5 3.5)"/>
</clipPath>
</defs>
</symbol></svg>